<?xml version="1.0" encoding="UTF-8" standalone="no"?>
<!-- Created with Inkscape (http://www.inkscape.org/) -->

<svg
   width="109.35444mm"
   height="109.3845mm"
   viewBox="0 0 109.35444 109.3845"
   version="1.1"
   id="svg1"
   inkscape:export-filename="derecha_arriba.svg"
   inkscape:export-xdpi="96"
   inkscape:export-ydpi="96"
   xmlns:inkscape="http://www.inkscape.org/namespaces/inkscape"
   xmlns:sodipodi="http://sodipodi.sourceforge.net/DTD/sodipodi-0.dtd"
   xmlns="http://www.w3.org/2000/svg"
   xmlns:svg="http://www.w3.org/2000/svg">
  <sodipodi:namedview
     id="namedview1"
     pagecolor="#ffffff"
     bordercolor="#000000"
     borderopacity="0.25"
     inkscape:showpageshadow="2"
     inkscape:pageopacity="0.0"
     inkscape:pagecheckerboard="0"
     inkscape:deskcolor="#d1d1d1"
     inkscape:document-units="mm"
     inkscape:zoom="0.73139029"
     inkscape:cx="396.50513"
     inkscape:cy="561.25984"
     inkscape:window-width="1920"
     inkscape:window-height="1017"
     inkscape:window-x="-8"
     inkscape:window-y="-8"
     inkscape:window-maximized="1"
     inkscape:current-layer="layer1" />
  <defs
     id="defs1">
    <clipPath
       clipPathUnits="userSpaceOnUse"
       id="clipPath4-0">
      <path
         d="M 61.290405,0 H 435.0697 V 373.7793 H 61.290405 Z"
         transform="matrix(-1.3229732,0,0,-1.3229732,575.18559,494.40001)"
         clip-rule="evenodd"
         id="path4-5" />
    </clipPath>
  </defs>
  <g
     inkscape:label="Capa 1"
     inkscape:groupmode="layer"
     id="layer1"
     transform="translate(-17.852999,-50.323599)">
    <path
       id="path3-1"
       d="m 162.24,14.68 c 0,-5.1699998 4.2,-8.2599999 9.10001,-6.6899998 0.53999,0.1799999 1.07001,0.3700004 1.59,0.6 1.50912,0.5964107 2.68016,1.5909158 3.51311,2.9835138 0.83296,1.392598 1.15525,2.89476 0.96688,4.506486 -0.13142,1.568199 -0.69012,2.965567 -1.6761,4.192104 -0.98598,1.226538 -2.23062,2.072502 -3.7339,2.537895 -1.56062,0.435282 -3.09764,0.363728 -4.61107,-0.214662 -1.51343,-0.57839 -2.7064,-1.550169 -3.57893,-2.915337 -1.06624,-1.496191 -1.58957,-3.162859 -1.57,-5 z m 202.60003,63.769997 c -1.26004,-0.0066 -2.47159,-0.252129 -3.63468,-0.736733 -1.16311,-0.484611 -2.19061,-1.171928 -3.08255,-2.061965 -0.8919,-0.890038 -1.58139,-1.916108 -2.06842,-3.078194 -0.48703,-1.162087 -0.73517,-2.373123 -0.74435,-3.63311 0,-4.950001 4.04999,-9.32 8.67001,-9.360001 5.12,0 10,4.699997 10,9.760002 -0.008,1.208214 -0.24533,2.369515 -0.71228,3.483887 -0.46695,1.114365 -1.12829,2.098023 -1.98404,2.950974 -0.85574,0.852958 -1.84158,1.51107 -2.95749,1.974342 -1.1159,0.463272 -2.27798,0.696869 -3.48623,0.700798 z M 328.09,82 c -3.39002,0 -6,-2.269997 -6,-5.290001 0.005,-1.708336 0.59286,-3.184059 1.76468,-4.427162 1.17178,-1.243111 2.61022,-1.917389 4.3153,-2.022835 1.66928,0.01429 3.10471,0.600937 4.30622,1.759926 1.20147,1.158989 1.83941,2.57235 1.91378,4.240074 -0.0337,0.799545 -0.21981,1.561844 -0.5585,2.286904 -0.33862,0.725067 -0.80371,1.357078 -1.39526,1.896041 -0.59155,0.538964 -1.26401,0.94339 -2.01737,1.21328 C 329.6655,81.926125 328.88922,82.040718 328.09,82 Z M 81.550003,87.800003 c -5,0 -8.739998,-3.279999 -8.889999,-7.839996 -0.109032,-1.809502 0.377571,-3.441399 1.459793,-4.895691 1.082222,-1.454293 2.50563,-2.389061 4.27021,-2.804306 1.613785,-0.436043 3.230057,-0.445481 4.848816,-0.02831 1.618767,0.417168 3.029159,1.206604 4.231186,2.368309 1.130501,1.085457 1.854698,2.395523 2.172592,3.930184 0.317894,1.53466 0.173691,3.024597 -0.432602,4.46981 -0.677483,1.497749 -1.712707,2.68306 -3.105659,3.555931 -1.392952,0.872871 -2.911065,1.28756 -4.554337,1.244072 z m 349.999987,-39.52 c -0.23685,-0.08812 -0.4802,-0.151459 -0.73001,-0.189999 -7.24668,0 -14.49668,0 -21.75,0 -0.50748,-0.05548 -0.99414,0.02119 -1.45999,0.23 -2.99698,1.480304 -5.43366,3.603637 -7.31,6.369998 -1.18769,1.797234 -1.41101,3.707234 -0.67002,5.73 0.94001,2.599998 3.28,3.509998 5.66001,2.110001 2.19974,-1.204686 3.47973,-3.04802 3.84002,-5.530003 0.16001,-1.080002 0.56,-1.32 1.5,-0.82 0.58017,0.311825 1.03684,0.751824 1.37,1.32 0.99881,1.586224 1.28882,3.292889 0.87,5.119999 -0.28544,1.19215 -0.77128,2.296123 -1.45749,3.311916 -0.68619,1.015786 -1.52903,1.878594 -2.52845,2.58841 -0.99948,0.709808 -2.09176,1.221351 -3.27691,1.53463 -1.18515,0.313262 -2.38751,0.408279 -3.60715,0.285041 -1.57001,-0.18 -1.73001,-0.11 -1.78,1.410004 -0.16,4.57 -7.64001,7.739998 -11.29999,4.470001 -1.112,-1.009407 -2.052,-2.159401 -2.82,-3.449997 -0.35501,-0.823837 -0.90168,-1.490501 -1.64002,-2 -0.6,1.812828 -0.69998,3.652825 -0.29999,5.519997 0.57999,4.409996 2.23001,8.510002 3.88001,12.599998 1.18265,2.609993 2.08597,5.313332 2.70999,8.110001 0.07,0.43 -0.19,1 0.48001,1.260002 0.17722,-0.11647 0.34387,-0.246467 0.5,-0.389999 6.72,-7.540001 14.06,-14.489998 21.35001,-21.459999 1.04989,-0.991021 1.71658,-2.194352 2,-3.610001 2.14038,-9.384083 6.99371,-17.050747 14.55999,-23 z m 13.85998,14.25 c -0.55999,0.09 -0.70001,0.439998 -0.91,0.709999 -2.98599,3.95972 -6.56995,7.272472 -10.75192,9.938266 -4.18198,2.665795 -8.698,4.516373 -13.54807,5.551735 -0.99106,0.232613 -1.82107,0.732613 -2.48999,1.5 -7.17999,7.400002 -14.23001,14.940003 -21.95001,21.799997 -0.17282,0.22045 -0.31949,0.45712 -0.44,0.71 4.70999,0.5 8.75,2.67 13,4.23 2.6488,1.05654 5.37545,1.84321 8.17999,2.36 2.08331,0.45519 4.16666,0.45519 6.25,0 0,-0.85 -0.64002,-1 -1.09,-1.32 -1.17898,-0.6616 -2.28231,-1.4316 -3.30999,-2.30999 -1.08197,-0.93747 -1.77826,-2.10496 -2.08884,-3.50248 -0.31058,-1.39753 -0.17429,-2.750035 0.40884,-4.057523 1.07001,-3 3.06,-4.690002 6.29999,-4.790001 0.20297,-0.05156 0.38965,-0.138229 0.56,-0.260002 -0.08,-0.660004 -0.19,-1.300003 -0.23001,-1.93 -0.0891,-2.16288 0.45562,-4.152176 1.63424,-5.967873 1.17868,-1.815704 2.77393,-3.123077 4.78577,-3.922127 2.10361,-0.902076 4.16028,-0.805404 6.17001,0.290001 0.80783,0.381264 1.39783,0.977928 1.76999,1.790001 0.32001,0.739998 0.05,1.150002 -0.78,1.230003 -2.61309,0.264092 -4.52642,1.560761 -5.73999,3.89 -1.41,2.36 -0.45001,4.720001 2.14002,5.650001 2.27145,0.80436 4.36145,0.471032 6.26999,-1 2.03235,-1.500892 3.699,-3.334228 5,-5.5 0.73034,-1.088981 1.08368,-2.288986 1.06,-3.599998 0,-6.540001 0,-13.090004 0,-19.629997 0.0714,-0.63712 -0.002,-1.257122 -0.21998,-1.860016 l 0.02,4e-6 z M 424.73996,138.34 c -1.25931,-0.0117 -2.46988,-0.26052 -3.63171,-0.74662 -1.16184,-0.48613 -2.18894,-1.17352 -3.08136,-2.06218 -0.8924,-0.88865 -1.58408,-1.91285 -2.07505,-3.07261 -0.49096,-1.15976 -0.74493,-2.3693 -0.76187,-3.62859 0.0131,-1.20653 0.25452,-2.36552 0.72415,-3.47697 0.46964,-1.11146 1.13245,-2.09238 1.98844,-2.94276 0.85602,-0.85039 1.84128,-1.50674 2.95578,-1.96905 1.11453,-0.46229 2.27505,-0.69603 3.48163,-0.70121 1.28939,0.0602 2.5231,0.35408 3.70114,0.88171 1.17801,0.52762 2.21869,1.25242 3.12207,2.17437 0.90341,0.92196 1.6069,1.97718 2.1105,3.16568 0.50357,1.1885 0.77231,2.42791 0.80628,3.71824 C 434,134.33 429.70001,138.34 424.72,138.34 h 0.02 z m -7.25,21 c 1.63565,0.0634 3.02591,0.68013 4.17078,1.85006 1.14486,1.16996 1.73126,2.57326 1.75921,4.20993 -0.0284,0.82251 -0.20913,1.61005 -0.54226,2.36263 -0.3331,0.75258 -0.79459,1.41585 -1.3844,1.98984 -0.58985,0.57399 -1.26545,1.01724 -2.0268,1.32978 -0.76138,0.31254 -1.55356,0.47179 -2.37652,0.47776 -3.14002,0 -5.46,-2.62 -5.4,-6.12 -0.0202,-0.78547 0.11112,-1.54478 0.39386,-2.27791 0.28272,-0.7331 0.69522,-1.38394 1.23755,-1.95253 0.54233,-0.56858 1.17294,-1.01139 1.89185,-1.32844 0.71896,-0.31706 1.47122,-0.4841 2.25677,-0.50112 l 0.02,-0.04 z M 368.26001,27.58 c -31.58667,0 -63.17667,0 -94.76999,0 -1.32797,-0.09244 -2.42795,0.364227 -3.29999,1.370001 -3.76999,4 -10.39001,2.28 -12.47,-3.110001 -0.36453,-0.848984 -0.52939,-1.735117 -0.49457,-2.658401 0.0348,-0.923285 0.266,-1.794476 0.69349,-2.613575 0.42746,-0.8191 1.00994,-1.506934 1.74743,-2.063504 0.73752,-0.55657 1.55872,-0.928075 2.46366,-1.114521 3.42001,-0.78 6.45999,0.08 8.52999,3 0.80756,1.179652 1.92087,1.682984 3.33997,1.510001 38.78,0.07333 77.55667,0.159999 116.33002,0.26 25.26001,0.06 50.51001,0.209999 75.76999,0.209999 4.32,0 5.14999,1.479999 5.14999,5.110001 0.10001,51.726665 0.23001,103.45332 0.39001,155.17999 0,12.31 0.13001,24.61 0.14002,36.92 -0.17114,1.51493 0.37552,2.69827 1.64001,3.55 1.35358,1.01625 2.2808,2.33278 2.78165,3.94957 0.50089,1.61681 0.48032,3.22694 -0.0616,4.83043 -0.2316,0.85538 -0.63065,1.62379 -1.19712,2.30527 -0.5665,0.68147 -1.24905,1.21418 -2.04773,1.59817 -0.7987,0.38397 -1.64108,0.58438 -2.5271,0.60123 -0.88601,0.0169 -1.73538,-0.15135 -2.54806,-0.50467 -6.29001,-2.53999 -6.85001,-9.62 -2.72,-12.89 0.76791,-0.6367 1.06793,-1.4467 0.89999,-2.42999 0,-5.49001 0,-11 0,-16.44001 -0.14667,-57.77334 -0.30667,-115.546665 -0.48001,-173.320003 0,-3.100001 0.26999,-2.770001 -2.70999,-2.770001 H 368.26005 V 27.58 Z m 117.83002,297.29997 c 0,3.82999 -3.09,6.64002 -7.16001,6.60001 -4.58999,-0.05 -8.44,-3.72 -8.35,-8 0.0442,-1.00623 0.27783,-1.9664 0.70077,-2.88049 0.42298,-0.91407 1.00363,-1.71363 1.74201,-2.39868 0.7384,-0.68503 1.57919,-1.20426 2.5224,-1.55762 0.9432,-0.35336 1.91815,-0.51444 2.92483,-0.48322 C 483.76001,316.28 486,321.25 486.09,324.88 Z m -64.44001,87.87 c 0,4.20999 -2.39999,7.36999 -6,8.09 -1.93057,0.43667 -3.76321,0.17843 -5.49792,-0.77469 -1.73474,-0.95316 -2.93543,-2.36161 -3.60208,-4.22531 -0.99454,-2.34906 -1.02118,-4.70905 -0.08,-7.07999 0.48084,-1.38855 1.30609,-2.52759 2.47574,-3.41708 1.16965,-0.8895 2.48773,-1.3805 3.95425,-1.47294 1.42484,-0.1463 2.77851,0.0994 4.06101,0.7371 1.28256,0.63763 2.29553,1.5686 3.03897,2.79293 1.10629,1.61176 1.65631,3.39508 1.64999,5.35001 l 3e-5,-3e-5 z m 1,-18.54001 c -2.19021,1.22305 -4.50021,2.14639 -6.92999,2.76999 -7.65585,1.57687 -15.26587,1.38019 -22.82998,-0.59 -0.48713,-0.11822 -0.9538,-0.29156 -1.4,-0.51999 -0.75311,-0.27206 -1.17578,-0.80578 -1.268,-1.60119 -0.0922,-0.79541 0.19714,-1.41168 0.86801,-1.84882 0.90915,-0.68698 1.87246,-1.28698 2.89001,-1.79999 8.56449,-4.60208 16.44782,-10.16873 23.65,-16.70001 7.22256,-6.56265 13.26257,-14.07599 18.11999,-22.54001 0.84567,-1.48349 1.51233,-3.04348 2,-4.67999 3.27524,-10.62759 5.63858,-21.45428 7.09,-32.48001 0.15872,-1.41559 0.23205,-2.8356 0.22,-4.26001 0.04,-18.5 0.0733,-37.00333 0.1,-55.50999 0,-8.53 0.10001,-17.07 0.14002,-25.61 0.0942,-0.83371 0.0375,-1.65705 -0.17001,-2.47001 -0.79999,0.33001 -1.07999,1.09 -1.51999,1.65 -2.00827,2.71263 -4.52671,4.81373 -7.55533,6.30333 -3.02863,1.48961 -6.2302,2.20184 -9.60468,2.13667 -2.28817,0.0254 -4.50076,-0.37111 -6.63769,-1.18954 -2.13696,-0.81844 -4.04834,-2.00135 -5.73416,-3.54876 -1.68579,-1.54741 -3.02771,-3.35072 -4.02576,-5.40992 -0.99808,-2.05922 -1.58218,-4.22982 -1.75238,-6.51178 -0.44,-4.9 0.35001,-9.51 3.72,-13.38001 0.12195,-0.20692 0.21195,-0.42692 0.26999,-0.66 -7.06,-1.39 -12.51999,-5.3 -17.14999,-10.53 -1.89734,-2.07684 -3.32734,-4.43684 -4.29001,-7.08 -0.40396,-0.8629 -0.54062,-1.76624 -0.41001,-2.71001 0.0462,-0.45607 0.27286,-0.7894 0.68,-1 0.51999,-0.21001 0.76999,0.21001 1,0.53999 0.23001,0.32999 0.57998,0.81 0.88,1.21001 3.5026,4.66982 7.7626,8.49649 12.78,11.48 3.74915,2.29963 7.82245,3.40966 12.21994,3.33009 2.06,0 4.12,-0.13 6.17999,-0.14999 0.47,0 1.09,-0.11 1.34,0.41 0.25,0.52 -0.23999,1.11 -0.64999,1.42 -2.14362,1.67317 -4.03696,3.59317 -5.68,5.75999 -1.95163,2.44684 -2.85495,5.23351 -2.70999,8.36 0.0352,0.87473 0.18262,1.73008 0.44235,2.56606 0.25974,0.836 0.62299,1.62428 1.08976,2.36485 0.46679,0.74059 1.02127,1.40837 1.66342,2.00333 0.64215,0.59497 1.35022,1.09695 2.1242,1.50596 0.77402,0.40902 1.58771,0.71119 2.44104,0.90651 0.85334,0.19533 1.71741,0.27719 2.59223,0.24558 0.87485,-0.0316 1.7308,-0.17558 2.56781,-0.43199 0.837,-0.2564 1.62674,-0.61649 2.3692,-1.0803 1.62216,-1.06202 3.03217,-2.35536 4.22998,-3.88 2.61484,-3.40654 4.7915,-7.0732 6.53,-11 2.0101,-4.14977 2.97345,-8.52977 2.89001,-13.14 -0.09,-32.37 0,-64.75 0.07,-97.129997 v -3 c -3.63,2.760002 -7.36999,4.309997 -11.45001,4.249997 -0.42999,0.36 -0.29001,0.65 -0.26001,0.92 0.21191,1.31175 0.18985,2.61955 -0.0662,3.92341 -0.25602,1.30386 -0.73017,2.52288 -1.42243,3.65708 -0.69226,1.1342 -1.55969,2.11319 -2.60226,2.93699 -1.04254,0.82381 -2.19559,1.44131 -3.45911,1.85252 -3.75,1.35 -7.57001,1.1 -11.36999,0.24 -3.73243,-0.95113 -7.33908,-2.25113 -10.82001,-3.9 -2.30856,-1.11163 -4.67856,-2.07163 -7.10999,-2.88 -0.90542,-0.2854 -1.83209,-0.40207 -2.78,-0.35 -0.0793,0.32868 0.0408,0.54868 0.35999,0.66001 9.79001,5.7 13.86999,15.64 10.89001,26.58999 -0.29998,1.10001 -0.67001,2.17 -1.05999,3.24001 -1.8526,4.74501 -2.63401,9.66029 -2.34421,14.74588 0.28979,5.08559 1.62451,9.88029 4.00418,14.38411 1.75229,3.58736 4.21896,6.58736 7.39999,9 1.40604,1.14395 2.99271,1.91728 4.76001,2.32001 1.1687,0.30955 2.32996,0.28377 3.48377,-0.0774 1.15381,-0.36113 2.12256,-1.00202 2.90625,-1.92264 3.3851,-3.86553 4.86844,-8.35887 4.44998,-13.48001 -0.0638,-1.696 -0.60413,-3.22345 -1.621,-4.58233 -1.01685,-1.35885 -2.32984,-2.30807 -3.939,-2.84767 -1.66,-0.63 -3.36999,-1.11 -5.06,-1.66 -0.41,-0.13001 -0.82,-0.23 -1.22,-0.39999 -0.57998,-0.26 -1.26001,-0.55001 -1.25,-1.30001 0.01,-0.75 0.68,-1.06 1.29001,-1.25 4.14002,-1.25 10.26001,-1.6 14.51999,2.80001 2.83823,2.93803 4.39823,6.4447 4.67999,10.52 0.5517,5.41072 -0.49163,10.49405 -3.13,15.25 -4.31,7.75 -12.56,10.47 -20.67001,6.87 -3.36515,-1.51804 -6.24183,-3.68471 -8.63001,-6.5 -3.48791,-3.85953 -6.02792,-8.26551 -7.62002,-13.21792 -1.59208,-4.9524 -2.0954,-10.01309 -1.50998,-15.18208 0.0159,-0.23668 0.0159,-0.47334 0,-0.71001 -0.73999,-0.24 -1.18,0.36 -1.67002,0.64 -2.86709,1.6708 -5.94711,2.3008 -9.23999,1.89 -6.28,-0.83 -10.73999,-7 -9.39999,-12.94 0.92001,-4.14999 4.67999,-7.13 8.61999,-6.78 2.3299,0.14212 4.06989,1.22879 5.22,3.26 0.56345,0.94435 0.80863,1.96513 0.73548,3.06236 -0.0731,1.09723 -0.45166,2.07645 -1.13547,2.93764 -0.41,0.50999 -0.85001,1 -1.57001,0.91999 -0.72,-0.08 -1,-0.75999 -1.10998,-1.41 -0.11896,-0.69826 -0.29563,-1.38159 -0.53,-2.05 -0.31317,-0.94844 -0.96323,-1.49936 -1.95017,-1.65279 -0.98693,-0.15343 -1.77356,0.17418 -2.35983,0.98279 -1.09408,1.14314 -1.4274,2.47649 -1,4 0.32413,1.27553 0.9693,2.36011 1.93546,3.25374 0.96615,0.89364 2.09765,1.45239 3.39453,1.67625 1.43005,0.29122 2.83337,0.19455 4.20999,-0.28999 4.5,-1.77001 7.95001,-4.57001 9.36999,-9.45 1.54911,-4.72169 1.71576,-9.49168 0.5,-14.30999 -0.70309,-2.90991 -2.11642,-5.4199 -4.23999,-7.53 -3.55999,-3.36 -8.67999,-4.86 -13.5,-0.17 -4.54,4.42 -9,8.87 -13.91,12.93001 -0.51352,0.32984 -0.77685,0.79985 -0.79001,1.41 0.06,4.41 -1.61999,8.34 -3.39001,12.24 -8.68662,19.16666 -22.78327,32.70333 -42.28995,40.60999 -3.20218,1.39668 -6.51218,2.45668 -9.92999,3.17999 -0.55722,0.12157 -1.12055,0.19825 -1.69,0.23 -0.4004,0.0503 -0.78986,0.006 -1.1684,-0.13417 -0.37854,-0.13977 -0.70361,-0.35887 -0.97519,-0.6573 -0.27161,-0.29848 -0.4592,-0.64272 -0.56274,-1.03272 -0.10355,-0.39003 -0.11145,-0.78197 -0.0237,-1.17581 0.21665,-1.91792 0.64331,-3.78792 1.28,-5.61 6.59,-19.11 17.70999,-34.59 35.79001,-44.46001 3.81311,-2.23411 7.78977,-4.12411 11.92999,-5.67 2.21238,-0.84635 4.50238,-1.30635 6.87,-1.37999 0.84216,0.0177 1.50882,-0.31568 2,-1 3.86999,-4.65 8.07999,-9 12.34,-13.29001 4.73001,-4.76999 4.42001,-10.5 -0.73999,-14.829996 -4,-3.339997 -8.73999,-4.25 -13.78,-4.110001 -3.07743,0.163315 -6.05744,0.789978 -8.94001,1.879997 -4.13,1.449997 -8.23001,7.63 -8,12 0.0395,1.39287 0.46817,2.65339 1.28605,3.78157 0.81784,1.12817 1.88247,1.92765 3.19397,2.39843 1.61001,0.65832 3.08667,0.43498 4.42999,-0.67 1.79999,-1.49 1.44,-3.69 -0.73999,-4.51999 -0.66001,-0.25 -1.39002,-0.31 -2.07001,-0.51001 -1.36999,-0.42 -1.59,-1.34999 -0.57999,-2.36 0.96027,-0.87346 2.08884,-1.33847 3.38572,-1.39502 1.29684,-0.0565 2.4616,0.30846 3.49429,1.09502 1.31933,1.01826 2.16693,2.33922 2.54278,3.96287 0.37583,1.62366 0.19492,3.1827 -0.54278,4.67713 -0.93317,1.88389 -2.34546,3.28473 -4.23688,4.20251 -1.89145,0.9178 -3.86581,1.1603 -5.92313,0.72749 -1.49707,-0.32692 -2.87478,-0.92754 -4.13317,-1.80186 -1.25846,-0.8743 -2.30198,-1.95592 -3.13062,-3.24485 -0.8287,-1.28894 -1.37958,-2.6873 -1.65262,-4.1951 -0.27307,-1.50779 -0.24759,-3.01052 0.0764,-4.50819 0.52222,-2.28481 1.40887,-4.41815 2.66,-6.400002 -0.85348,-0.237518 -1.71347,-0.264183 -2.57998,-0.08 -4.48838,0.283272 -8.8798,-0.242866 -13.17423,-1.578415 -4.29443,-1.335548 -8.20969,-3.392746 -11.74579,-6.171585 -2.51556,-1.910805 -4.6589,-4.174141 -6.42999,-6.790001 -1.53702,-2.186027 -2.56702,-4.589355 -3.09,-7.209999 -1.16,-6.440002 0.81,-11.770004 6.14002,-15.52 2.9711,-2.127472 6.25332,-3.523598 9.84662,-4.188378 3.59329,-0.664775 7.15777,-0.535316 10.69339,0.388379 1.10876,0.279521 2.16876,0.686187 3.17999,1.220001 7.51001,3.799999 8.70999,10.409996 6.89999,17.129997 -0.0811,0.274826 -0.20114,0.531494 -0.35998,0.769997 -0.63001,1 -1.32001,1.080001 -1.94,0.09 -0.30814,-0.558785 -0.54816,-1.145454 -0.72001,-1.760002 -0.49704,-1.856545 -1.10373,-3.676544 -1.82,-5.459999 -0.60532,-1.537277 -1.5838,-2.780983 -2.9354,-3.731118 -1.35165,-0.950134 -2.85318,-1.44976 -4.50461,-1.498886 -4.68179,-0.310554 -8.87847,0.969445 -12.58999,3.839997 -2.92002,2.199997 -3.62,5.150001 -2.25,8.550003 0.88034,2.059578 2.13034,3.862907 3.75,5.410003 4.8226,4.756005 10.58258,7.639344 17.28,8.650002 6.60992,1.174843 13.03659,0.528175 19.28,-1.940002 7.42999,-2.860001 14.75,-2.75 21.70999,1.550003 3.39489,2.019508 5.97488,4.79618 7.73999,8.330001 0.11242,0.429833 0.37243,0.733162 0.78,0.910004 0.0589,-1.330551 -0.1511,-2.617218 -0.63001,-3.860001 -0.82889,-2.351577 -1.7822,-4.65158 -2.85998,-6.900001 -1.93,-4.440003 -3.75,-8.919998 -4.31,-13.790001 -0.34336,-2.657051 -0.0934,-5.257057 0.75,-7.800003 2.07998,-6 8.08999,-9.09 12.64001,-7.700001 0.26667,0.03481 0.53333,0.03481 0.79999,0 -0.10355,-4.295498 1.2298,-8.085495 4,-11.369999 -0.54999,-0.61 -1.16,-0.389999 -1.67999,-0.389999 -34.23334,0.06 -68.46335,0.130001 -102.69,0.209999 -0.86124,-0.05933 -1.70456,0.03733 -2.53,0.290001 -5.59,2.130001 -11.07999,4.470001 -15.92002,8.09 -1.70324,1.203106 -3.19659,2.62645 -4.48001,4.270031 -0.75778,0.982555 -1.31616,2.067703 -1.67517,3.255447 -0.35901,1.187745 -0.49521,2.400513 -0.40857,3.638298 0.0866,1.237801 0.39044,2.41977 0.91141,3.545922 0.52097,1.126152 1.22507,2.122932 2.11233,2.990333 2.67002,2.699997 6,3.099999 9.48999,2.510002 1.85108,-0.314231 3.51774,-1.047569 5,-2.199997 2.09458,-1.503707 3.94123,-3.267044 5.54001,-5.29 0.48999,-0.660004 1.04999,-1.650002 2,-1.25 0.95002,0.400001 0.57999,1.379997 0.47,2.150001 -0.21347,1.911308 -0.2868,3.82798 -0.22,5.75 0.0196,3.851067 0.95624,7.464394 2.81,10.839996 3.01953,5.425469 7.01953,9.992135 12,13.700002 0.39002,0.31 0.81,0.58 1.20001,0.88 0.39002,0.29999 0.70999,0.58 0.5,1.05999 -0.20752,0.40968 -0.54086,0.61968 -1,0.63 -0.79016,0.073 -1.56015,-0.0203 -2.30999,-0.28 -1.91678,-0.61121 -3.67676,-1.52455 -5.28,-2.74 -6.12,-4.639999 -10.73999,-10.340003 -12.45999,-17.999999 -0.0622,-0.18792 -0.14219,-0.36792 -0.23999,-0.540001 -0.20002,-0.186417 -0.40003,-0.186417 -0.60001,0 -6,4.75 -12.60001,4.849998 -19.32999,2.120003 -7.45999,-3 -11.73001,-11 -10.66,-19.080002 0.33487,-2.985531 1.2597,-5.77549 2.77453,-8.369873 1.51487,-2.594383 3.49,-4.771092 5.92542,-6.530121 l 1,-0.779999 c 0.075,-0.0802 0.14172,-0.16687 0.20001,-0.259998 -0.64001,-0.599999 -1.44,-0.349999 -2.14001,-0.349999 -10,0 -20.07001,0.05 -30.10001,0.06 -15.38,0 -30.75,0.150001 -46.11999,0 -6.69979,0.03845 -13.33644,0.705116 -19.91001,2 -7.26491,1.398895 -14.43823,3.168895 -21.52,5.310001 -1.98705,0.589089 -3.87371,1.409088 -5.66001,2.459999 -12.64999,7.359997 -22.80999,17.369999 -31.16999,29.289997 -2.5684,3.677803 -4.93507,7.48114 -7.1,11.410004 -0.52,0.940002 -1,1.869998 -1.58,2.789998 -0.58001,0.92 -1.22001,1.87 -2.460003,1.74 -1.239998,-0.13001 -1.690002,-1.16001 -2,-2.22 -0.08,-0.28 -0.190002,-0.55001 -0.25,-0.82 -1.8545,-7.288216 -2.054504,-14.621544 -0.599998,-22 0.562507,-2.601998 1.532509,-5.041992 2.910003,-7.32 -1.080085,-0.479088 -2.203422,-0.812424 -3.370002,-1 -7.28759,-1.937294 -14.457589,-4.240623 -21.510003,-6.91 -0.402992,-0.137802 -0.779663,-0.3278 -1.129997,-0.569999 -0.616951,-0.411629 -0.82695,-0.974961 -0.629997,-1.689999 0.155769,-0.713078 0.59243,-1.136414 1.309998,-1.270001 0.423332,-0.05533 0.846664,-0.05533 1.269996,0 9.678887,0.778363 19.345551,0.648365 29.000003,-0.389999 13.07016,-1.213795 25.89349,-3.700462 38.47,-7.459999 2.50999,-0.75 5,-1.610001 7.5,-2.420002 0.38,-0.130001 0.85,-0.139999 1.08,-0.790001 h -2.32001 c -44.60667,0.100002 -89.223332,0.200001 -133.850003,0.299999 -1.490403,-0.129314 -2.710404,0.384022 -3.66,1.540001 -1.028204,1.09668 -2.2820683,1.778176 -3.761592,2.044491 C 6.4188614,52.750813 5.0060587,52.549313 3.659977,51.880005 2.3564289,51.243893 1.373306,50.280724 0.71060795,48.99049 0.04790998,47.700256 -0.16229269,46.340096 0.08000001,44.91 0.23901355,43.631126 0.747347,42.510746 1.6050004,41.548859 2.4626536,40.586971 3.5176535,39.954018 4.77,39.650002 c 2.7400002,-0.82 5.38,-0.380002 7.18,1.889999 0.971608,1.263565 2.248275,1.796898 3.83,1.599998 C 40.480003,43.046665 65.173332,43 89.860001,43 h 2.5 c -0.565545,-0.578465 -1.232209,-0.995129 -2,-1.25 -4.068222,-1.923836 -7.468224,-4.673836 -10.199997,-8.25 -3.430001,-4.700001 -5,-9.91 -3.650002,-15.690001 C 78.480003,9.3000002 88.089996,4.2199998 96.260002,7.1999998 102.06001,9.3199997 105.8,15.45 104.77,21.200001 c -0.0237,1.496631 -0.74036,2.496631 -2.15,3 -0.16,-1 -0.25,-2 -0.48,-2.930001 -1,-4.11 -3.000001,-7.42 -7.220002,-8.829999 -1.760506,-0.629562 -3.552605,-0.738294 -5.376312,-0.326199 -1.8237,0.412096 -3.394928,1.280828 -4.713684,2.606198 -2.89,2.63 -3.419998,5.95 -2.540001,9.590001 0.69902,2.836745 2.102356,5.266745 4.209999,7.290001 2.993217,2.924927 6.493217,4.991593 10.5,6.199997 6.07719,1.825535 12.2672,3.105534 18.57,3.84 7.20821,0.910382 14.44488,1.330384 21.71,1.259999 l 83.26001,-0.14 c 0.7173,0.100239 1.42396,0.05024 2.11999,-0.150001 -0.11999,-0.700001 -0.75999,-0.57 -1.14999,-0.689999 -9.68111,-3.108929 -19.60443,-4.775596 -29.77,-5 -8.3388,-0.121292 -16.63878,0.388706 -24.9,1.529999 -0.91563,0.126781 -1.83563,0.193451 -2.75999,0.200001 -1.24283,0.147571 -2.10616,-0.355763 -2.59,-1.509999 -0.39517,-1.080734 -0.15184,-1.990734 0.73,-2.729999 0.7476,-0.760941 1.55095,-1.457607 2.41,-2.09 5.17,-3.760001 10.74001,-6.700001 17.14,-7.75 1.19,-0.200001 1.28,-0.700001 1,-1.74 -2.47,-10.68 4.33,-18.5000001 11.59,-22.19000061 0.5193,-0.26872429 1.06596,-0.45872408 1.63998,-0.56999938 0.81207,-0.23107493 1.55939,-0.09812717 2.24196,0.39884342 0.68255,0.49697056 1.03857,1.16735607 1.06804,2.01115657 0.0367,0.5674787 0.003,1.1308117 -0.10001,1.6900001 -0.48657,3.2476287 -0.31387,6.4598139 0.51808,9.6365579 0.83196,3.176743 2.25594,6.061223 4.27193,8.653441 3.17024,4.124893 7.04692,7.418226 11.63,9.880001 6.15078,3.355358 12.62745,5.872025 19.43,7.549999 3.85,1 7.75,1.82 11.67999,2.48 1.27004,0.185718 2.54669,0.26572 3.83,0.240002 l 194.90999,-0.279999 c 0.85336,-0.04503 1.7067,-0.04503 2.56,0 0.89987,0.01593 1.66852,0.341621 2.30594,0.97707 0.63739,0.635448 0.96542,1.403091 0.98407,2.302929 0.04,0.713333 0.04,1.426666 0,2.139999 -0.12,63.19334 -0.26334,126.38333 -0.43,189.57001 -0.0375,6.35359 0.69587,12.61693 2.20002,18.79001 1.54931,6.76559 3.8493,13.26559 6.89999,19.49997 2.0784,4.34439 4.83505,8.2044 8.26999,11.57998 4.40308,4.40668 9.70642,6.89334 15.91,7.45999 1.20877,0.10526 2.41544,0.0853 3.62,-0.06 0.99429,-0.15146 1.99429,-0.23145 3,-0.23999 2.25,0 3.32001,1.57 2.69,3.75 -0.0713,0.27584 -0.16797,0.54251 -0.29001,0.79998 -3.67001,7 -8.91,11.75 -17.13,12.41001 -1.71509,0.0956 -3.40842,-0.0543 -5.07999,-0.45002 -1.56,-0.32998 -1.61999,-0.32998 -1.92001,1.31 -1.17002,6.38001 -4.12,11.92002 -7.9,17.07999 -0.59524,0.80435 -1.26193,1.54434 -2,2.22 -0.75244,0.88541 -1.66244,1.09872 -2.73001,0.64001 -1.0473,-0.4699 -1.52063,-1.27658 -1.42001,-2.42001 0.0283,-1.49646 0.14169,-2.98645 0.33999,-4.47 1.32572,-9.25723 1.71903,-18.55389 1.18,-27.88998 -0.57288,-8.70166 -2.19956,-17.20166 -4.88001,-25.5 -0.0972,-0.32569 -0.29718,-0.56568 -0.6,-0.72001 0,0.51001 -0.12,1 -0.12,1.54001 -0.07,29 -0.22,58.06 -0.17001,87.10001 -0.068,11.86917 1.43533,23.53586 4.51001,35 1.11917,4.50995 3.24249,8.48328 6.36999,11.92001 2.32236,2.56638 5.18238,4.17969 8.57999,4.84 2.09232,0.48148 4.10763,0.26053 6.0459,-0.66281 1.93829,-0.92334 3.37967,-2.34906 4.32409,-4.27719 1.02872,-1.89548 1.39539,-3.91138 1.10001,-6.04773 C 481.40448,398.38593 480.50452,396.5452 479,395 c -2.15143,-2.14957 -4.74142,-3.36292 -7.76999,-3.64001 -0.54001,-0.05 -1.14001,0.10998 -1.70999,-0.39002 0.28265,-0.95731 0.91266,-1.53729 1.89001,-1.73999 1.80436,-0.60992 3.62769,-0.67325 5.47001,-0.19 1.66784,0.37753 3.20822,1.04794 4.62109,2.01123 1.41287,0.96332 2.59967,2.15228 3.56039,3.56692 0.96076,1.41465 1.62836,2.95624 2.00284,4.62476 0.37448,1.66852 0.42972,3.34753 0.16568,5.03708 -0.13028,1.08188 -0.37332,2.13782 -0.72906,3.16778 -0.35581,1.02994 -0.81629,2.01075 -1.3815,2.94236 -0.56519,0.93167 -1.22235,1.79315 -1.97153,2.58447 -0.74912,0.79129 -1.57337,1.4946 -2.47272,2.10986 -0.89926,0.61536 -1.85339,1.12885 -2.86236,1.54047 -1.00895,0.41159 -2.04999,0.712 -3.12314,0.9013 -1.07309,0.18931 -2.15405,0.26322 -3.24292,0.22175 -1.0889,-0.0415 -2.16113,-0.19751 -3.21677,-0.46799 -4.35934,-1.00641 -8.04935,-3.15973 -11.07001,-6.45999 -2.10171,-2.25562 -3.83505,-4.76563 -5.20001,-7.53 -0.26999,-0.53 -0.32001,-1.23001 -1.23999,-1.69 v 2 c 0,24.97332 -0.0433,49.94998 -0.13,74.92999 -0.12641,1.28198 0.33358,2.29864 1.38,3.04999 1.29453,1.05926 2.09308,2.41143 2.39563,4.05651 0.30258,1.64512 0.0374,3.19294 -0.79562,4.6435 -0.69437,1.34836 -1.73517,2.32904 -3.12241,2.94205 -1.38724,0.613 -2.81311,0.72232 -4.27759,0.32794 -1.18646,-0.24375 -2.21109,-0.79065 -3.07388,-1.64075 -0.86279,-0.8501 -1.42483,-1.86652 -1.68613,-3.04926 -0.38137,-1.23281 -0.39025,-2.46832 -0.0266,-3.70651 0.36362,-1.23816 1.03916,-2.27264 2.02661,-3.10348 1.06406,-0.82758 1.55738,-1.91425 1.48002,-3.26001 0.0667,-44.90668 0.15335,-89.81 0.26,-134.70999 v -1.53 c -0.73999,0.14999 -0.70999,0.70999 -0.85,1.13 -4.74393,13.75452 -7.92728,27.86121 -9.55005,42.32004 -0.92072,8.0708 -1.33072,16.16748 -1.23001,24.29001 0,2.48999 0.23001,5 0.42999,7.45001 0.045,0.56998 0.045,1.13998 0,1.70999 -0.11059,0.74845 -0.53561,1.20279 -1.27508,1.36301 -0.73948,0.16025 -1.31443,-0.0774 -1.72492,-0.71301 -0.30136,-0.56131 -0.55136,-1.14466 -0.75,-1.75 -2.88916,-7.58402 -5.29916,-15.31736 -7.23001,-23.20002 -0.0869,-0.32006 -0.19354,-0.63339 -0.31998,-0.94 l 3e-5,-3e-5 z"
       style="fill:#6b430a;fill-opacity:1;fill-rule:nonzero;stroke:none"
       transform="matrix(-0.22150613,0,0,-0.22150613,127.20361,159.69924)"
       clip-path="url(#clipPath4-0)" />
  </g>
</svg>
