<?xml version="1.0" encoding="UTF-8" standalone="no"?>
<!-- Created with Inkscape (http://www.inkscape.org/) -->

<svg
   version="1.1"
   id="svg1"
   width="461.61578"
   height="189.77798"
   viewBox="0 0 461.61578 189.77798"
   sodipodi:docname="Imagen de WhatsApp 2024-12-23 a las 13.54.56_4318ab65.jpg"
   inkscape:export-filename="WEB\img\calesa.svg"
   inkscape:export-xdpi="96"
   inkscape:export-ydpi="96"
   xmlns:inkscape="http://www.inkscape.org/namespaces/inkscape"
   xmlns:sodipodi="http://sodipodi.sourceforge.net/DTD/sodipodi-0.dtd"
   xmlns="http://www.w3.org/2000/svg"
   xmlns:svg="http://www.w3.org/2000/svg">
  <defs
     id="defs1" />
  <sodipodi:namedview
     id="namedview1"
     pagecolor="#ffffff"
     bordercolor="#000000"
     borderopacity="0.25"
     inkscape:showpageshadow="2"
     inkscape:pageopacity="0.0"
     inkscape:pagecheckerboard="0"
     inkscape:deskcolor="#d1d1d1"
     showgrid="false" />
  <g
     inkscape:groupmode="layer"
     inkscape:label="Image"
     id="g1"
     transform="translate(-143.97034,-359.98911)">
    <path
       style="fill:#000000"
       d="m 193.25,549.24653 c -4.11595,-0.19592 -7.25,-0.79327 -7.25,-1.38183 0,-0.5702 1.56422,-3.39333 3.47605,-6.27361 4.44667,-6.6992 5.68779,-16.34294 3.18241,-24.72805 -0.88314,-2.9557 -3.70097,-12.349 -6.26185,-20.874 -2.56088,-8.525 -5.26778,-19.1 -6.01533,-23.5 -2.48938,-14.65232 -2.10294,-14.06656 -8.95505,-13.57398 -3.25943,0.23431 -7.34717,0.42024 -9.08387,0.41319 -2.66538,-0.0108 -3.24526,0.42527 -3.71967,2.79732 -0.38667,1.93337 -1.3515,3.00828 -3.09236,3.44521 -4.38232,1.0999 -7.3636,-0.3346 -9.533,-4.58698 l -2.027,-3.97324 3.11427,-6.76076 c 1.71285,-3.71842 4.42962,-10.90482 6.03727,-15.96977 2.89719,-9.12767 5.19299,-12.29099 8.9203,-12.29099 0.87844,0 2.57533,-1.125 3.77088,-2.5 1.19555,-1.375 2.63784,-2.5 3.20509,-2.5 0.56725,0 1.45909,1.125 1.98186,2.5 0.52277,1.375 1.67355,2.5 2.55728,2.5 0.88373,0 4.94425,1.15194 9.02337,2.55987 4.07913,1.40792 7.93675,2.23839 8.57249,1.84549 0.63573,-0.39291 0.89664,-0.29492 0.57979,0.21775 -0.31685,0.51267 2.67856,2.60756 6.65646,4.6553 3.9779,2.04774 8.59668,5.05686 10.26396,6.68694 5.24484,5.1278 15.91032,10.27125 21.1986,10.22308 10.23498,-0.0932 72.43896,-14.35484 106.14805,-24.33674 7.425,-2.19868 17.94865,-5.30036 23.38588,-6.89263 5.43724,-1.59227 10.64767,-3.58444 11.57874,-4.42704 0.93108,-0.84261 2.70511,-1.53202 3.94231,-1.53202 1.34431,0 3.78418,-1.64584 6.06351,-4.09021 3.43549,-3.68423 3.86616,-4.75123 4.33899,-10.75 0.73715,-9.35217 0.99554,-10.49651 2.69057,-11.91562 1.23483,-1.03383 1.02916,-1.08821 -1.16342,-0.30767 -2.419,0.86115 -2.80968,0.63995 -4.25713,-2.41032 -1.17796,-2.48236 -1.34037,-4.02482 -0.62256,-5.91278 0.76266,-2.00597 0.62672,-2.74704 -0.63327,-3.45217 -1.97563,-1.10562 -0.88456,-3.16123 1.6779,-3.16123 1.50026,0 1.94605,-0.86297 2.19098,-4.24137 0.34372,-4.74103 1.52007,-5.41034 7.52806,-4.28323 l 3.52087,0.66051 -0.4739,4.93205 c -0.3472,3.6129 -0.1278,4.93204 0.8203,4.93204 1.9697,0 2.5813,1.67485 1.1714,3.20805 -3.61169,3.92743 -3.83783,5.58731 -1.2756,9.3629 1.3549,1.99661 2.6811,5.04745 2.9471,6.77963 0.266,1.73218 1.2039,7.33038 2.0841,12.44044 0.8802,5.11007 1.6502,11.4784 1.7111,14.15186 0.107,4.69589 0.1888,4.82527 2.4111,3.81275 1.2651,-0.57645 2.0331,-1.48033 1.7066,-2.00862 -0.3265,-0.52829 -0.5936,-3.4728 -0.5936,-6.54334 0,-4.38039 0.4317,-5.93239 2.0044,-7.20587 1.1024,-0.89268 2.3246,-3.08121 2.7161,-4.8634 0.8501,-3.87048 2.6692,-3.62946 3.8567,0.51097 1.1315,3.94528 4.3883,6.09701 6.0145,3.9737 1.5879,-2.07332 32.5297,-8.16376 46.3705,-9.12733 3.7333,-0.25991 9.2605,-0.74804 12.2828,-1.08472 l 5.495,-0.61216 -3.745,-1.92132 c -3.7725,-1.93542 -4.5879,-3.23457 -2.745,-4.37354 1.474,-0.91102 1.2579,-10.23893 -0.25,-10.79081 -1.4082,-0.51537 2.3785,-4.70919 4.252,-4.70919 0.5971,0 0.9926,-0.5625 0.8789,-1.25 -0.2008,-1.21404 0.9951,-6.53169 1.7894,-7.95633 0.7425,-1.33198 3.3297,0.41959 3.3297,2.2543 0,1.0087 0.4683,2.12342 1.0407,2.47717 0.5723,0.35375 0.7977,1.40851 0.5008,2.34393 -0.3673,1.15731 0.4185,2.26685 2.4594,3.47238 3.1128,1.83878 3.7157,3.09763 1.9934,4.16208 -1.1886,0.73454 -1.044,9.34773 0.1694,10.09766 1.6778,1.03692 0.7545,2.39296 -2.9088,4.27235 l -3.745,1.92132 5.995,0.59728 c 25.2733,2.51796 56.6497,7.67181 58.8696,9.66983 0.481,0.43293 0.8343,5.4336 0.7851,11.11259 -0.061,6.9801 0.2021,9.62495 0.8106,8.16338 0.4952,-1.18913 1.8747,-2.47133 3.0657,-2.84934 1.3775,-0.43721 1.8175,-1.0352 1.2092,-1.6435 -0.5339,-0.53389 -0.6459,-2.65319 -0.2537,-4.79834 0.3864,-2.11316 0.3093,-4.54485 -0.1713,-5.40375 -0.636,-1.1364 -0.2137,-1.99422 1.5507,-3.15031 1.4626,-0.95833 2.6863,-2.98383 3.0842,-5.1049 0.7693,-4.10073 2.5043,-4.02279 3.889,0.1747 0.533,1.61563 1.7293,3.6125 2.6586,4.4375 1.2289,1.09103 1.5928,2.69605 1.3345,5.88675 -0.1952,2.41272 0.083,4.91417 0.6177,5.55879 0.6639,0.79997 0.3457,1.70893 -1.0025,2.86325 -1.0864,0.93017 -2.3243,1.69121 -2.751,1.69121 -0.4268,0 -0.8514,1.4625 -0.9436,3.25 -0.1522,2.95134 -0.081,3.03733 0.7789,0.93576 0.9771,-2.38914 2.9634,-2.15515 2.9634,0.34909 0,0.77924 -0.8984,2.89019 -1.9963,4.69098 -2.1261,3.48709 -2.5753,5.24546 -1.1085,4.33893 0.4923,-0.3043 1.1532,0.11914 1.4686,0.94098 0.3414,0.88974 0,1.49426 -0.8348,1.49426 -0.9055,0 -1.5191,1.33885 -1.7187,3.75 -0.3716,4.48987 -3.3442,5.46124 -3.2572,1.06437 0.049,-2.44953 -0.2153,-2.63972 -3,-2.16346 -1.6792,0.28719 -3.5866,0.68294 -4.2385,0.87945 -0.652,0.19651 -1.404,-0.17993 -1.6711,-0.83654 -0.2671,-0.6566 -0.5212,2.74368 -0.5646,7.55618 l -0.079,8.75 4.75,0.0148 c 15.5791,0.0485 31.9394,9.20896 39.7349,22.24845 9.0943,15.21206 9.4657,32.06411 1.0443,47.38495 -1.8626,3.38863 -3.0812,6.50119 -2.7079,6.91681 0.3733,0.41561 0.2287,0.55725 -0.3213,0.31475 -0.8444,-0.37228 -8.4536,6.50901 -8.115,7.33867 0.063,0.15487 -0.077,0.16497 -0.3108,0.0224 -0.2342,-0.14253 -1.508,0.75747 -2.8306,2 -2.71865,2.55406 -34.64183,18.49135 -59.0151,-5.88188 -2.9296,-2.92958 -5.0099,-4.81428 -4.623,-4.18823 0.446,0.72158 0.2565,0.86202 -0.5175,0.38363 -0.6716,-0.41505 -1.0013,-0.97442 -0.7327,-1.24303 0.2686,-0.26861 -0.8656,-2.78466 -2.5203,-5.59121 -1.6549,-2.80656 -3.6872,-7.85188 -4.5163,-11.21184 l -1.5076,-6.10901 -4.6556,2.2975 c -4.3663,2.15476 -7.8413,2.92461 -14.4055,3.19144 -2.0461,0.0832 -2.75,0.62373 -2.75,2.11178 0,1.66667 0.6666,2 4,2 2.2,0 4.0287,0.3375 4.0638,0.75 0.035,0.4125 0.2078,2.2125 0.3837,4 0.176,1.7875 0.035,3.2769 -0.3138,3.30977 -1.1716,0.1105 -20.6217,0.15068 -21.7263,0.0449 -0.6964,-0.0667 -0.8735,-1.46438 -0.4884,-3.85465 0.5609,-3.48118 0.8722,-3.77225 4.3426,-4.06037 2.8384,-0.23564 3.7384,-0.74959 3.7384,-2.13477 0,-1.47041 -1.1123,-1.96338 -5.7324,-2.54063 -3.1529,-0.39392 -8.0261,-1.57437 -10.8294,-2.62323 -5.2912,-1.97969 -13.4379,-8.17459 -13.4386,-10.21892 -7e-4,-2.15045 -10.7434,-12.94847 -12.0678,-12.12995 -0.7616,0.47072 -0.987,0.35623 -0.5837,-0.29647 1.7671,-2.85923 -17.2498,-13.39529 -28.5475,-15.81638 -10.9058,-2.3371 -23.30398,0.0265 -33.12701,6.31548 -5.36347,3.43382 -5.38365,3.45362 -4.01929,3.94359 0.63488,0.22799 2.40681,1.49076 3.93762,2.80615 1.53082,1.31539 3.14371,2.16887 3.58422,1.89662 0.44051,-0.27225 0.53293,0.20338 0.20539,1.05694 -0.32755,0.85357 -0.18074,1.55194 0.32624,1.55194 0.98848,0 3.87075,5.32321 5.93416,10.95966 2.17044,5.92884 2.67258,13.57395 1.26422,19.2479 -0.72252,2.91084 -1.19823,5.7012 -1.05714,6.2008 0.14109,0.4996 -0.10903,1.1746 -0.55583,1.5 -0.44679,0.3254 -1.70805,2.30714 -2.80278,4.40386 -2.10543,4.03249 -8.64746,10.68778 -10.50588,10.68778 -0.60642,0 -0.77888,0.5625 -0.38324,1.25 0.39564,0.6875 0.38782,0.95313 -0.0174,0.59029 -0.40519,-0.36284 -3.28983,0.53008 -6.41033,1.98427 -4.82662,2.24928 -7.0172,2.64133 -14.67362,2.62616 -7.71108,-0.0153 -9.79471,-0.40365 -14.54909,-2.71185 -7.86069,-3.81628 -15.33279,-11.14914 -18.64237,-18.29497 -2.38689,-5.15363 -2.7566,-7.21391 -2.78072,-15.49612 -0.026,-8.91791 0.19885,-9.9988 3.38559,-16.27719 5.77137,-11.3705 16.69444,-19.07034 29.03162,-20.46483 l 6.24387,-0.70576 -2.09366,-2.65673 c -1.15152,-1.4612 -5.94002,-5.24253 -10.64113,-8.40295 -4.7011,-3.16042 -8.97645,-6.54781 -9.50078,-7.52753 -1.0401,-1.94344 -1.32935,-24.76932 -0.34634,-27.331 0.89863,-2.3418 5.58917,-1.93789 9.67213,0.83288 1.95702,1.32807 3.77481,2.19807 4.03955,1.93333 0.26473,-0.26473 0.45544,0.11117 0.4238,0.83533 -0.33229,7.60438 0.96151,10.18005 4.64874,9.25462 2.57693,-0.64677 2.62279,-0.765 0.99461,-2.56412 -2.23801,-2.47297 -1.07668,-3.50964 2.23918,-1.99883 1.4484,0.65993 2.89865,0.93468 3.22279,0.61054 0.32414,-0.32413 1.72869,-4.4857 3.12123,-9.24791 2.16977,-7.42018 3.01781,-8.98604 5.92932,-10.9481 3.45931,-2.33123 2.24951,-3.11673 -2.10129,-1.36433 -3.51178,1.41446 -20.24809,6.4447 -41.29705,12.41219 -20.92823,5.93326 -32.33879,8.80833 -50,12.5983 -2.2,0.4721 -7.6,1.62948 -12,2.57196 -4.4,0.94248 -8.15168,1.853 -8.33706,2.02337 -0.18538,0.17037 4.76462,0.25895 11,0.19685 9.49339,-0.0946 12.08853,0.22521 15.95801,1.96629 2.54152,1.14356 4.92589,2.57261 5.2986,3.17566 0.44973,0.72768 3.12851,0.88928 7.9646,0.48048 7.0957,-0.5998 7.37658,-0.5358 10.7014,2.4386 l 3.41445,3.05458 v 24.57607 c 0,21.82845 -0.17832,24.57631 -1.59501,24.57826 -1.99714,0.003 -4.39581,-2.59829 -5.99394,-6.49964 -0.67545,-1.64899 -1.52991,-10.19817 -1.89876,-18.99817 -0.63366,-15.1179 -1.87993,-21.5 -4.19845,-21.5 -0.47584,0 -0.19148,1.30276 0.63192,2.89503 3.58921,6.94077 2.38486,18.35739 -2.65575,25.17518 -1.78011,2.40772 -1.98101,3.64769 -1.3968,8.621 0.43086,3.66785 1.5901,7.11893 3.14523,9.36346 2.30343,3.32455 2.49607,4.60275 2.97573,19.74487 l 0.51286,16.19022 -2.51349,2.18545 c -1.38243,1.20201 -2.5135,2.77931 -2.5135,3.50513 0,1.03221 -3.15843,1.31966 -14.5,1.31966 -10.51357,0 -14.5,-0.32596 -14.5,-1.18564 0,-0.65211 1.8338,-3.36042 4.0751,-6.01848 2.24131,-2.65806 4.49131,-6.28405 5,-8.05775 1.19032,-4.15039 1.19896,-17.36356 0.0128,-19.55387 -0.50167,-0.92634 -3.31417,-4.15926 -6.25,-7.18426 -2.93584,-3.025 -6.61925,-8.23115 -8.18536,-11.56922 l -2.84746,-6.06923 -8.65254,3.55871 c -8.2498,3.39307 -9.23332,3.56353 -21.13056,3.66223 l -12.47802,0.10351 -0.52814,2.907 c -0.29048,1.59885 -0.51459,8.082 -0.49802,14.407 0.0259,9.89561 0.37097,12.31333 2.47325,17.32979 l 2.44313,5.82979 -2.96708,5.67021 c -1.6319,3.11862 -3.41709,6.00082 -3.96709,6.4049 -0.97872,0.71905 -3.55578,0.72227 -18.25,0.0228 z m 87.78297,-3.75749 c 1.35701,-1.85001 1.33579,-1.89707 -0.28297,-0.62756 -0.9625,0.75485 -1.75,1.84235 -1.75,2.41667 0,0.57432 0.12734,0.85672 0.28297,0.62756 0.15563,-0.22917 0.94313,-1.31667 1.75,-2.41667 z m 71.7847,-13.94716 c -0.19207,-9.1581 -0.49559,-11.2351 -1.51786,-10.38669 -0.70279,0.58325 -1.05346,1.42344 -0.77927,1.86708 0.27418,0.44364 -0.52415,1.63015 -1.77407,2.6367 -1.24993,1.00654 -3.9529,4.13856 -6.0066,6.96006 -3.30336,4.53834 -3.55492,5.27862 -2.18114,6.41875 1.30222,1.08075 9.06724,3.65388 11.72015,3.88377 0.42838,0.0371 0.67084,-5.08373 0.53879,-11.37967 z m 13.86395,8.79648 c 1.74989,-0.72546 3.40823,-1.68569 3.6852,-2.13384 0.27698,-0.44815 -1.04225,-2.7683 -2.93161,-5.15588 C 365.54584,530.66106 364,528.37339 364,527.96494 c 0,-0.40845 -0.9,-0.97799 -2,-1.26565 -1.1467,-0.29987 -2,-1.36401 -2,-2.49419 0,-1.08414 -0.60192,-2.47072 -1.33759,-3.08127 -1.102,-0.91458 -1.36872,0.90932 -1.51434,10.35542 l -0.17676,11.46553 3.26435,-0.64371 c 1.79539,-0.35403 4.69607,-1.23726 6.44596,-1.96271 z m -162.07758,-2.55052 c 2.79598,-5.40683 2.04204,-13.81553 -2.40283,-26.7988 -0.28244,-0.825 -0.90814,0.75 -1.39043,3.5 -1.01593,5.79269 -0.20331,17.32211 1.35308,19.19744 0.5862,0.70633 0.86708,2.63836 0.62418,4.2934 -0.56012,3.81629 -0.23924,3.78236 1.816,-0.19204 z m 84.38341,-4.69376 c 1.25179,-4.50647 1.31213,-15.18688 0.10375,-18.36518 -0.49985,-1.31468 -2.02915,-3.12441 -3.39846,-4.02161 l -2.48964,-1.63128 0.22315,7.20651 c 0.12274,3.96359 0.30204,11.21287 0.39846,16.10953 l 0.17529,8.90301 1.99302,-2.29798 c 1.09617,-1.26388 2.44366,-3.92024 2.99443,-5.903 z m 267.83478,-7.10504 c -0.1005,-8.25 -0.5358,-15 -0.9673,-15 -0.8663,0 -3.1372,3.77409 -3.4711,5.7687 -0.1168,0.69778 -1.4884,2.58745 -3.0481,4.19926 -5.6584,5.84758 -10.3357,11.97988 -10.3357,13.55076 0,0.68694 2.3625,2.1661 5.25,3.287 7.2862,2.82846 7.9519,3.02594 10.5025,3.11533 2.2478,0.0788 2.2521,0.048 2.0697,-14.92105 z m 17.3243,11.8416 c 2.6694,-1.14834 4.8535,-2.51665 4.8535,-3.0407 0,-0.52405 -2.025,-3.58445 -4.5,-6.8009 -2.475,-3.21645 -4.5,-6.29264 -4.5,-6.83599 0,-0.54334 -1.0286,-0.87499 -2.2857,-0.73699 -1.5908,0.17463 -2.3437,-0.30818 -2.4762,-1.58806 -0.1048,-1.01143 -0.2762,-2.51209 -0.381,-3.3348 -0.1048,-0.82272 -1.0155,-2.24246 -2.0238,-3.15499 -1.7442,-1.57845 -1.8333,-1.49111 -1.8333,1.79584 0,1.90025 0.4917,3.94668 1.0926,4.54763 0.7902,0.79019 0.7902,1.65778 0,3.13426 -0.6009,1.12289 -1.0926,5.95371 -1.0926,10.73517 v 8.69355 l 4.1465,-0.66307 c 2.2807,-0.36468 6.3307,-1.60261 9,-2.75095 z m -198.71129,-3.94638 c -0.3043,-0.49237 -0.0929,-0.89522 0.46969,-0.89522 1.24014,0 6.09507,-6.95544 6.09507,-8.73213 0,-0.69733 -1.09844,-1.26787 -2.44098,-1.26787 -1.34254,0 -2.70303,-0.424 -3.02331,-0.94222 -0.32028,-0.51822 -2.70934,-1.24827 -5.30902,-1.62233 -2.59968,-0.37406 -5.48071,-1.3395 -6.40229,-2.14543 -0.92157,-0.80593 -2.49657,-1.27974 -3.5,-1.05292 -1.49041,0.33692 -1.23059,0.76486 1.41928,2.33766 1.84282,1.09378 3.24641,2.74822 3.25,3.83085 0.006,1.82206 4.56046,8.7309 6.2149,9.42772 0.43528,0.18334 0.79142,0.95671 0.79142,1.71862 0,0.81815 0.61174,1.15053 1.49426,0.81188 0.82184,-0.31537 1.24528,-0.97625 0.94098,-1.46861 z m -34.80251,-4.07604 c 2.09169,-2.84945 3.89711,-5.82153 4.01204,-6.60463 0.11494,-0.78309 1.14188,-2.07724 2.2821,-2.87588 1.14022,-0.79864 2.07313,-1.83674 2.07313,-2.30689 0,-1.17991 -2.7626,-0.66918 -4.21012,0.77834 -0.65444,0.65444 -2.37488,1.18988 -3.82321,1.18988 -1.44834,0 -2.9651,0.33176 -3.37058,0.73725 -0.40549,0.40548 -1.26799,0.78008 -1.91667,0.83243 -3.5542,0.28685 -7.67942,1.83601 -7.67942,2.88388 0,1.99349 6.0897,10.54644 7.50907,10.54644 0.72632,0 3.03197,-2.33137 5.12366,-5.18082 z m 248.9302,0.93082 2.9371,-3.25 -3.25,2.93709 c -1.7875,1.6154 -3.25,3.0779 -3.25,3.25 0,0.77256 0.8251,0.0924 3.5629,-2.93709 z m -47.2319,-8.38043 c 1.5264,-2.27174 2.8471,-5.08424 2.9349,-6.25 0.088,-1.16577 0.5405,-2.11957 1.0059,-2.11957 0.4654,0 0.5251,-0.51953 0.1327,-1.15451 -0.4553,-0.73662 -0.2728,-0.88214 0.504,-0.40204 1.226,0.75772 5.0915,-1.98868 5.0915,-3.61749 0,-1.09963 -5.2867,0.15627 -6.1397,1.45854 -0.3518,0.53711 -2.1518,1.12139 -4,1.2984 -3.4038,0.326 -5.0755,0.64634 -10.2053,1.95553 -2.1434,0.54702 -2.5134,0.95624 -1.5,1.65933 0.9485,0.65814 0.7232,0.75986 -0.7642,0.34507 -3.6076,-1.00607 -5.6277,0.37592 -4.8861,3.34271 0.8325,3.33054 6.3926,10.71115 8.9515,11.88235 2.1158,0.96841 3.3943,-0.24146 8.8748,-8.39832 z m 43.7845,6.88043 c 3.2401,-3.57878 7.8845,-10.57533 7.8845,-11.8775 0,-1.48234 -15.9356,-6.25138 -19.6785,-5.8892 -2.2487,0.2176 -3.0357,-0.0645 -2.6904,-0.96449 0.2906,-0.75732 -0.5953,-1.544 -2.1895,-1.9441 -3.3876,-0.85025 -3.9165,-0.30798 -2.2704,2.32791 1.1359,1.81878 2.6717,2.52433 4.9307,2.26517 0.331,-0.038 0.3961,1.00739 0.1446,2.32305 -0.3249,1.6994 0.4406,3.35017 2.6434,5.70063 1.7055,1.81969 3.1029,3.66425 3.1054,4.09902 0.01,1.06382 4.2182,6.70951 5.0056,6.70951 0.3437,0 1.7453,-1.2375 3.1146,-2.75 z M 333.71249,517.86555 c 3.18313,-1.16793 6.21501,-2.51793 6.73751,-3 0.5225,-0.48208 2.18344,-0.87651 3.69098,-0.87651 1.50754,0 3.0191,-0.45 3.35902,-1 0.62454,-1.01053 -0.75448,-1.31929 -5.72796,-1.28249 -1.50038,0.0111 -2.5158,-0.3231 -2.25649,-0.74268 0.52062,-0.84236 -5.25767,-3.35191 -10.14435,-4.40575 -2.9682,-0.64012 -3.16301,-0.49239 -3.79531,2.87809 -0.74542,3.97341 0.18848,10.55283 1.49789,10.55283 0.46816,0 3.45558,-0.95557 6.63871,-2.12349 z m 50.85349,-1.37651 c 0.82219,-4.38266 -0.26229,-10.50017 -1.86129,-10.4995 -1.72272,7.3e-4 -12.02314,3.97497 -13.15469,5.07553 -0.5225,0.50818 -2.435,0.92397 -4.25,0.92397 -1.815,0 -3.3,0.45 -3.3,1 0,0.55 1.485,1 3.3,1 1.815,0 3.74517,0.44517 4.28927,0.98927 1.04249,1.04249 11.05727,4.81284 13.11542,4.93766 0.66257,0.0402 1.50016,-1.50193 1.86129,-3.42693 z m -26.56598,-2 c 0.99319,-1.19672 0.99319,-1.80328 0,-3 -2.65999,-3.2051 -7.11076,-0.83698 -5.63837,3 0.31658,0.825 1.43462,1.5 2.48454,1.5 1.04992,0 2.46914,-0.675 3.15383,-1.5 z m 173.50003,-4.48948 c 3.85,-1.25518 7.7907,-3.10566 8.7571,-4.1122 0.9665,-1.00653 2.43,-1.57189 3.2523,-1.25634 1.9084,0.73235 6.4906,-0.39271 6.4906,-1.59364 0,-1.26553 -3.9592,-2.46126 -7.1633,-2.1634 -1.5535,0.14443 -3.0169,-0.3845 -3.5122,-1.26945 -0.4669,-0.83436 -3.4364,-2.19096 -6.5987,-3.01466 -3.1624,-0.8237 -6.207,-1.78018 -6.7658,-2.12552 -0.5587,-0.34533 -1.9054,0.41895 -2.9926,1.69841 -1.513,1.78057 -1.9341,3.61649 -1.7951,7.82628 0.2303,6.97301 0.8005,9.21948 2.2091,8.70288 0.6152,-0.22563 4.2686,-1.43719 8.1186,-2.69236 z m 64.875,-0.13552 c 0.7965,-3.98267 0.7989,-9.75528 0.01,-13.72135 -0.5232,-2.61572 -0.901,-2.94558 -2.4343,-2.125 -0.9982,0.53424 -2.7711,0.97135 -3.9397,0.97135 -1.3515,0 -1.8651,0.42019 -1.4113,1.15451 0.4434,0.71737 0.2742,0.88298 -0.4468,0.43738 -1.3211,-0.81651 -7.8582,1.17454 -10.2274,3.11505 -0.8683,0.71118 -2.744,1.29306 -4.1682,1.29306 -3.1497,0 -5.7531,0.92295 -5.7531,2.0396 0,1.17072 4.061,2.3842 6.8858,2.05756 1.3122,-0.15173 2.7536,0.3193 3.2032,1.04672 0.6413,1.03779 14.1637,6.41761 17.036,6.77775 0.3438,0.0431 0.9063,-1.32788 1.25,-3.04663 z m 3.3426,-5.61125 c -0.2299,-1.52006 -0.4241,-0.51375 -0.4316,2.23625 -0.01,2.75 0.1805,3.99369 0.4179,2.76375 0.2374,-1.22994 0.2435,-3.47994 0.014,-5 z M 348,507.98904 c -0.825,-0.53316 -1.07765,-0.97627 -0.56144,-0.98469 0.51621,-0.008 -0.0463,-0.93284 -1.25,-2.05427 C 344.98485,503.82866 344,502.46697 344,501.92411 c 0,-1.57569 -7.3128,-10.93507 -8.54394,-10.93507 -1.59807,0 -7.73188,8.83884 -7.16285,10.3217 0.52935,1.37946 10.13055,4.6783 13.61611,4.6783 1.22845,0 2.90854,0.675 3.73354,1.5 0.825,0.825 2.03035,1.49311 2.67857,1.48469 0.69088,-0.009 0.55787,-0.41644 -0.32143,-0.98469 z m 16.82143,-0.75 c 0.72678,-0.6875 2.20877,-1.25 3.2933,-1.25 2.97684,0 13.8823,-3.38463 13.88388,-4.30902 7.7e-4,-0.44496 -0.44346,-0.53408 -0.98716,-0.19806 -0.56188,0.34726 -0.73738,-0.0436 -0.40663,-0.90549 0.58623,-1.52769 -2.7599,-7.11861 -5.51842,-9.22049 -1.21374,-0.92482 -2.18533,-0.15788 -5.28671,4.17315 -2.08983,2.91841 -3.79969,5.95052 -3.79969,6.73802 0,0.7875 -1.4625,2.65834 -3.25,4.15741 -2.52895,2.12088 -2.80628,2.65225 -1.25,2.39503 1.1,-0.1818 2.59464,-0.89305 3.32143,-1.58055 z m 197.249,-1.33121 c 2.6101,-3.00951 1.1688,-6.20321 -3.0151,-6.68099 -2.395,-0.2735 -3.054,-0.0447 -2.4917,0.86512 0.5206,0.84242 0.2736,1.04858 -0.7746,0.64637 -2.4192,-0.92832 -1.9401,4.03151 0.5585,5.78156 2.7771,1.94515 3.5795,1.85934 5.7229,-0.61206 z m -210.0099,-4.80569 c -0.70609,-1.31933 -0.72743,-2.20093 -0.0632,-2.61143 0.55148,-0.34084 1.0027,-3.96815 1.0027,-8.06069 0,-8.33433 -0.0639,-8.38817 -7.03794,-5.92759 -5.7865,2.04159 -7.30664,3.36649 -5.86108,5.10828 0.6191,0.74597 1.51949,1.11289 2.00087,0.81538 0.48138,-0.29751 0.57892,0.23127 0.21676,1.17506 -0.48212,1.25638 -0.30375,1.49674 0.66596,0.89743 0.78952,-0.48795 1.08309,-0.42804 0.72688,0.14833 -0.7826,1.26627 2.8918,6.84213 4.50884,6.84213 0.68878,0 1.41941,0.9 1.62362,2 0.20422,1.1 0.88538,2.63258 1.5137,3.40573 0.969,1.19236 1.18993,1.16237 1.45562,-0.1976 0.17228,-0.88182 -0.16644,-2.49959 -0.7527,-3.59503 z M 360,502.26781 c 0,-0.81199 1.2375,-2.72713 2.75,-4.25586 1.5125,-1.52873 3.2,-3.41514 3.75,-4.19204 0.55,-0.77689 1.80695,-2.35108 2.79322,-3.4982 1.75865,-2.04546 1.71933,-2.1242 -2.03976,-4.08354 -2.10815,-1.09883 -5.28478,-2.31674 -7.05919,-2.70646 l -3.2262,-0.70859 0.17838,11.57061 c 0.14697,9.53372 0.41384,11.3752 1.51596,10.46052 C 359.39808,504.2437 360,503.0798 360,502.26781 Z m 239.68933,-6.02877 c -0.2515,-0.9625 -0.4573,-0.175 -0.4573,1.75 0,1.925 0.2058,2.7125 0.4573,1.75 0.2515,-0.9625 0.2515,-2.5375 0,-3.5 z m -51.0431,-2.68868 c -2.0055,-1.68373 -3.6463,-3.6832 -3.6463,-4.44329 1e-4,-0.76008 -0.9459,-2.91264 -2.1022,-4.78346 l -2.1022,-3.4015 -2.7794,1.78346 c -4.6185,2.96357 -10.4157,8.27514 -9.1772,8.40847 1.636,0.17613 2.2699,0.37811 5.6611,1.80391 1.65,0.69373 4.7212,1.35898 6.8249,1.47835 2.1036,0.11936 4.1413,0.72915 4.5282,1.35507 0.3868,0.62592 1.8156,1.55573 3.1751,2.06624 3.9296,1.47564 3.7241,-0.81982 -0.382,-4.26725 z m 20.6695,4.27998 c 1.2014,-0.63728 2.7734,-1.98887 3.4934,-3.00352 0.9842,-1.38682 1.7552,-1.60615 3.1055,-0.88347 1.2901,0.69046 4.0913,0.20898 9.9409,-1.70871 6.9937,-2.29277 8.0597,-2.93726 7.5444,-4.56095 -0.8061,-2.5399 -4.2851,-7.58574 -7.7335,-11.21654 l -2.819,-2.96811 -1.6737,2.47455 c -0.9205,1.361 -3.1947,4.47906 -5.0538,6.92901 -1.859,2.44995 -3.7871,5.92879 -4.2846,7.73076 -0.6953,2.51793 -1.3017,3.12757 -2.62,2.63376 -1.4641,-0.54845 -1.5252,-0.40851 -0.4168,0.95566 1.0009,1.23186 1.0228,1.76864 0.096,2.34174 -0.7627,0.47138 -0.9419,0.32096 -0.4895,-0.41097 0.3924,-0.63498 0.2921,-1.15451 -0.2231,-1.15451 -1.3564,0 -3.2812,2.56687 -2.5061,3.34201 0.8776,0.87759 1.0998,0.84704 3.6404,-0.50071 z m -12.8838,-7.0913 c -0.2908,-2.3375 -0.4696,-4.7 -0.3973,-5.25 0.072,-0.55 0.351,-5.1625 0.6194,-10.25 0.4192,-7.94834 0.2668,-9.25 -1.0831,-9.25 -1.1485,0 -1.5712,1.00847 -1.572,3.75 -9e-4,3.46031 -0.3886,3.96772 -5.0188,6.56829 l -5.0179,2.81829 1.9595,2.49108 c 1.0778,1.3701 3.1386,3.41855 4.5797,4.55211 1.4411,1.13356 2.3865,2.66994 2.1009,3.41418 -0.2856,0.74424 0.2495,1.80137 1.1892,2.34919 0.9397,0.54783 1.3444,1.00973 0.8994,1.02645 -1.116,0.042 0.2044,2.03041 1.3484,2.03041 0.5067,0 0.6833,-1.9125 0.3926,-4.25 z m 7.3362,2 c 0.6084,-1.2375 1.3898,-3.2625 1.7364,-4.5 0.3753,-1.33978 1.4121,-2.25 2.5629,-2.25 1.0629,0 1.9326,-0.675 1.9326,-1.5 0,-0.825 0.3954,-1.5 0.8786,-1.5 0.4833,0 1.4379,-1.35 2.1214,-3 0.6834,-1.65 1.541,-3 1.9057,-3 0.3647,0 1.4303,-1.29886 2.3681,-2.88635 1.8469,-3.1267 1.5812,-3.60228 -3.2738,-5.85787 -2.7889,-1.2957 -9.8237,-3.24161 -11.75,-3.2502 -1.5348,-0.007 -1.7681,16.50169 -0.2882,20.39392 0.6157,1.61946 0.6157,2.74358 0,3.12412 -1.1755,0.72645 -1.2916,6.47638 -0.1308,6.47638 0.457,0 1.3288,-1.0125 1.9371,-2.25 z M 356.5,456.98904 c -0.33992,-0.55 -1.49148,-1 -2.55902,-1 -1.06754,0 -1.94098,0.45 -1.94098,1 0,0.55 1.15156,1 2.55902,1 1.45136,0 2.2915,-0.43284 1.94098,-1 z m 16.5,-2.49827 c 0,-4.84979 2.326,-9.03575 5.89992,-10.61772 2.34876,-1.03966 2.75871,-1.65335 2.0229,-3.02822 -1.38783,-2.59318 -1.1116,-7.59006 0.60286,-10.90545 l 1.52568,-2.95034 h -5.51128 -5.51128 l -1.1374,4.517 c -0.62556,2.48435 -1.53204,4.7609 -2.0144,5.05902 -0.48235,0.29811 -0.877,1.38093 -0.877,2.40627 0,1.02534 -1.165,3.24879 -2.58889,4.94098 -2.64484,3.14322 -5.39939,4.07059 -5.42585,1.82673 -0.008,-0.6875 -0.58341,-0.125 -1.27844,1.25 -0.84773,1.67706 -2.14858,2.53307 -3.95186,2.60045 -1.47848,0.0553 -2.47084,-0.25115 -2.20524,-0.6809 0.2656,-0.42974 0.0256,-1.06401 -0.53341,-1.40947 -0.59749,-0.36927 -1.01631,0.54481 -1.01631,2.2181 0,3.21082 2.97363,4.21344 5.05575,1.70465 0.65403,-0.78806 2.00852,-1.43283 3.00999,-1.43283 2.35126,0 5.28756,4.0467 3.92499,5.40927 -1.81665,1.81665 -1.03164,2.24682 4.50927,2.47099 l 5.5,0.22252 z m 46.77163,-16.25173 c 0.1493,-10.5875 -0.076,-19.23569 -0.5,-19.2182 -2.1199,0.0874 -4.2607,2.96122 -4.1556,5.57844 0.068,1.68827 0.3061,2.16216 0.5733,1.13976 0.6114,-2.3397 3.3107,-2.24582 3.3107,0.11514 0,1.02583 -0.9,3.00931 -2,4.40773 -2.3793,3.02477 -2.5594,4.72713 -0.5,4.72713 0.825,0 1.5,0.45 1.5,1 0,0.55 -0.7238,1 -1.6084,1 -1.1867,0 -1.4546,0.61318 -1.0216,2.33831 0.3256,1.29729 -0.013,3.15834 -0.7599,4.18022 -1.2893,1.76312 -1.3986,1.74531 -2.5555,-0.41645 -0.6648,-1.2421 -0.9387,-2.96185 -0.6087,-3.82166 0.5184,-1.35099 0.3741,-1.37598 -1.0621,-0.18404 -0.914,0.7586 -2.6813,1.24568 -3.9273,1.0824 -3.2764,-0.42935 -3.6002,0.8489 -1.8847,7.44175 2.4283,9.33221 3.5791,10.53568 9.7342,10.17979 l 5.194,-0.30032 z m -253.40457,17.5 c -0.57732,-0.96095 -0.38557,-0.95409 0.82922,0.0297 1.05122,0.85131 2.95661,1.05959 5.69196,0.62219 4.57417,-0.73144 4.7624,-1.02796 2.60644,-4.10601 l -1.50531,-2.14914 -4.48525,2.50686 c -5.00692,2.79841 -6.433,4.3464 -4.00412,4.3464 1.02828,0 1.34431,-0.45561 0.86706,-1.25 z m 212.662,-5 2.0697,-4.25 -2.54938,2.80576 c -1.40216,1.54317 -2.54938,3.45567 -2.54938,4.25 0,2.43611 0.86776,1.63231 3.02906,-2.80576 z m -126.29989,-3.35417 c -0.3323,-0.33229 -1.1948,-0.36781 -1.91667,-0.0789 -0.79773,0.31922 -0.56078,0.55618 0.60417,0.60416 1.05416,0.0434 1.64479,-0.19293 1.3125,-0.52522 z m 133.15584,-15.39583 c 0.075,-1.33333 -0.0233,-1.33333 -0.88501,0 -0.53316,0.825 -0.93141,2.625 -0.88501,4 l 0.0844,2.5 0.80061,-2.5 c 0.44035,-1.375 0.83861,-3.175 0.88501,-4 z m 22.56502,-0.0318 c 1.9851,-0.0308 1.9906,-0.0768 0.1745,-1.45196 -1.9102,-1.44653 -1.5649,-5.21546 0.3684,-4.02061 1.7543,1.08421 3.2365,-0.5142 1.9332,-2.08466 -1.3147,-1.58413 -4.3846,-1.96185 -3.4332,-0.42242 0.3503,0.56686 -0.051,0.7345 -0.941,0.39301 -1.17,-0.44899 -1.5724,0.10752 -1.6353,2.26145 -0.046,1.57135 -0.1968,3.88546 -0.3355,5.14249 -0.1738,1.57589 0.069,1.96399 0.7834,1.25 0.5695,-0.56953 1.958,-1.04981 3.0855,-1.0673 z m 151.9126,-1.44497 c -2.2956,-1.67863 -1.1202,-4.5341 1.5762,-3.82898 2.2175,0.57991 2.3908,0.32827 1.4542,-2.11246 -0.7182,-1.87146 -3.4989,-2.0759 -5.193,-0.38179 -0.66,0.66 -1.2,2.8476 -1.2,4.86133 0,3.37591 0.1968,3.6237 2.5251,3.17862 2.2729,-0.4345 2.3566,-0.60597 0.8375,-1.71672 z m -249.79834,26.7699 c -0.54268,-1.4252 -0.42782,-1.54006 0.5598,-0.5598 0.68342,0.67834 0.99067,1.48524 0.68278,1.79313 -0.30789,0.30789 -0.86705,-0.24711 -1.24258,-1.23333 z m 261.43574,-43.1751 c 0,-0.55 0.45,-1.27811 1,-1.61803 0.55,-0.33992 1,-0.16803 1,0.38197 0,0.55 -0.45,1.27811 -1,1.61803 -0.55,0.33992 -1,0.16803 -1,-0.38197 z"
       id="path1"
       sodipodi:nodetypes="csssssssssscssssssssssssssssssssssssssscssssssssssscsssscssssssssssssscsscsssssssssscssscsssssscsssscsssssccssssscscssssssssssssssscsssssssssssssssssssssscssssssssssssssssssssssscscsssssssscssssssssscsscssscssccssssssssssssssssssssscssssssssssscsscsssssssssssssssssssssscsssssssssssssssssssssssssssscsssscssssssssssssssssssssscssssssssssssssssssssssssssssssssssssssccssssssssssccccsccscsssssssssssssssssssssssssssssssssssssssssssssscsssssssssscssssssscssssscssssscsssccscsssscsssssssssssssscscssssssssssssscccsssssssssssssscscscssssssscssssssccsssscsssscssssssssssscsssssssssscsssssssssssssssss" />
  </g>
</svg>
