<?xml version="1.0" encoding="UTF-8" standalone="no"?>
<!-- Created with Inkscape (http://www.inkscape.org/) -->

<svg
   version="1.1"
   id="svg1"
   width="461.61578"
   height="189.77798"
   viewBox="0 0 461.61578 189.77798"
   sodipodi:docname="calesa.svg"
   inkscape:export-filename="WEB\img\calesa.svg"
   inkscape:export-xdpi="96"
   inkscape:export-ydpi="96"
   inkscape:version="1.3.2 (091e20e, 2023-11-25, custom)"
   xmlns:inkscape="http://www.inkscape.org/namespaces/inkscape"
   xmlns:sodipodi="http://sodipodi.sourceforge.net/DTD/sodipodi-0.dtd"
   xmlns="http://www.w3.org/2000/svg"
   xmlns:svg="http://www.w3.org/2000/svg">
  <defs
     id="defs1" />
  <sodipodi:namedview
     id="namedview1"
     pagecolor="#ffffff"
     bordercolor="#000000"
     borderopacity="0.25"
     inkscape:showpageshadow="2"
     inkscape:pageopacity="0.0"
     inkscape:pagecheckerboard="0"
     inkscape:deskcolor="#d1d1d1"
     showgrid="false"
     inkscape:zoom="2.3656037"
     inkscape:cx="230.80789"
     inkscape:cy="94.901779"
     inkscape:window-width="1920"
     inkscape:window-height="1017"
     inkscape:window-x="-8"
     inkscape:window-y="-8"
     inkscape:window-maximized="1"
     inkscape:current-layer="g1" />
  <g
     inkscape:groupmode="layer"
     inkscape:label="Image"
     id="g1"
     transform="translate(-143.97034,-359.98911)">
    <path
       style="fill:#6b430a;fill-opacity:0.996383;stroke:#000000;stroke-width:0;stroke-dashoffset:81.3581"
       d="m 200.38345,549.52956 c -8.12589,-0.27101 -11.44497,-0.54207 -13.40687,-1.0949 -0.61614,-0.17362 -0.25129,-1.13924 2.42409,-6.41568 3.78652,-7.46783 4.69287,-11.09554 4.29409,-17.18729 -0.27161,-4.14903 -1.23663,-8.0698 -5.8051,-23.58541 -3.81423,-12.95403 -6.34759,-22.83035 -8.16561,-31.83373 -0.80115,-3.9675 -1.75983,-7.93929 -2.13041,-8.82621 l -0.67378,-1.61258 -8.13619,0.20971 c -4.4749,0.11534 -8.63936,0.41299 -9.25435,0.66143 -0.77232,0.31201 -1.30354,1.00788 -1.71755,2.2499 -0.75978,2.27935 -2.25898,3.39986 -4.84753,3.62308 -3.14824,0.27148 -5.66984,-1.7906 -8.19736,-6.70354 l -0.79654,-1.54829 1.72649,-3.73578 c 2.20092,-4.76239 3.6589,-8.42442 6.70465,-16.84025 4.21132,-11.63649 4.97227,-12.87581 8.55999,-13.94124 1.38565,-0.4115 3.01946,-1.39312 4.58487,-2.75467 1.33765,-1.16345 2.61205,-2.11536 2.83201,-2.11536 0.21996,0 0.90041,0.75629 1.51212,1.68064 0.6117,0.92434 1.54055,1.95392 2.06411,2.28794 1.07824,0.6879 13.10997,4.28824 16.44282,4.9203 1.20401,0.22833 2.77654,0.85395 3.49452,1.39025 0.71796,0.5363 3.65085,2.39009 6.51752,4.11953 2.86667,1.72944 7.4321,4.80374 10.1454,6.83179 4.86044,3.6329 11.15932,7.08538 15.71277,8.61231 4.4791,1.50199 10.27117,0.87894 30.4362,-3.27405 37.82236,-7.78952 103.40785,-25.38311 114.77874,-30.78989 1.86487,-0.88673 4.1833,-1.82568 5.15207,-2.08654 1.91214,-0.51489 5.15112,-2.87278 7.07743,-5.15219 2.05,-2.42578 2.78596,-4.73727 3.63285,-11.40997 0.92759,-7.30864 1.47007,-9.62905 2.32811,-9.95831 0.33656,-0.12915 0.61193,-0.61003 0.61193,-1.06863 0,-0.72357 -0.18164,-0.79212 -1.37386,-0.51849 -2.71336,0.62277 -3.00753,0.50143 -4.09261,-1.68813 -1.10313,-2.22598 -1.24421,-3.55609 -0.70691,-6.66472 0.29842,-1.72652 0.22953,-2.07097 -0.54714,-2.73598 -1.33653,-1.14437 -1.11617,-2.1231 0.60598,-2.69146 1.89369,-0.62497 2.52797,-1.65085 3.09689,-5.00894 0.66436,-3.92134 0.81347,-4.02638 5.26694,-3.71026 2.05877,0.14614 3.91671,0.37293 4.12876,0.50398 0.21205,0.13106 0.38555,2.32425 0.38555,4.87377 0,4.50559 0.0285,4.64632 1.01575,5.02168 0.55866,0.21241 1.13806,0.5841 1.28756,0.826 0.1495,0.24189 -0.49781,1.71587 -1.43847,3.2755 -2.16281,3.58599 -2.16977,4.74171 -0.0538,8.95005 0.91104,1.81197 1.95111,4.32825 2.31127,5.59172 1.10556,3.87843 3.14657,16.90341 4.06947,25.96984 0.23666,2.32499 0.53531,4.56015 0.66366,4.96702 0.3015,0.95576 1.32812,0.93651 2.95476,-0.0554 l 1.29883,-0.79204 -0.1828,-5.8643 -0.18281,-5.86431 1.5637,-2.26391 c 0.86003,-1.24515 2.10945,-3.48031 2.77649,-4.96702 0.66705,-1.48671 1.42292,-2.70311 1.67972,-2.70311 0.25681,0 1.01888,1.21733 1.6935,2.70517 1.89054,4.1695 4.17285,5.39949 7.15628,3.8567 2.16197,-1.118 8.5001,-2.75725 17.98443,-4.65138 11.84027,-2.36463 18.42699,-3.31333 32.28688,-4.65037 11.23944,-1.08425 13.15979,-1.35442 13.15158,-1.85024 -0.002,-0.14917 -1.43855,-1.08858 -3.19129,-2.08757 -1.75275,-0.999 -3.29345,-2.09427 -3.42379,-2.43393 -0.13035,-0.33967 0.0693,-1.08499 0.44358,-1.65626 0.80704,-1.2317 0.96031,-8.17157 0.22693,-10.27533 -0.61279,-1.75785 -0.0159,-2.77105 2.57001,-4.36215 1.89512,-1.16608 2.0868,-1.43512 2.32013,-3.25665 0.89434,-6.98182 2.78675,-8.41203 4.55361,-3.44143 0.44992,1.26573 0.91452,3.02123 1.03245,3.90112 0.21114,1.57532 0.63577,2.05568 4.31622,4.88263 1.01362,0.77856 1.01651,0.80181 0.31705,2.54995 -0.90858,2.27075 -0.9406,7.55346 -0.0586,9.66444 0.35603,0.85211 0.55645,1.78614 0.44536,2.07563 -0.11108,0.28948 -1.74352,1.4155 -3.62763,2.50225 -1.88411,1.08676 -3.35375,2.04782 -3.26587,2.13571 0.0879,0.0879 5.75666,0.83069 12.59729,1.6507 25.24862,3.02662 46.29441,6.49393 50.77173,8.36467 1.86933,0.78106 1.88299,0.85289 2.26518,11.91003 0.14447,4.17981 0.36412,7.76379 0.48811,7.96441 0.12398,0.20061 0.91689,-0.29579 1.76202,-1.10312 0.84513,-0.80732 1.98033,-1.69569 2.52268,-1.97415 0.97666,-0.50145 0.98488,-0.56793 0.86062,-6.96237 l -0.12547,-6.45609 1.83993,-2.07051 c 1.05861,-1.19128 2.21898,-3.12162 2.73255,-4.54574 0.49093,-1.36137 1.06419,-2.50272 1.27389,-2.53635 0.20971,-0.0336 0.76022,0.69978 1.22334,1.62977 0.46314,0.93 1.67074,3.04836 2.6835,4.70748 1.75723,2.87868 1.84186,3.16853 1.8515,6.34087 0.006,1.82837 0.19631,4.08521 0.42399,5.0152 0.41309,1.68752 0.40924,1.69515 -1.91236,3.81355 l -2.32626,2.12265 v 2.63301 c 0,1.44816 0.14267,2.62889 0.31704,2.62386 0.17438,-0.005 0.60239,-0.62327 0.95113,-1.37386 0.70845,-1.52474 1.83789,-1.81462 2.02321,-0.51926 0.0665,0.465 -0.74193,2.61805 -1.79658,4.78455 -2.13138,4.37841 -2.29565,5.14949 -1.09702,5.14949 1.27697,0 1.47214,0.81178 0.45532,1.89413 -0.50951,0.54235 -1.25486,2.28757 -1.65628,3.87828 -0.93986,3.72412 -1.93455,4.13735 -2.36826,0.98387 -0.18882,-1.37283 -0.54124,-2.2598 -0.96206,-2.42129 -0.36525,-0.14016 -2.10466,-0.0473 -3.86536,0.20636 -2.28313,0.32892 -3.35826,0.3309 -3.74864,0.007 -0.34471,-0.28609 -0.69566,-0.30597 -0.94792,-0.0537 -0.22031,0.22031 -0.52695,4.03529 -0.68144,8.47774 l -0.28088,8.07719 3.76411,0.24729 c 8.52094,0.55978 16.24769,2.35967 21.51857,5.01258 6.04268,3.04136 13.16484,8.94423 17.22034,14.27226 2.68071,3.52184 5.90361,10.14947 7.29759,15.00674 2.06505,7.19578 2.08031,17.33092 0.0367,24.36195 -0.58323,2.00664 -2.30432,6.35524 -3.82465,9.66356 -1.52029,3.30832 -2.76416,6.26215 -2.76416,6.56407 0,0.30192 -1.18891,1.51845 -2.64203,2.70341 -1.45311,1.18496 -4.25895,3.59266 -6.23519,5.35045 -8.67267,7.71402 -23.11797,11.35259 -36.85148,9.28243 -9.14918,-1.37914 -15.65408,-4.73089 -24.2323,-12.48608 -2.09248,-1.89173 -4.186,-3.62537 -4.65225,-3.85254 -0.51151,-0.24922 -1.88467,-2.62622 -3.46231,-5.9934 -3.30054,-7.04443 -4.18282,-9.3154 -5.43273,-13.98376 -0.55272,-2.06438 -1.09908,-3.84754 -1.21413,-3.9626 -0.11506,-0.11505 -2.16714,0.65708 -4.56019,1.71584 -5.24634,2.32118 -6.51192,2.66795 -11.94426,3.27278 -5.18871,0.57768 -5.72257,0.83448 -5.72257,2.75273 0,1.76154 0.58619,2.06878 4.80999,2.52112 1.57638,0.16881 2.93026,0.52094 3.00862,0.7825 0.0784,0.26156 0.25483,1.85471 0.39214,3.54032 l 0.24965,3.06476 h -5.85473 c -3.2201,0 -8.19078,-0.12561 -11.04595,-0.27913 l -5.19121,-0.27913 0.22922,-2.22095 c 0.34236,-3.31714 0.77319,-3.84962 3.5726,-4.41559 1.33759,-0.27043 2.85999,-0.76399 3.38311,-1.0968 1.05643,-0.67212 1.27021,-2.33093 0.3941,-3.05804 -0.30637,-0.25426 -3.39755,-1.05226 -6.86928,-1.77334 -7.23628,-1.50296 -10.64092,-2.73539 -14.62354,-5.29352 -3.91041,-2.51175 -6.0871,-4.5789 -8.20219,-7.78939 -2.11524,-3.21073 -7.89113,-9.24325 -10.31519,-10.77349 -0.92465,-0.58371 -1.9718,-1.62329 -2.32702,-2.31018 -1.29767,-2.50943 -10.22613,-7.82547 -19.45769,-11.5852 -7.90935,-3.22124 -9.07956,-3.44057 -18.17718,-3.40694 -7.47772,0.0276 -8.29132,0.10868 -11.7942,1.17467 -2.06932,0.62974 -5.15844,1.78999 -6.86469,2.57832 -3.98002,1.8389 -10.29778,5.95114 -10.29778,6.70288 0,0.62542 6.63156,5.36221 7.50337,5.35949 0.29062,-9.1e-4 0.52841,0.44776 0.52841,0.99704 0,0.54928 0.58444,1.73411 1.29875,2.63295 0.71432,0.89885 1.95743,3.00372 2.76249,4.67749 4.41199,9.17291 5.09594,15.52692 2.99606,27.83386 -0.51063,2.99266 -0.89691,3.87491 -3.35695,7.66708 -2.97746,4.58976 -7.52958,9.73939 -9.48014,10.72451 -0.65735,0.33199 -1.57563,1.0306 -2.04063,1.55247 -0.46499,0.52187 -3.12816,1.84642 -5.91815,2.94346 l -5.0727,1.9946 -7.82041,0.17786 c -9.07291,0.20634 -10.94695,-0.0929 -15.85219,-2.53092 -9.92855,-4.93476 -17.51828,-13.34012 -20.3592,-22.54711 -0.64775,-2.09924 -0.77644,-3.96034 -0.77335,-11.18415 l 0.004,-8.66587 1.4167,-3.2932 c 4.81538,-11.1936 14.92665,-20.26419 25.2897,-22.68683 1.20767,-0.28232 4.23862,-0.83933 6.73544,-1.23779 2.49683,-0.39846 4.61133,-0.93943 4.69891,-1.20216 0.30483,-0.91449 -5.22063,-5.89449 -12.09109,-10.89748 -3.80352,-2.76968 -7.70307,-5.7347 -8.66567,-6.58894 l -1.7502,-1.55317 -0.15165,-12.73459 c -0.13373,-11.22986 -0.0702,-12.85895 0.53796,-13.78706 1.14113,-1.74159 3.51949,-1.45286 8.63368,1.0481 2.3625,1.15531 4.30743,2.34423 4.32206,2.64203 0.0146,0.2978 0.17678,2.11238 0.36033,4.03239 0.4353,4.55328 1.0176,5.25934 4.19599,5.08788 2.96012,-0.15968 3.5528,-0.92573 2.16672,-2.80051 -0.54054,-0.73111 -0.84752,-1.46457 -0.68219,-1.6299 0.16533,-0.16533 1.15324,-0.0726 2.19534,0.20616 3.89602,1.04203 3.82721,1.12133 6.5296,-7.525 2.41855,-7.73822 3.42522,-9.74661 5.94114,-11.85305 1.9845,-1.66152 2.76235,-3.36506 1.53652,-3.36506 -0.30641,0 -3.30248,0.86776 -6.65792,1.92834 -29.93219,9.46096 -62.44661,18.24719 -89.87612,24.28684 -14.41133,3.1732 -18.73553,4.2535 -18.73553,4.68063 0,0.21221 1.66448,0.39888 3.69885,0.41481 2.03436,0.0159 7.12292,0.18494 11.30789,0.37557 8.61077,0.39224 10.79651,0.94193 15.22933,3.83003 l 2.58407,1.68359 h 7.39416 7.39416 l 3.22404,2.64203 3.22404,2.64203 -0.19989,20.50217 c -0.2314,23.73452 -0.40383,27.43097 -1.29558,27.77316 -0.88791,0.34073 -3.36676,-2.21164 -4.59312,-4.72936 -1.28591,-2.63996 -1.66166,-5.43991 -2.73182,-20.35649 -1.20585,-16.80777 -2.09839,-21.28721 -4.24154,-21.28721 -1.09395,0 -1.05769,0.38986 0.43247,4.64998 1.06153,3.03473 1.25774,4.23746 1.26252,7.7389 0.007,5.37501 -0.42009,7.04162 -3.42159,13.34133 -2.27003,4.76446 -2.49025,5.47663 -2.48357,8.03177 0.0112,4.28466 1.03349,8.32261 3.12842,12.3572 1.68725,3.24944 1.93571,4.10198 2.34078,8.03178 0.24923,2.41805 0.63201,9.50307 0.85061,15.74448 l 0.39745,11.34801 -2.80957,3.236 c -1.54526,1.7798 -3.10585,3.3653 -3.46798,3.52332 -0.36212,0.15804 -3.37827,0.30072 -6.70255,0.31705 l -6.04414,0.0297 1.28849,-1.87275 c 2.04477,-2.97197 1.60037,-3.80018 -0.74222,-1.38324 -0.7431,0.76669 -1.3511,1.82663 -1.3511,2.35544 v 0.96146 l -6.30685,-0.13613 c -3.46876,-0.0749 -6.43897,-0.26881 -6.60046,-0.43095 -0.16149,-0.16215 0.62295,-1.58885 1.74319,-3.17044 4.54875,-6.42206 6.2057,-9.10995 6.7684,-10.97967 0.42212,-1.40259 0.59119,-4.40713 0.59119,-10.50604 0,-9.84503 0.615,-8.18947 -5.64936,-15.20792 -4.90968,-5.5007 -7.39208,-9.07648 -10.02425,-14.43945 -1.18014,-2.4045 -2.23559,-4.37182 -2.34545,-4.37182 -0.10987,0 -3.53291,1.24236 -7.60677,2.76079 -4.07386,1.51843 -8.58237,3.02238 -10.0189,3.3421 -1.60543,0.35732 -6.92851,0.69254 -13.8141,0.86995 -6.16122,0.15875 -11.29537,0.38073 -11.40922,0.4933 -0.43573,0.43078 -0.7839,7.48694 -0.81619,16.54133 -0.0385,10.78751 0.31683,13.22213 2.88449,19.76486 l 1.651,4.20697 -2.17887,4.14684 c -2.22539,4.23535 -4.8027,7.99627 -5.56068,8.11435 -0.2325,0.0362 -4.41756,-0.0674 -9.30014,-0.23022 z m 152.10899,-8.43781 c 0.38694,-2.50423 0.0737,-17.97606 -0.38828,-19.18003 -0.41942,-1.09299 -1.56662,-0.64305 -2.29534,0.90026 -0.35471,0.75123 -1.60351,2.46078 -2.7751,3.79899 -5.59624,6.39215 -7.92569,9.97171 -7.70458,11.83932 0.16031,1.3541 2.34303,2.53475 7.55475,4.08642 4.917,1.46392 5.16913,1.39896 5.60855,-1.44496 z m 9.05078,1.4878 c 4.3752,-1.17216 8.04871,-2.86692 8.44334,-3.8953 0.14398,-0.37524 -0.15231,-1.46283 -0.65844,-2.41689 -1.49141,-2.81134 -5.8523,-8.41479 -7.34782,-9.44146 -0.9051,-0.62134 -1.68333,-1.71752 -2.24948,-3.16853 -0.99387,-2.54719 -2.07571,-3.09133 -2.72913,-1.3727 -0.23473,0.61739 -0.55105,5.67222 -0.70293,11.23297 -0.3209,11.74872 -0.92005,10.71345 5.24446,9.06191 z m -75.41478,-3.49574 c 2.95504,-4.38295 3.44927,-6.5783 3.44977,-15.32379 3.8e-4,-6.69017 -0.0869,-7.58672 -0.91303,-9.37418 -0.90372,-1.95544 -4.28261,-4.96481 -5.60047,-4.98799 -0.50648,-0.009 -0.55188,2.05976 -0.30289,13.80154 0.30138,14.21233 0.57315,18.73781 1.12528,18.73781 0.17464,0 1.18325,-1.28403 2.24134,-2.85339 z m 282.23311,1.30846 c 4.59084,-1.32213 10.5724,-4.17827 10.5724,-5.04825 0,-0.71623 -8.60939,-13.5903 -9.65483,-14.43739 -0.35868,-0.29063 -1.28631,-0.52841 -2.06138,-0.52841 -1.53164,0 -2.23214,-1.0353 -2.2353,-3.30364 -0.003,-1.97909 -2.63781,-5.53782 -4.11999,-5.56418 -0.77209,-0.0137 -0.67904,4.59008 0.14163,7.00731 0.54005,1.59066 0.58008,2.33083 0.20633,3.81514 -0.51279,2.03647 -0.75021,5.08482 -1.07795,13.84048 l -0.21939,5.86107 2.4255,-0.30305 c 1.33403,-0.16668 4.04437,-0.76926 6.02298,-1.33908 z m -364.79422,-0.25165 c 3.37615,-5.48092 3.26461,-14.36373 -0.31686,-25.23365 -2.05386,-6.23354 -3.07425,-4.74732 -3.39865,4.9502 -0.22247,6.65072 0.25945,11.51908 1.41375,14.28172 0.32868,0.78666 0.59761,2.76797 0.59761,4.40293 0,3.30227 0.41501,3.69162 1.70415,1.5988 z m 352.45492,0.86658 c 0.54802,-0.54802 0.65824,-21.65761 0.14082,-26.96986 -0.39589,-4.06447 -1.26215,-3.80261 -4.01076,1.21241 -1.36447,2.48956 -3.63113,5.62909 -6.10394,8.45451 -6.26627,7.1598 -8.40971,10.73414 -7.26447,12.11407 0.75634,0.91134 5.53683,3.1197 9.71384,4.48735 3.84186,1.2579 6.70152,1.52452 7.52451,0.70152 z M 375.1908,534.93505 c 0.22667,-0.59619 0.95779,-1.54314 1.62472,-2.10432 1.44939,-1.21958 4.54148,-5.88077 4.91635,-7.41117 0.16709,-0.68216 0.0592,-1.24373 -0.28904,-1.50506 -0.69199,-0.51922 -7.65619,-2.83158 -11.33407,-3.7633 -1.5107,-0.38271 -3.83524,-1.15398 -5.16565,-1.71394 -2.47853,-1.0432 -4.74451,-1.31963 -5.17027,-0.63073 -0.13168,0.21306 0.81771,1.29052 2.10976,2.39435 1.81405,1.54979 2.72367,2.78558 3.99323,5.42508 0.90423,1.87997 2.70189,4.73609 3.9948,6.34695 1.29292,1.61084 2.35076,3.18021 2.35076,3.48748 0,0.33993 0.50061,0.55866 1.27863,0.55866 0.98347,0 1.37378,-0.25024 1.69078,-1.084 z m -39.14398,0.40353 c 1.01086,-0.3879 5.47427,-6.11152 7.46878,-9.57755 0.9678,-1.6818 2.51433,-3.84443 3.43675,-4.80584 2.87989,-3.00161 1.63602,-4.37698 -2.28582,-2.52747 -1.23599,0.5829 -3.1456,1.25984 -4.24356,1.50434 -3.88538,0.86517 -11.12115,3.06257 -12.05931,3.66223 -1.61971,1.03529 -1.17573,2.65139 2.01975,7.35206 2.89028,4.2517 3.92944,5.05762 5.66341,4.39223 z m 252.34738,-2.80701 c 2.51145,-2.51203 3.89224,-4.4372 3.4789,-4.85052 -0.33062,-0.33064 -6.59828,5.9541 -6.59828,6.61627 0,0.93466 0.96665,0.38748 3.11938,-1.76575 z m -3.42175,-1.73007 c 2.08737,-2.0287 5.86396,-7.00383 7.66016,-10.09122 1.71284,-2.94409 1.43232,-3.67767 -1.94209,-5.07871 -3.74285,-1.554 -9.77788,-3.16814 -14.63584,-3.91452 -3.4491,-0.52992 -4.08458,-0.76373 -5.13662,-1.88993 -1.00084,-1.07143 -1.52388,-1.2852 -3.14456,-1.2852 -1.86278,0 -1.94403,0.0512 -1.94403,1.22438 0,1.58144 2.46419,3.84832 4.18324,3.84832 1.15476,0 1.20257,0.0862 1.42801,2.57231 0.20511,2.26204 0.46732,2.86114 2.17378,4.96702 1.0673,1.31709 2.70515,3.6496 3.63971,5.18336 2.05753,3.37678 4.50143,6.29994 5.26702,6.29994 0.30931,0 1.41237,-0.82609 2.45122,-1.83575 z m -48.29728,-0.55194 c 2.06168,-1.8626 6.16526,-7.93612 7.52643,-11.13951 1.76091,-4.14416 2.47621,-5.27375 3.71401,-5.86516 1.77762,-0.84932 3.96393,-3.05234 3.96393,-3.99423 0,-0.72264 -0.23774,-0.79346 -2.07204,-0.61721 -1.13962,0.1095 -3.04338,0.707 -4.23059,1.32777 -1.41347,0.73909 -4.13917,1.49448 -7.89659,2.18845 -5.9314,1.0955 -8.62793,1.94295 -8.62793,2.71155 0,0.24437 -0.82286,0.4443 -1.82858,0.4443 -2.51684,0 -3.89143,1.41138 -3.53196,3.6265 0.49967,3.07913 5.58099,10.2843 8.51438,12.07313 1.82336,1.11193 2.53501,0.99161 4.46894,-0.75559 z M 331.03733,519.37175 c 1.61009,-0.55356 4.8297,-1.77463 7.15469,-2.71349 2.32498,-0.93886 5.12469,-1.83821 6.22157,-1.99856 2.09033,-0.30557 3.11279,-1.06304 2.74139,-2.03089 -0.14822,-0.38626 -1.36119,-0.66184 -3.71056,-0.84301 -2.57308,-0.19842 -3.72188,-0.48086 -4.37138,-1.07473 -2.01563,-1.84301 -8.68961,-4.28278 -11.7155,-4.28278 -1.41094,0 -1.72122,0.16935 -2.09066,1.14102 -0.56708,1.49156 -0.57127,10.1653 -0.006,11.65307 0.56169,1.47735 1.81894,1.50986 5.77608,0.14937 z m 52.83057,-0.45949 c 1.1674,-2.794 0.59666,-11.6776 -0.8084,-12.58266 -1.01964,-0.6568 -7.05893,1.16219 -11.84546,3.56776 -1.36779,0.68741 -3.84073,1.52717 -5.49543,1.86613 -4.12043,0.84406 -4.48808,0.97838 -4.48808,1.63977 0,0.65391 0.48654,0.8332 3.91388,1.44229 1.33889,0.23795 3.81183,1.03877 5.49543,1.77962 5.35011,2.35427 9.35264,3.71131 11.00875,3.7325 1.44162,0.0184 1.66975,-0.13014 2.21931,-1.44541 z m -26.62399,-3.31333 c 1.47715,-1.27058 1.49085,-2.98133 0.0355,-4.43665 -1.30231,-1.30231 -3.67035,-1.43184 -4.95314,-0.27093 -1.03956,0.94079 -1.10913,3.81502 -0.11884,4.90929 1.01713,1.12392 3.61634,1.01982 5.03645,-0.20171 z m 238.52549,-3.38536 c 1.22843,-2.57089 1.13442,-16.16457 -0.12374,-17.88516 -0.53335,-0.7294 -0.68215,-0.72915 -3.87753,0.006 -1.82756,0.42069 -3.52709,1.02158 -3.77671,1.3353 -0.24962,0.31373 -1.80765,0.8527 -3.46233,1.1977 -1.65467,0.34501 -4.43519,1.31352 -6.17897,2.15225 -1.79565,0.86366 -4.55017,1.76487 -6.35204,2.0782 -3.40606,0.5923 -4.47771,1.16857 -4.47771,2.40785 0,1.10918 1.35682,1.69446 4.96736,2.14271 2.35124,0.29191 4.07621,0.85496 6.80579,2.22153 2.94618,1.47499 8.09358,3.54723 13.59035,5.47123 1.27524,0.44635 2.33036,0.0339 2.88553,-1.128 z m -66.34176,-0.90802 c 3.09327,-1.03748 7.06935,-2.67953 8.83574,-3.64898 2.54221,-1.39525 3.86618,-1.83605 6.35199,-2.11482 7.2549,-0.8136 6.69274,-3.8237 -0.87216,-4.67006 -2.39272,-0.26769 -3.75553,-0.66607 -4.92411,-1.4394 -1.82474,-1.20755 -8.35941,-3.6314 -11.91698,-4.42026 -2.92297,-0.64815 -3.73795,-0.28617 -5.28,2.34512 -1.09356,1.86603 -1.11285,2.0297 -0.96304,8.17203 0.16236,6.65648 0.45486,7.66271 2.22748,7.66271 0.50433,0 3.44782,-0.84885 6.54108,-1.88634 z m 70.21984,-4.24317 c 0,-1.83181 -0.17848,-3.17044 -0.42273,-3.17044 -0.24425,0 -0.42272,1.33863 -0.42272,3.17044 0,1.83181 0.17847,3.17044 0.42272,3.17044 0.24425,0 0.42273,-1.33863 0.42273,-3.17044 z m -251.0987,1.88442 c 0,-0.24231 -0.19352,-0.67032 -0.43005,-0.95113 -0.76638,-0.90987 -2.43297,-3.39512 -4.59454,-6.85144 -2.34099,-3.74321 -6.49296,-9.08796 -7.49576,-9.64916 -0.35495,-0.19864 -1.09064,-0.24941 -1.63486,-0.11282 -1.6564,0.41573 -6.98104,8.19012 -6.98104,10.19286 0,1.03231 4.79195,3.05721 10.64786,4.49941 2.86238,0.70494 5.96523,1.73692 6.89523,2.29328 1.75358,1.04907 3.59316,1.3455 3.59316,0.579 z m 15.63624,-0.64776 c 1.27621,-0.59404 3.93938,-1.45326 5.91815,-1.90937 8.86515,-2.04344 13.88954,-4.39974 10.99544,-5.15656 -0.54885,-0.14353 -0.84545,-0.5766 -0.84545,-1.23448 0,-2.66283 -4.47512,-8.78844 -6.42048,-8.78844 -1.64193,0 -5.5122,4.7877 -8.20633,10.15158 -0.5803,1.15535 -2.09209,3.28969 -3.35954,4.74297 -1.26745,1.45327 -2.30445,2.78639 -2.30445,2.96247 0,0.64219 1.95784,0.28603 4.22266,-0.76817 z m 197.16049,-1.27577 c 1.69636,-1.74668 2.2327,-3.53614 1.55224,-5.17891 -0.63277,-1.52764 -1.76834,-2.17537 -4.34974,-2.4811 -1.63267,-0.19336 -2.25526,-0.10332 -2.60975,0.37742 -0.25606,0.34725 -0.91618,0.87146 -1.46695,1.16491 -0.8739,0.46562 -0.97542,0.76404 -0.79736,2.34387 0.22312,1.97944 1.21533,3.58056 2.85557,4.60799 1.75177,1.09729 3.18051,0.84982 4.81599,-0.83418 z m -208.77977,-1.44381 c 0.14818,-0.46686 0.0469,-1.846 -0.22515,-3.06476 -0.36766,-1.64731 -0.37525,-2.85955 -0.0296,-4.72423 0.25575,-1.37956 0.45895,-4.89875 0.45156,-7.82041 -0.0191,-7.53663 -0.31435,-7.77036 -6.97294,-5.51961 -4.54812,1.53736 -6.96355,3.02951 -6.96355,4.30178 0,1.04713 1.12948,2.45796 1.96779,2.45796 0.31723,0 0.56856,0.44536 0.56856,1.00751 0,0.62444 0.29708,1.0852 0.78134,1.21184 0.47813,0.12503 0.89134,0.7543 1.06479,1.62153 0.19373,0.96862 1.09911,2.21043 2.86041,3.92324 1.41734,1.37831 2.89326,3.19131 3.27983,4.02887 1.23311,2.67171 1.75152,3.42511 2.35679,3.42511 0.3249,0 0.71196,-0.38197 0.86013,-0.84883 z m 7.34905,-2.43873 c 0.67802,-1.34317 2.9844,-4.52946 5.12529,-7.08065 4.57495,-5.45175 5.47818,-7.01636 4.63617,-8.03092 -1.1716,-1.41168 -7.5066,-4.06537 -11.39005,-4.77121 l -2.25829,-0.41046 0.29101,10.12011 c 0.16006,5.56606 0.4033,10.68152 0.54053,11.36768 0.41725,2.08626 1.64064,1.60795 3.05534,-1.19455 z m 239.73269,-4.95558 c 0,-2.24621 -0.48225,-3.0358 -1.01159,-1.65632 -0.54983,1.43285 -0.14398,3.98131 0.63409,3.98131 0.2076,0 0.3775,-1.04624 0.3775,-2.32499 z m -31.46161,0.80223 c 0.785,-0.37253 2.3241,-1.46633 3.42014,-2.43067 1.92788,-1.6962 2.09012,-1.75394 4.97742,-1.77124 4.79281,-0.0287 15.32133,-3.45473 16.47533,-5.36111 0.87546,-1.44624 -1.67442,-6.06375 -6.3044,-11.41645 -3.89955,-4.50826 -4.21165,-4.68091 -5.55385,-3.07263 -2.30004,2.75607 -7.22969,10.34578 -9.06069,13.94992 -1.64254,3.2332 -2.13653,3.86584 -3.28956,4.21277 -0.87013,0.26182 -1.31146,0.64086 -1.23047,1.05681 0.0694,0.35672 -0.44766,1.03556 -1.14909,1.50855 -1.25158,0.84397 -1.78045,2.20334 -1.32202,3.39802 0.30206,0.78713 1.27231,0.7635 3.03719,-0.074 z m -16.72905,-1.00181 c 0,-0.85107 -1.02379,-2.28235 -3.78809,-5.29584 -1.13157,-1.23357 -2.88074,-4.01972 -4.20097,-6.69148 -1.24416,-2.51782 -2.51883,-4.67637 -2.83259,-4.79677 -0.77187,-0.29619 -2.9755,1.1181 -7.85841,5.04356 -4.09776,3.29427 -5.18789,4.74218 -4.08665,5.42789 1.1003,0.68512 8.63036,2.92054 11.91902,3.53835 2.03406,0.38212 4.07449,1.09035 5.28406,1.83409 3.50164,2.15308 5.56363,2.50154 5.56363,0.9402 z m 4.73935,-3.2879 c 0.0805,-0.40687 0.14086,-6.92212 0.13416,-14.47833 l -0.0122,-13.73857 -0.99989,-0.14147 c -1.41748,-0.20055 -1.67173,0.21395 -2.13415,3.47918 -0.49653,3.50615 -0.88415,3.9651 -5.93565,7.02773 -2.10129,1.27397 -3.82118,2.55315 -3.82198,2.84262 -7.9e-4,0.28947 1.80271,2.52715 4.00779,4.97262 2.20508,2.44548 4.13636,4.96692 4.29171,5.60321 0.15536,0.63629 0.63392,1.61056 1.06346,2.16503 0.42955,0.55448 0.78099,1.22978 0.78099,1.50068 0,1.38655 2.36642,2.07808 2.62573,0.7673 z m 7.60867,-2.00794 c 2.06453,-4.38134 2.21946,-4.60655 3.98459,-5.79202 1.05073,-0.70567 2.69543,-2.61037 4.20502,-4.8698 1.36367,-2.04096 3.29269,-4.82556 4.28673,-6.18801 1.95844,-2.68431 2.28347,-4.35855 1.06095,-5.46492 -1.40691,-1.27324 -6.23033,-3.2343 -10.78316,-4.38413 -6.30915,-1.59339 -6.01564,-2.00537 -6.00628,8.43051 0.004,4.46763 0.0763,9.54966 0.16057,11.2934 0.0843,1.74375 0.011,4.35385 -0.16289,5.80024 -0.37977,3.15878 -0.1238,4.02932 1.13097,3.84641 0.6657,-0.097 1.26648,-0.85291 2.1235,-2.67168 z M 356.00703,458.02089 c 0.40606,-1.05819 -0.67743,-1.89688 -2.45058,-1.89688 -1.7092,0 -2.3709,0.66398 -1.89572,1.90226 0.34044,0.88719 4.00553,0.88265 4.3463,-0.005 z m 16.83959,-1.7912 c 0.48909,-4.51441 0.68579,-5.38471 1.64627,-7.28416 0.65963,-1.30449 1.80439,-2.50034 3.67614,-3.84024 2.53424,-1.81412 2.70882,-2.04355 2.57939,-3.38965 -0.0764,-0.7941 -0.1635,-3.15586 -0.19365,-5.24835 -0.0477,-3.31155 0.0935,-4.12629 1.08995,-6.28779 0.62964,-1.3658 1.14479,-2.55471 1.14479,-2.64203 0,-0.0873 -2.61561,-0.15732 -5.81247,-0.15556 l -5.81247,0.003 -0.96743,3.48428 c -0.53209,1.91635 -1.31131,4.15007 -1.73162,4.96382 -0.4203,0.81374 -1.0054,2.24044 -1.30021,3.17043 -0.7621,2.40402 -2.78137,5.45823 -4.45028,6.73117 -1.73148,1.32066 -2.1022,1.34596 -2.90605,0.19831 -0.61392,-0.8765 -0.64113,-0.86386 -1.67903,0.78028 -1.10465,1.74988 -3.72207,3.33695 -4.61883,2.80062 -0.28805,-0.17227 -0.7723,-0.65777 -1.0761,-1.07887 -0.68094,-0.94384 -1.59621,-0.98962 -1.93875,-0.097 -0.82761,2.15671 0.59718,5.25126 2.41612,5.24768 0.50625,-10e-4 1.77647,-0.57086 2.82272,-1.26636 1.04624,-0.69551 2.28794,-1.26537 2.75933,-1.26637 1.95871,-0.004 4.57186,3.24354 3.57565,4.4439 -0.26495,0.31925 -0.41957,1.01771 -0.3436,1.55214 0.1742,1.22541 1.34203,1.49489 6.76563,1.56119 l 4.09116,0.05 z m 46.45115,0.0467 c 0.34318,-2.50377 0.35427,-35.36946 0.0122,-36.26078 -0.37287,-0.97168 -1.99561,-0.81882 -2.99869,0.28247 -1.37595,1.51066 -1.81742,2.6591 -1.81742,4.72787 0,2.04331 0.518,2.48632 1.26818,1.0846 0.61051,-1.14075 2.11362,-1.12372 2.11362,0.024 0,0.47816 -0.7609,2.34726 -1.6909,4.15355 -2.07669,4.03346 -2.12608,4.83962 -0.34179,5.5787 l 1.3491,0.55882 -1.28937,0.52612 c -1.21379,0.49528 -1.30242,0.68876 -1.51212,3.3011 -0.20578,2.56359 -0.7885,4.03494 -1.59803,4.03494 -0.52248,0 -1.25776,-2.5081 -1.25776,-4.29033 0,-1.87438 -0.10791,-1.9127 -2.27497,-0.80787 -0.88456,0.45097 -2.63682,0.94846 -3.89391,1.10552 l -2.28562,0.28557 v 2.65172 c 0,2.82924 1.52519,8.81287 2.96645,11.63797 1.62316,3.18168 2.05519,3.36735 7.83529,3.36735 h 5.14689 z m -243.96059,0.1849 c 0.77882,-0.29467 1.1625,-0.74439 1.1625,-1.3626 0,-1.10298 -2.31726,-4.89281 -2.99167,-4.89281 -0.61509,0 -8.13712,4.42557 -9.01622,5.30468 -0.37063,0.37062 -0.67387,0.93623 -0.67387,1.25691 0,0.47607 0.95006,0.54182 5.17839,0.35835 2.84811,-0.12358 5.7015,-0.42262 6.34087,-0.66453 z m 202.44756,-3.08711 c 1.45972,-2.1202 3.10232,-6.05908 2.69381,-6.45961 -0.35795,-0.35097 -2.32518,1.83761 -4.07774,4.53656 -2.31075,3.55858 -0.99798,5.38274 1.38393,1.92305 z m -125.19455,-5.52007 c 0,-0.48833 -0.3502,-0.62629 -1.3413,-0.52841 -1.93792,0.19139 -2.08347,1.18928 -0.17346,1.18928 1.09192,0 1.51476,-0.18448 1.51476,-0.66087 z m 132.29596,-11.43135 c 1.00394,-3.25037 1.11639,-5.23953 0.29621,-5.23953 -0.94274,0 -1.5474,1.98996 -1.5474,5.09259 0,1.61655 0.0875,2.93919 0.19438,2.93919 0.10691,0 0.58247,-1.25651 1.05681,-2.79225 z m 22.60972,-3.42182 c 1.17517,-0.37498 2.21669,-0.74789 2.31449,-0.82869 0.0978,-0.0808 -0.21134,-0.57416 -0.68695,-1.09637 -1.18387,-1.29985 -1.90711,-2.78479 -1.59908,-3.28319 0.14072,-0.22769 0.91639,-0.41399 1.72371,-0.41399 1.61204,0 2.10936,-0.65597 1.70841,-2.25346 -0.41206,-1.64179 -3.82178,-2.69397 -4.34146,-1.3397 -0.13383,0.34875 -0.67204,0.63409 -1.19603,0.63409 -0.83363,0 -0.98603,0.27739 -1.21928,2.21931 -0.14661,1.22061 -0.26822,3.42857 -0.27024,4.90656 -0.003,2.35348 0.0854,2.6531 0.71303,2.41224 0.39419,-0.15127 1.67822,-0.58183 2.8534,-0.9568 z m 153.4971,-0.58972 c 0.15735,-0.2546 -0.11676,-1.0078 -0.60914,-1.67379 -1.29642,-1.75349 -1.18912,-2.93454 0.26726,-2.94177 2.13,-0.0106 3.06475,-0.45773 3.06475,-1.46606 0,-1.61163 -1.56079,-3.17815 -3.16654,-3.17815 -1.99624,0 -2.69384,0.353 -3.40133,1.72114 -0.62815,1.2147 -0.88778,7.16858 -0.33663,7.71972 0.46517,0.46517 3.87344,0.31757 4.18163,-0.18109 z"
       id="path3" />
  </g>
</svg>
