<?xml version="1.0" encoding="UTF-8" standalone="no"?>
<!-- Uploaded to: SVG Repo, www.svgrepo.com, Generator: SVG Repo Mixer Tools -->

<svg
   fill="#000000"
   version="1.1"
   id="Capa_1"
   width="800px"
   height="800px"
   viewBox="0 0 244.247 244.247"
   xml:space="preserve"
   sodipodi:docname="cocktail-glass-svgrepo-com.svg"
   inkscape:version="1.3.2 (091e20e, 2023-11-25, custom)"
   xmlns:inkscape="http://www.inkscape.org/namespaces/inkscape"
   xmlns:sodipodi="http://sodipodi.sourceforge.net/DTD/sodipodi-0.dtd"
   xmlns="http://www.w3.org/2000/svg"
   xmlns:svg="http://www.w3.org/2000/svg"><defs
   id="defs3" /><sodipodi:namedview
   id="namedview3"
   pagecolor="#ffffff"
   bordercolor="#000000"
   borderopacity="0.25"
   inkscape:showpageshadow="2"
   inkscape:pageopacity="0.0"
   inkscape:pagecheckerboard="0"
   inkscape:deskcolor="#d1d1d1"
   inkscape:zoom="1.02625"
   inkscape:cx="400.48721"
   inkscape:cy="400"
   inkscape:window-width="1920"
   inkscape:window-height="1017"
   inkscape:window-x="-8"
   inkscape:window-y="-8"
   inkscape:window-maximized="1"
   inkscape:current-layer="Capa_1" />

<g
   id="g4"
   transform="translate(-0.28063406,-1.6652157)"><path
     style="fill:#6b430a;fill-opacity:0.996383;stroke:#000000;stroke-width:0;stroke-dashoffset:81.3581"
     d="m 260.17052,780.30267 c -4.16184,-0.7574 -4.25761,-1.96509 -0.35256,-4.44526 2.06967,-1.31448 30.40128,-13.93532 62.95914,-28.04632 l 59.1961,-25.65636 -0.004,-135.01159 -0.004,-135.01159 -7.26935,-3.73184 c -3.99814,-2.05251 -10.24473,-6.46123 -13.88132,-9.79715 C 312.60722,394.38133 105.50083,202.17697 102.00249,198.4133 92.48785,188.17701 90.258805,178.0287 96.145978,171.74998 c 6.667692,-7.11115 15.985882,-8.51501 56.594582,-8.5264 15.67601,-0.004 28.4571,-0.33686 28.40245,-0.73881 -0.0547,-0.40194 -12.05597,-12.18095 -26.66957,-26.17556 -20.71377,-19.8364 -27.83313,-26.06487 -32.30013,-28.25822 l -5.72995,-2.81347 -50.182702,-0.48722 C 11.348,104.21717 12.469469,104.33792 6.4409256,98.309379 -1.5381121,90.330342 -0.75018289,75.963658 8.0299822,69.335362 14.075148,64.771764 15.789931,64.649575 69.183922,64.977775 l 50.182708,0.308461 9.94378,3.508454 c 18.21073,6.425268 16.64865,5.1556 72.33485,58.79425 l 36.48083,35.13944 210.0478,0.49242 c 200.6729,0.47045 210.28699,0.5725 215.40711,2.28627 9.89657,3.31252 15.5804,9.4468 15.5871,16.82242 0.002,2.64195 -1.16188,6.34011 -3.41209,10.838 -4.02484,8.04521 7.28058,-4.12887 -129.18423,139.11022 -71.99192,75.56569 -105.64996,110.22856 -109.42302,112.68972 -2.99705,1.95499 -7.86936,4.55763 -10.82736,5.78364 l -5.37817,2.22913 0.24702,134.43206 0.24702,134.43206 57.00366,23.70842 c 72.23955,30.0452 71.29147,29.63943 73.34823,31.393 1.2311,1.04962 1.42735,1.77445 0.68222,2.51966 -0.73473,0.7348 -44.02609,1.08106 -145.45543,1.16339 -79.42516,0.0645 -145.5056,-0.0823 -146.84543,-0.32612 z"
     id="path3"
     transform="scale(0.30530875)" /><path
     style="fill:#6b430a;fill-opacity:0.996383;stroke:#000000;stroke-width:0;stroke-dashoffset:81.3581"
     d="m 605.96297,354.71052 c -10.79329,-1.75707 -31.86692,-7.24477 -33.7662,-8.79291 -0.15169,-0.12366 2.78069,-8.28585 6.51641,-18.13821 4.2746,-11.27355 7.26629,-17.86214 8.07119,-17.77512 0.70344,0.0761 5.44462,1.23798 10.53597,2.58208 58.65738,15.48532 119.41359,-10.81741 147.66703,-63.92835 19.8166,-37.25134 19.94554,-83.04929 0.33937,-120.54055 -18.00269,-34.425062 -49.79569,-58.375971 -88.79258,-66.890897 -11.41119,-2.491618 -39.79274,-2.497517 -51.41845,-0.01069 -44.89291,9.602953 -79.76942,39.686287 -95.55178,82.419837 -1.50305,4.06979 -3.09138,7.32806 -3.52962,7.2406 -2.36643,-0.47227 -35.93492,-10.30177 -36.25214,-10.61533 -0.78116,-0.77215 6.0751,-18.68325 10.61459,-27.72923 17.33635,-34.546726 47.33644,-63.333631 81.81718,-78.508571 73.92868,-32.5359313 158.75334,-9.248537 206.15907,56.598012 7.60317,10.560799 18.8496,32.739829 22.7609,44.886669 6.17031,19.16231 7.40653,27.96216 7.38312,52.55548 -0.0187,19.6456 -0.29581,23.67447 -2.24509,32.64312 -9.95192,45.78886 -34.63899,82.34028 -72.76513,107.73537 -17.78896,11.84888 -37.63018,20.1335 -59.4386,24.81832 -12.72026,2.73253 -45.24253,3.54432 -58.10524,1.45037 z"
     id="path4"
     transform="scale(0.30530875)" /></g></svg>
