<?xml version="1.0" encoding="UTF-8" standalone="no"?>
<!-- Uploaded to: SVG Repo, www.svgrepo.com, Generator: SVG Repo Mixer Tools -->

<svg
   fill="#000000"
   version="1.1"
   id="Capa_1"
   width="800px"
   height="800px"
   viewBox="0 0 248.914 248.914"
   xml:space="preserve"
   sodipodi:docname="dancer-with-music-svgrepo-com.svg"
   inkscape:version="1.3.2 (091e20e, 2023-11-25, custom)"
   xmlns:inkscape="http://www.inkscape.org/namespaces/inkscape"
   xmlns:sodipodi="http://sodipodi.sourceforge.net/DTD/sodipodi-0.dtd"
   xmlns="http://www.w3.org/2000/svg"
   xmlns:svg="http://www.w3.org/2000/svg"><defs
   id="defs4" /><sodipodi:namedview
   id="namedview4"
   pagecolor="#ffffff"
   bordercolor="#000000"
   borderopacity="0.25"
   inkscape:showpageshadow="2"
   inkscape:pageopacity="0.0"
   inkscape:pagecheckerboard="0"
   inkscape:deskcolor="#d1d1d1"
   inkscape:zoom="1.02625"
   inkscape:cx="400.48721"
   inkscape:cy="400"
   inkscape:window-width="1920"
   inkscape:window-height="1017"
   inkscape:window-x="-8"
   inkscape:window-y="-8"
   inkscape:window-maximized="1"
   inkscape:current-layer="Capa_1" />

<g
   id="g7"
   transform="translate(-0.00597732,6.3378551)"><path
     style="fill:#6b430a;fill-opacity:0.996383;stroke:#000000;stroke-width:0;stroke-dashoffset:81.3581"
     d="M 42.874543,495.55651 C 31.469901,492.07481 24.305063,483.08564 24.403306,472.38209 24.529666,458.61522 35.04524,446.875 51.305195,442.34718 53.385763,441.76781 42.575355,406.4223 34.966202,388.9255 30.341338,378.2909 29.499555,373.36415 31.24328,367.13617 33.700485,358.3599 37.434803,355.8835 76.979294,336.80652 l 35.566386,-17.15786 8.35899,-0.0192 c 7.61755,-0.0175 8.78437,0.24255 13.15469,2.93201 12.96246,7.97698 30.18684,43.97601 35.50574,74.20717 1.11418,6.33267 2.71168,15.39456 3.55002,20.13753 0.85398,4.83147 1.25136,10.33014 0.90368,12.5044 -3.65759,22.87333 -35.86698,35.39159 -52.50487,20.40617 -15.79645,-14.22755 -5.91295,-40.59593 17.55448,-46.83394 3.95248,-1.05062 4.08835,-1.2138 3.52236,-4.23023 -1.25314,-6.67866 -7.22232,-25.12104 -10.35771,-32.00119 -2.85818,-6.27186 -11.06165,-20.34455 -11.85956,-20.34455 -0.71225,0 -59.568407,28.50179 -60.282479,29.1925 -0.445676,0.43109 1.173605,5.79991 3.598402,11.93071 7.981165,20.1794 19.65831,62.27973 20.756012,74.83294 0.666565,7.62277 -0.580643,12.71365 -4.602099,18.78494 -7.426285,11.21164 -25.002206,18.06186 -36.968793,14.4086 z"
     id="path4"
     transform="scale(0.3111425)" /><path
     style="fill:#6b430a;fill-opacity:0.996383;stroke:#000000;stroke-width:0;stroke-dashoffset:81.3581"
     d="M 33.61754,746.03008 C 22.827117,742.89341 14.178299,736.71081 8.3973681,728.00147 2.4345714,719.01813 0.77869311,712.94603 1.1931112,701.58343 1.5044351,693.0475 1.9315577,691.04547 4.6376465,685.43802 10.340515,673.62076 19.675579,665.34926 31.992093,661.20013 c 5.88945,-1.98401 7.29224,-2.00403 140.449757,-2.00403 73.97549,0 134.5009,-0.33145 134.5009,-0.73655 0,-0.40511 -1.32517,-1.32313 -2.94483,-2.04006 -1.61965,-0.71693 -4.30076,-2.91859 -5.95803,-4.89258 -1.81788,-2.16531 -13.48319,-26.77158 -29.40622,-62.02815 -24.45563,-54.14932 -26.38985,-58.83248 -26.34974,-63.79839 0.0526,-6.51449 -1.07073,-4.27303 25.24312,-50.36883 l 20.9017,-36.61496 -4.5e-4,-89.76023 -4.5e-4,-89.76025 -11.92996,-8.76979 c -7.59268,-5.58143 -17.4314,-14.26086 -27.062,-23.87333 -25.79424,-25.74564 -45.94295,-54.17535 -65.26093,-92.08282 -12.71293,-24.94644 -24.36984,-53.692969 -24.36984,-60.097219 0,-11.563576 10.59907,-22.258079 22.03753,-22.23596 9.0514,0.0175 17.92349,6.946224 21.20442,16.55973 8.68108,25.436571 28.79501,64.834189 45.18578,88.506419 15.23696,22.00585 34.61026,43.28859 50.13966,55.08145 l 7.50772,5.70128 4.18534,-3.39669 c 5.15474,-4.1834 12.17401,-7.7633 19.8177,-10.10721 4.76888,-1.46236 9.19616,-1.78204 24.80613,-1.79118 21.39724,-0.0125 25.75993,0.71292 37.02802,6.15716 9.50216,4.59102 19.6666,14.54392 24.08647,23.58521 3.56687,7.29639 6.12059,16.27644 6.12059,21.52277 0,3.33677 0.45683,3.91583 6.09014,7.7197 29.66663,20.03226 59.29132,52.81198 83.62094,92.52657 18.78555,30.66469 39.88697,77.8704 39.88697,89.23061 0,16.53341 -18.27213,26.93317 -32.56422,18.53425 -5.4659,-3.21209 -7.88721,-6.85321 -12.24778,-18.41795 -17.39295,-46.12803 -43.49459,-89.23022 -71.83943,-118.62994 -6.17371,-6.40347 -11.6123,-11.64267 -12.08577,-11.64267 -0.48735,0 -0.86085,22.40454 -0.86085,51.63906 v 51.63905 l 63.46453,104.99919 c 34.90549,57.74956 64.06505,106.41021 64.79902,108.13477 3.59408,8.44472 -0.30653,20.80776 -8.04515,25.49928 -2.31035,1.40064 -4.21451,2.8755 -4.23145,3.27745 -0.0169,0.40195 50.40935,0.73081 112.05841,0.73081 110.89435,0 112.15379,0.0216 118.1486,2.02466 12.19837,4.07588 21.52339,12.35275 27.20574,24.14774 2.68626,5.57594 3.16842,7.7508 3.48678,15.72772 0.28791,7.21403 -0.0454,10.56971 -1.51041,15.20505 -4.69719,14.86237 -16.62329,26.02265 -32.0916,30.03089 -5.34844,1.38592 -41.15684,1.5295 -365.83681,1.46688 -339.30502,-0.0655 -360.242758,-0.16672 -365.7546,-1.76896 z m 488.67235,-87.74273 c 0,-0.49982 -0.87935,-1.18785 -1.9541,-1.52897 -1.07475,-0.34111 -3.18538,-1.65626 -4.69028,-2.92255 -1.5049,-1.26629 -29.89474,-47.27762 -63.08853,-102.24741 l -60.35235,-99.94507 -30.58154,0.2441 -30.58153,0.2441 -21.36983,37.36731 -21.36983,37.36732 23.5911,52.27946 c 13.60324,30.1457 23.77995,53.93394 24.03716,56.18731 0.68104,5.96634 -1.3503,11.83035 -5.7525,16.60617 -2.15942,2.34269 -4.76275,4.52494 -5.78519,4.84945 -1.02243,0.32451 -1.85897,0.99896 -1.85897,1.49878 0,0.55615 38.7536,0.90875 99.87819,0.90875 61.12459,0 99.8782,-0.3526 99.8782,-0.90875 z"
     id="path5"
     transform="scale(0.3111425)" /><path
     style="fill:#6b430a;fill-opacity:0.996383;stroke:#000000;stroke-width:0;stroke-dashoffset:81.3581"
     d="m 341.0475,188.07797 c -18.85276,-4.22902 -36.59313,-18.2088 -45.17923,-35.60219 -9.81021,-19.87317 -9.86916,-40.28215 -0.17303,-59.905743 8.27505,-16.747531 25.26101,-30.328912 43.89063,-35.093413 7.46369,-1.908829 22.8188,-1.960602 30.82273,-0.103924 22.0274,5.109707 39.68555,20.888386 47.81592,42.72654 3.90797,10.49682 4.84202,25.73197 2.28284,37.235 -5.08612,22.86113 -23.05945,42.17808 -45.84232,49.2693 -8.88302,2.76486 -24.76046,3.46123 -33.61754,1.47443 z"
     id="path6"
     transform="scale(0.3111425)" /><path
     style="fill:#6b430a;fill-opacity:0.996383;stroke:#000000;stroke-width:0;stroke-dashoffset:81.3581"
     d="m 637.57787,211.10137 c -17.25774,-5.96341 -24.97031,-21.25318 -17.80522,-35.29791 2.59054,-5.07787 9.94106,-11.19383 16.38122,-13.62991 4.60864,-1.74328 6.95397,-2.00877 14.43562,-1.63411 l 8.93297,0.44733 1.09313,-4.34123 c 3.39679,-13.4899 4.91626,-36.3169 3.30842,-49.70279 l -0.61447,-5.11571 h -33.86477 c -38.21443,0 -35.04769,-0.7475 -35.04769,8.27288 0,15.62871 -9.9817,71.24886 -14.81809,82.56956 -2.33364,5.46241 -8.88012,11.7968 -15.2178,14.72478 -3.65636,1.68923 -6.3841,2.10503 -13.81308,2.10562 -8.16727,6.4e-4 -9.91114,-0.3205 -14.81375,-2.728 -21.59873,-10.60642 -21.49032,-36.06677 0.19743,-46.36964 4.6376,-2.20311 6.6355,-2.54597 14.83601,-2.54597 9.32277,0 9.48498,-0.0396 9.98701,-2.43605 2.90866,-13.88482 5.11944,-31.15887 7.20237,-56.276137 1.0519,-12.684597 3.74596,-17.719572 11.70629,-21.878094 l 5.21193,-2.722749 42.51967,0.0214 c 40.64955,0.02046 42.71253,0.108599 46.90456,2.003973 5.26359,2.379861 10.25202,6.964338 12.64009,11.616527 3.47961,6.778605 4.41458,14.31029 4.35465,35.07917 -0.0513,17.77882 -0.343,21.32413 -2.65248,32.23745 -1.42717,6.74399 -4.09572,17.04851 -5.93011,22.8989 -1.83439,5.85041 -3.81406,12.42267 -4.39924,14.60502 -1.37121,5.11368 -5.2966,10.1462 -10.92766,14.00978 -8.61874,5.91348 -20.00232,7.47392 -29.80701,4.08591 z"
     id="path7"
     transform="scale(0.3111425)" /></g></svg>
