<?xml version="1.0" encoding="UTF-8" standalone="no"?>
<!-- Created with Inkscape (http://www.inkscape.org/) -->

<svg
   width="523.875mm"
   height="102.70208mm"
   viewBox="0 0 523.875 102.70208"
   version="1.1"
   id="svg1"
   xmlns:inkscape="http://www.inkscape.org/namespaces/inkscape"
   xmlns:sodipodi="http://sodipodi.sourceforge.net/DTD/sodipodi-0.dtd"
   xmlns="http://www.w3.org/2000/svg"
   xmlns:svg="http://www.w3.org/2000/svg">
  <sodipodi:namedview
     id="namedview1"
     pagecolor="#ffffff"
     bordercolor="#000000"
     borderopacity="0.25"
     inkscape:showpageshadow="2"
     inkscape:pageopacity="0.0"
     inkscape:pagecheckerboard="0"
     inkscape:deskcolor="#d1d1d1"
     inkscape:document-units="mm" />
  <defs
     id="defs1" />
  <g
     inkscape:label="Capa 1"
     inkscape:groupmode="layer"
     id="layer1"
     transform="translate(156.93749,-113.02532)">
    <path
       d="m -156.72595,114.05311 c 0.87907,1.42234 249.241192,1.42234 249.241192,0 0,-0.67958 -42.33127,-1.02779 -124.93821,-1.02779 -83.030412,0 -124.725132,0.34456 -124.302982,1.02779 z m 273.90836,0 c 0,0.67953 42.11951,1.02778 124.30299,1.02778 81.75997,0 124.52038,-0.35194 124.9382,-1.02778 0.42214,-0.68307 -41.27256,-1.02779 -124.30299,-1.02779 -82.60694,0 -124.9382,0.34806 -124.9382,1.02779 z m -21.252228,2.31253 c -1.86878,2.30706 -1.9405,2.31204 -30.13771,2.09058 -95.53342,-0.75031 -108.94666,-0.50671 -108.94666,1.97865 0,2.00138 4.33986,7.04506 7.44249,8.64952 4.0905,2.11527 9.84946,0.57686 13.33149,-3.56128 l 2.4251,-2.8821 2.38198,3.76961 c 2.9907,4.73291 7.0488,7.17065 11.9368398,7.17065 5.62012004,0 10.74325,-2.88342 13.7747,-7.75276 l 2.6668302,-4.28365 15.45161,-0.66629 c 8.49838,-0.36632 20.30691,-0.36942 26.24115,-0.008 l 10.78954,0.66015 -6.02435,6.02434 c -3.31339,3.31341 -6.79674,6.02474 -7.74077,6.02516 -2.62282,0.001 -13.63203,5.49565 -17.42238,8.69504 -1.8548,1.56561 -4.7423,4.83772 -6.41667,7.2713 -4.74084,6.89057 -11.67804,8.15602 -16.7742302,3.05982 -2.15423,-2.15424 -2.20431,-8.09903 -0.086,-10.21726 1.9113602,-1.91133 6.7110602,-2.12798 8.4573102,-0.38185 2.19686,2.19685 1.42613,5.79099 -1.59308,7.42893 -2.49504,1.35359 -2.57397,1.53822 -0.6732,1.57454 2.84604,0.0544 5.55519,-3.06129 5.55519,-6.38891 0,-3.19492 -4.27265,-6.93128 -7.92616,-6.93128 -3.8267802,0 -8.5186202,5.25791 -8.5186202,9.54639 0,7.02692 7.8147102,12.42767 14.5732602,10.07162 1.76333,-0.61469 3.37376,-1.11763 3.57873,-1.11763 0.20499,0 0.11336,1.73439 -0.20359,3.85421 -0.31694,2.11987 0.10446,6.39805 0.93649,9.50716 1.33639,4.9938 1.33385,6.0313 -0.0217,8.8984 -2.05616,4.34841 -6.39824,6.15626 -10.30688,4.29131 -5.3653502,-2.55999 -4.0449602,-10.56147 1.63388,-9.90132 2.31175,0.26881 2.63593,0.76025 2.49192,3.77811 -0.14913,3.1245 -0.008,3.31185 1.418,1.88562 3.76917,-3.76918 -1.98494,-9.99043 -7.35268,-7.94962 -8.4204902,3.20145 -4.7340702,15.44227 4.6506,15.44227 3.27067,0 4.44365,-0.64388 7.23941,-3.97394 l 3.33635,-3.97398 2.14803,3.18746 c 6.87317,10.19912 24.66717,10.68442 34.01572,0.92768 4.63377,-4.83604 8.2362,-5.65216 11.07977,-2.51003 3.20336,3.53968 1.80899,8.39842 -2.4102,8.39842 -3.86995,0 -4.97846,-2.97887 -2.00462,-5.38696 2.22016,-1.79775 2.22071,-1.80762 0.0991,-1.80762 -2.01669,0 -4.26122,2.67128 -4.26122,5.07141 0,1.99719 4.07204,5.20656 6.60609,5.20656 3.00451,0 6.75529,-4.38291 6.75529,-7.8938 0,-3.51412 -4.35677,-7.52318 -8.17568,-7.52318 -3.11336,0 -3.13011,-0.0311 -3.13011,-5.72045 0,-6.42613 -0.93596,-8.76613 -5.3894,-13.47387 l -3.08714,-3.26345 3.84683,-7.78538 c 2.56426,-5.18966 4.43663,-7.78539 5.61581,-7.78539 3.12781,0 14.26374,6.18532 17.00832,9.44706 1.4629,1.73855 3.58707,4.97857 4.7204,7.20006 2.04939,4.01713 2.04948,4.03314 0.0183,2.94615 -5.40404,-2.89216 -13.55964,0.11615 -14.91094,5.5002 -1.39412,5.55465 4.00067,11.74639 9.11588,10.46257 5.5076,-1.38234 7.08196,-8.48485 2.43235,-10.97324 -3.01117,-1.61153 -3.61463,-0.28902 -0.87894,1.92617 1.99366,1.61436 2.16116,2.22366 1.13724,4.1369 -1.42045,2.65411 -5.38781,2.97649 -7.73574,0.62857 -5.8872,-5.88718 5.10964,-14.31345 11.64101,-8.91985 3.15821,2.60808 4.10163,15.09076 1.75152,23.17487 -1.58436,5.45016 -1.91981,5.86045 -4.79133,5.86045 -7.03608,0 -14.58792,5.77597 -19.04073,14.56319 -1.36473,2.69315 -2.48133,5.14328 -2.48133,5.44472 0,0.30145 1.76162,0.54808 3.91471,0.54808 2.63499,0 5.82687,-1.15143 9.76409,-3.52232 l 5.84938,-3.52231 v 2.82926 c 0,2.58287 3.57666,7.29877 5.5356,7.29877 0.42791,0 1.47179,0.69375 2.31972,1.54168 1.98444,1.98444 4.80976,1.95457 8.768808,-0.0929 2.91669,-1.50827 3.41649,-1.49669 6.47474,0.15034 4.08485,2.19984 7.0052,1.55628 12.10323,-2.66709 2.913,-2.41326 3.85424,-3.95836 3.85424,-6.32695 0,-3.05795 0.0559,-3.09358 2.31257,-1.46947 5.02309,3.61536 10.10915,5.78086 13.57736,5.78086 2.00103,0 3.63827,-0.24667 3.63827,-0.54807 0,-2.01238 -5.62924,-10.88627 -8.90446,-14.03687 -4.3415,-4.17636 -8.16394,-5.97105 -12.7175,-5.97105 -2.74991,0 -3.12342,-0.4665 -4.69099,-5.85874 -2.38822,-8.21522 -1.48028,-20.59495 1.69928,-23.16962 6.67197,-5.40261 16.16293,1.2172 12.24392,8.53997 -1.51422,2.82926 -6.72186,2.66864 -8.28689,-0.25561 -1.02394,-1.91324 -0.85644,-2.52254 1.13722,-4.1369 1.28591,-1.04126 2.08086,-2.15039 1.76655,-2.46469 -0.8595,-0.85951 -4.53152,1.37114 -5.22286,3.17274 -0.86239,2.24735 0.93472,6.38332 3.33076,7.66562 3.06471,1.6402 4.85278,1.33832 7.97351,-1.34601 6.09602,-5.24354 2.15719,-15.03625 -6.04788,-15.03625 -2.19977,0 -4.94743,0.50725 -6.10589,1.12723 -3.51772,1.88263 2.93649,-8.91335 7.48002,-12.51193 4.18157,-3.31185 11.79903,-7.05776 14.42408,-7.09311 1.07335,-0.0155 3.0597,2.77745 5.52304,7.76282 l 3.84684,7.78538 -3.08717,3.26345 c -4.45341,4.7077 -5.38941,7.0477 -5.38941,13.47383 0,5.68984 -0.0155,5.72045 -3.13009,5.72045 -3.8189,0 -8.17567,4.00906 -8.17567,7.52318 0,3.5109 3.75077,7.89381 6.75527,7.89381 2.53408,0 6.6061,-3.20938 6.6061,-5.20656 0,-2.44827 -2.26347,-5.07142 -4.37603,-5.07142 h -2.24813 l 2.28426,1.59995 c 2.69567,1.88814 2.83291,2.8436 0.71286,4.96365 -1.60092,1.60092 -4.47649,1.1911 -5.86434,-0.83577 -1.35126,-1.97333 -0.82897,-5.37091 1.09297,-7.11024 3.10204,-2.80732 6.19981,-2.03607 10.80263,2.6895 9.35495,9.60446 26.12964,9.35402 34.01233,-0.50776 2.43273,-3.04354 2.79524,-3.19364 3.754,-1.55446 3.77489,6.45418 10.97468,7.91413 15.70432,3.18448 4.2313,-4.2313 3.21555,-10.75656 -1.98199,-12.73265 -5.36774,-2.04081 -11.12183,4.18044 -7.35269,7.94963 1.42623,1.42622 1.56713,1.23887 1.418,-1.88563 -0.13829,-2.89946 0.22336,-3.52437 2.20357,-3.80503 5.24207,-0.74313 7.53033,6.39315 3.05508,9.52774 -3.27394,2.29315 -5.48524,1.99016 -8.95104,-1.22648 -3.63159,-3.37055 -3.92654,-5.07083 -2.23247,-12.86807 0.70866,-3.26174 0.98579,-7.30871 0.61578,-8.99322 -0.7667,-3.49097 -0.8616,-3.43697 3.41775,-1.94517 2.34808,0.81852 4.17271,0.79859 6.818,-0.0746 7.84677,-2.58966 10.26881,-11.02141 4.75094,-16.53928 -3.5464,-3.5464 -6.97961,-3.82601 -10.73236,-0.87415 -4.8968,3.85185 -2.54441,11.28933 3.53964,11.19097 2.25155,-0.035 2.17044,-0.17869 -0.85177,-1.49207 -5.53275,-2.40476 -4.13286,-8.74569 1.93076,-8.74569 3.66675,0 6.03468,2.4751 6.03468,6.3078 0,4.46095 -1.5688,6.73351 -5.55688,8.04969 -4.746,1.56631 -9.83264,-0.58766 -12.82622,-5.4314 -1.23845,-2.00383 -3.93611,-5.1223 -5.99487,-6.92988 -4.14268,-3.63734 -15.12291,-9.18873 -18.1771,-9.18998 -1.07634,-4.2e-4 -3.59185,-1.91075 -5.58997,-4.24508 -1.99811,-2.33437 -4.93821,-5.03809 -6.53353,-6.00826 -2.87095,-1.74593 -2.77325,-1.7708 9.56845,-2.4344 6.85794,-0.36865 19.00386,-0.37331 26.9909,-0.0117 l 14.52193,0.66003 2.66681,4.28408 c 3.03142,4.86981 8.15423,7.75318 13.77469,7.75318 4.88806,0 8.94614,-2.43773 11.93685,-7.17064 l 2.382,-3.76961 2.38296,2.83202 c 2.82834,3.36126 8.25585,5.37888 11.96525,4.44786 2.89068,-0.72553 8.85085,-6.85918 8.85085,-9.10848 0,-2.91756 -4.05342,-3.00473 -108.18706,-2.32668 -27.3332,0.17792 -29.60348,0.0571 -30.13161,-1.60379 -0.75616,-2.37807 -5.34957,-3.46292 -7.90505,-1.86701 -1.45002,0.90557 -2.33612,0.94807 -3.13383,0.15033 -1.84652,-1.8465 -5.575338,-1.25476 -7.564108,1.20038 z m 7.392598,1.84798 c 0.85571,2.6961 -1.27324,5.27761 -4.026408,4.88231 -2.20279,-0.3162 -3.27288,-2.90567 -2.27522,-5.50555 0.88448,-2.30496 5.517698,-1.8467 6.301628,0.62324 z m 9.23454,1.49239 c 0,2.34338 -0.51493,3.15697 -2.14555,3.38992 -2.79605,0.3995 -4.8942,-2.18123 -4.01794,-4.94205 0.51208,-1.61343 1.38438,-2.08405 3.42526,-1.84798 2.2869,0.26454 2.73823,0.82493 2.73823,3.40011 z m -140.594308,1.54249 c 7.4504,0 8.0895,1.17952 2.31664,4.27554 -4.84689,2.59941 -8.48451,2.37022 -12.21599,-0.76958 -4.09204,-3.44326 -4.07375,-4.97302 0.0497,-4.14832 1.76652,0.35311 6.19891,0.64236 9.84973,0.64236 z m 123.81925,1.54172 c 2.15533,2.74003 5.806498,3.36281 7.833208,1.33614 0.95927,-0.9593 1.50744,-0.9593 2.46672,0 2.04126,2.04124 5.68363,1.39659 7.87914,-1.39457 2.11828,-2.69295 2.9777,-2.75953 12.04376,-0.93339 2.59848,0.52341 8.54342,5.13897 12.1693,9.44807 l 2.66153,3.16307 -6.43082,3.0195 c -11.31874,5.31455 -16.61702,11.28762 -19.83679,22.36325 -2.12986,7.32646 -2.28908,21.32091 -0.29729,26.131 l 1.45787,3.52081 -5.44003,2.744 -5.44002,2.74399 -5.395948,-2.71735 -5.39594,-2.71739 1.43857,-4.0613 c 2.09229,-5.90687 1.66783,-19.12953 -0.87749,-27.33519 -2.79145,-8.99916 -9.17862,-15.9428 -18.80334,-20.44147 l -6.93647,-3.24216 2.12508,-2.73013 c 2.92622,-3.75935 10.10769,-9.36521 12.6943,-9.90917 1.17533,-0.24706 3.06198,-0.645 4.19256,-0.88405 4.43762,-0.93844 5.9477,-0.57558 7.89211,1.89634 z m 155.013998,-1.63309 c 0,1.7445 -6.30966,6.25816 -8.74826,6.25816 -3.29996,0 -6.9937,-1.50132 -9.27089,-3.76817 -1.83706,-1.82871 -1.66614,-1.90213 5.75032,-2.47041 4.20407,-0.32203 8.68436,-0.669 9.95626,-0.77082 1.27189,-0.10177 2.31257,0.23619 2.31257,0.75124 z M 6.6293918,124.4585 c -3.4869,3.7078 -8.35152,6.04019 -12.59782,6.04019 -3.34968,0 -8.9835698,-3.4731 -11.2538998,-6.93765 l -1.51541,-2.31254 h 14.1929298 14.19294 z m 68.7875802,-0.2797 c -2.22492,1.61172 -5.29137,4.41127 -6.81434,6.22122 -2.55844,3.04051 -3.181,3.26714 -8.18555,2.97944 l -5.41649,-0.31154 5.9558,-5.90983 c 5.94481,-5.89895 5.96739,-5.90986 12.23085,-5.90986 h 6.27504 z m 70.029268,-0.29173 c 1.90275,1.45125 4.60876,4.14541 6.01339,5.98698 l 2.55385,3.34828 -5.0769,0.23152 c -4.58176,0.209 -5.34671,-0.0889 -7.84373,-3.05659 -1.52179,-1.80851 -4.58724,-4.60689 -6.81218,-6.21861 l -4.0453,-2.93042 h 5.87568 c 4.72495,0 6.55324,0.5168 9.33519,2.63872 z m 81.75329,-0.66283 c -1.41046,2.63551 -5.96953,6.14714 -8.9527,6.89586 -4.03089,1.0117 -9.4417,-0.58168 -13.2096,-3.88992 -1.96642,-1.72655 -3.57531,-3.55378 -3.57531,-4.06049 0,-0.50674 6.02889,-0.92135 13.39754,-0.92135 12.89891,0 13.35819,0.0738 12.34007,1.9759 z M 48.337762,140.22097 c -1.08057,2.52087 -2.2762,6.24394 -2.65696,8.27353 -0.38072,2.02954 -2.21844,5.51682 -4.08377,7.74949 -4.25702,5.0953 -5.15126,8.93328 -3.18047,13.65007 1.54867,3.70649 6.03796,6.85542 9.77343,6.85542 1.11528,0 3.4508,-1.19739 5.19004,-2.66083 2.39307,-2.01366 3.16225,-3.51366 3.16225,-6.1668 0,-1.92827 -0.51642,-3.50596 -1.14761,-3.50596 -0.68774,0 -0.93861,1.09336 -0.62606,2.72839 0.7867,4.1153 -3.44184,7.98928 -7.8016,7.14745 -7.05659,-1.36256 -9.17615,-9.31739 -4.02019,-15.08795 2.38721,-2.67171 3.62662,-3.20067 7.64199,-3.26139 8.68949,-0.1313 13.90791,6.1596 12.85538,15.49755 -1.05025,9.31778 -7.52522,14.04583 -19.23549,14.04583 -9.49438,0 -13.06453,-2.13505 -16.79912,-10.04641 -5.52009,-11.69375 -4.54033,-20.40993 3.22777,-28.71465 5.2842,-5.64921 13.33255,-10.32532 18.93076,-10.99883 0.40389,-0.0486 -0.14979,1.97418 -1.23035,4.49509 z m 15.39911,-4.02859 c 0,0.30533 -0.87348,2.27081 -1.94108,4.36814 -1.0676,2.09734 -2.50893,5.71424 -3.20298,8.03758 l -1.26188,4.22426 -5.53154,-0.08 c -6.38214,-0.0924 -6.349,0.16276 -1.38757,-10.68116 l 2.93907,-6.42372 h 5.19299 c 2.85615,0 5.19299,0.24978 5.19299,0.55484 z m 95.548968,5.86888 c 4.92912,10.77338 4.96288,10.51517 -1.39523,10.66437 l -5.5141,0.12936 -1.26677,-4.24058 c -0.69674,-2.33235 -2.12048,-5.91775 -3.16384,-7.96761 -1.04337,-2.04982 -1.60854,-4.0155 -1.25589,-4.36815 0.35272,-0.35272 2.66968,-0.64115 5.14895,-0.64115 h 4.5078 z m 10.39797,-2.74987 c 5.33883,2.66666 11.53662,8.47339 14.07416,13.18606 4.74293,8.80855 -0.0575,26.35561 -8.52148,31.14936 -5.57436,3.15708 -13.87212,3.17383 -20.00453,0.0404 -5.56208,-2.84209 -8.22155,-6.34444 -8.95182,-11.78885 -1.2461,-9.29051 4.15656,-16.04738 12.83124,-16.04738 3.92135,0 5.09822,0.50881 7.56622,3.27091 5.17478,5.79158 3.16715,13.79753 -3.79657,15.13985 -4.36356,0.84114 -8.02429,-2.22319 -7.89947,-6.61251 0.0513,-1.79864 -0.33874,-3.00337 -0.86662,-2.67718 -1.70118,1.05136 -1.0211,6.18486 1.12447,8.48788 4.79445,5.14623 13.16781,3.31239 16.01754,-3.50799 1.99599,-4.77711 1.11749,-8.59245 -3.15634,-13.70787 -1.86531,-2.23267 -3.70303,-5.71995 -4.08376,-7.7495 -0.38069,-2.02958 -1.57866,-5.75794 -2.66196,-8.28521 l -1.96968,-4.59509 2.79492,0.67262 c 1.53722,0.36981 4.91386,1.73097 7.50368,3.02458 z m -82.307558,53.68793 c 0,2.43513 -13.71762,13.54285 -15.06321,12.19727 -1.54507,-1.54506 5.50266,-9.35538 10.43811,-11.5675 3.62875,-1.62644 4.6251,-1.76209 4.6251,-0.62977 z m 39.457688,0.59574 c 4.76706,1.99178 12.09861,10.0536 10.55068,11.60153 -1.34559,1.34558 -15.06321,-9.76214 -15.06321,-12.19727 0,-1.13283 0.54893,-1.06038 4.51253,0.59574 z m -28.151908,1.512 c 1.978518,0.9976 3.488678,2.3419 3.355918,2.98729 -0.13274,0.64538 -0.4583,2.92887 -0.72346,5.0744 -0.7246,5.86345 -7.788188,10.30113 -9.460388,5.94347 -0.63706,-1.66016 1.26285,-4.61202 2.96843,-4.61202 0.57334,0 0.46204,0.68171 -0.25168,1.54172 -1.71093,2.06155 -0.12256,1.97119 2.19349,-0.1247 1.67644,-1.51717 1.70435,-1.93157 0.31147,-4.62507 -1.46586,-2.83467 -2.87928,-3.47326 -6.91795,-3.12563 -1.77278,0.15267 -1.77278,0.0614 0,-2.37438 2.18043,-2.99599 3.69898,-3.118 8.52417,-0.68497 z m 20.997188,0.86984 c 1.86001,2.54942 1.86696,2.67337 0.11215,1.99998 -2.8402,-1.0899 -5.55042,0.18413 -7.20719,3.38799 -1.34726,2.60531 -1.31333,3.04773 0.34915,4.55223 2.31603,2.09601 3.90442,2.18637 2.19348,0.1247 -0.83901,-1.01097 -0.89479,-1.54172 -0.16202,-1.54172 1.47248,0 3.5133,3.87403 2.71838,5.16026 -0.97598,1.57916 -4.16745,1.18208 -6.64884,-0.82723 -1.4085,-1.14051 -2.35762,-3.18039 -2.51067,-5.39593 -0.13534,-1.9592 -0.43939,-4.22687 -0.6757,-5.03929 -0.43979,-1.51192 5.36195,-5.08932 8.30663,-5.12191 0.84794,-0.008 2.43402,1.20597 3.52462,2.7008 z m -24.412938,5.96537 c 0.18704,0.57166 -0.68721,1.4967 -1.94277,2.05561 -1.25556,0.55892 -2.57429,2.1725 -2.93054,3.58571 l -0.64772,2.56951 -1.29025,-2.69645 c -1.8256,-3.8153 0.10391,-7.31112 3.79316,-6.87228 1.47293,0.1752 2.83108,0.78624 3.01812,1.3579 z m 10.610338,1.53014 c 0,1.69586 -0.46251,3.0834 -1.02779,3.0834 -0.56529,0 -1.0278,-1.38754 -1.0278,-3.0834 0,-1.69586 0.46251,-3.08339 1.0278,-3.08339 0.56528,0 1.02779,1.38753 1.02779,3.08339 z m 15.48657,-0.8978 c 0.88845,1.66008 0.85946,2.83396 -0.12054,4.88204 l -1.29025,2.69645 -0.63753,-2.47223 c -0.53402,-2.07088 -1.58179,-3.0874 -5.06183,-4.91095 -0.19792,-0.10372 -0.055,-0.68182 0.3176,-1.28475 1.18956,-1.9247 5.55404,-1.22469 6.79254,1.08944 z m -20.59352,9.30092 c -1.273458,1.03116 -3.304778,1.85676 -4.514038,1.83465 -1.78669,-0.0311 -1.60158,-0.30028 0.98783,-1.42743 1.7526,-0.76294 3.540848,-2.24798 3.973898,-3.30012 0.61201,-1.48683 0.90771,-1.58651 1.32752,-0.44743 0.2971,0.80602 -0.50177,2.30916 -1.77521,3.34033 z m 11.88497,0.30494 c 2.43572,1.27022 2.602,1.55838 0.90222,1.56355 -2.86221,0.008 -6.65943,-2.82154 -6.61975,-4.93398 0.0303,-1.61758 0.12788,-1.61502 1.38207,0.035 0.74216,0.97721 2.69311,2.47752 4.33546,3.33399 z M -156.7204,119.18392 c -0.35241,0.57022 -0.2666,1.08823 0.19073,1.15116 3.97067,0.54629 108.872792,-0.31038 109.264282,-0.89222 0.28264,-0.42015 -24.08493,-0.88355 -54.150182,-1.0298 -35.93631,-0.17481 -54.8836,0.0893 -55.30484,0.77086 z m 413.16952,0.008 c -0.34922,0.56528 -0.49229,1.04285 -0.31776,1.06127 2.90393,0.3061 107.72802,0.45605 108.99576,0.15577 0.98292,-0.23269 1.53375,-0.83305 1.22411,-1.33405 -0.80613,-1.30437 -109.09504,-1.18923 -109.90226,0.11693 z m -413.17507,7.19609 c 0.41015,0.66364 19.36755,1.02778 53.50619,1.02778 34.562122,0 52.870982,-0.35582 52.870982,-1.02778 0,-0.67204 -18.5206,-1.02779 -53.506202,-1.02779 -35.40906,0 -53.29134,0.34767 -52.87097,1.02779 z m 172.156292,0 c 0,0.64713 6.85199,1.02778 18.50037,1.02778 11.64838,0 18.50038,-0.38069 18.50038,-1.02778 0,-0.64714 -6.852,-1.02779 -18.50038,-1.02779 -11.64838,0 -18.50037,0.38069 -18.50037,1.02779 z m 141.836208,0 c 0,0.6483 7.04351,1.02778 19.07495,1.02778 12.4549,0 18.85446,-0.3566 18.4397,-1.02778 -0.38535,-0.6234 -7.89047,-1.02779 -19.07491,-1.02779 -11.60794,0 -18.43974,0.38069 -18.43974,1.02779 z m 102.7799,0 c 0,0.67203 18.50038,1.02778 53.44552,1.02778 34.94515,0 53.44553,-0.35582 53.44553,-1.02778 0,-0.67204 -18.50038,-1.02779 -53.44553,-1.02779 -34.94514,0 -53.44552,0.35583 -53.44552,1.02779 z"
       style="fill:#6b430a;fill-opacity:1;stroke-width:1.0278"
       id="path1"
       sodipodi:nodetypes="csscssssscsssscsssccccscsssssssssssssscssssssscsssssssssssscsssscssssssssssssscssssssscsssssssssssssssscscssssssscssssssssssscssssscssccsssssssssccssscsssssssccsssssssssssscsssssssscssscccccssscsssssssssssssscccscsccssccsscssscssscsssscssssssssssssssssssssscsscssssscsssscssssssssssssssssccsssssssssscsssssssssccsssssssssscssssscsssssssssscsssssscssssccscccssssssccssccssssssssssssssssssss" />
  </g>
</svg>
