<?xml version="1.0" encoding="UTF-8" standalone="no"?>
<!-- Created with Inkscape (http://www.inkscape.org/) -->

<svg
   width="37.186901mm"
   height="9.4796543mm"
   viewBox="0 0 37.186901 9.4796543"
   version="1.1"
   id="svg1"
   xmlns:inkscape="http://www.inkscape.org/namespaces/inkscape"
   xmlns:sodipodi="http://sodipodi.sourceforge.net/DTD/sodipodi-0.dtd"
   xmlns="http://www.w3.org/2000/svg"
   xmlns:svg="http://www.w3.org/2000/svg">
  <sodipodi:namedview
     id="namedview1"
     pagecolor="#ffffff"
     bordercolor="#000000"
     borderopacity="0.25"
     inkscape:showpageshadow="2"
     inkscape:pageopacity="0.0"
     inkscape:pagecheckerboard="0"
     inkscape:deskcolor="#d1d1d1"
     inkscape:document-units="mm" />
  <defs
     id="defs1" />
  <g
     inkscape:label="Capa 1"
     inkscape:groupmode="layer"
     id="layer1"
     transform="translate(-116.41564,-144.77238)">
    <path
       d="m 118.5323,153.77783 c -1.09172,-0.59601 -2.11666,-1.9909 -2.11666,-2.88066 0,-1.03562 0.68126,-2.34979 1.53226,-2.95575 0.86533,-0.61618 2.63108,-0.76618 3.50615,-0.29786 0.7223,0.38657 1.12034,1.2328 0.82668,1.75754 -0.19324,0.34529 -0.2427,0.28452 -0.2427,-0.29818 0,-1.85988 -3.45097,-1.9066 -4.57573,-0.062 -1.37051,2.2477 0.33096,4.68195 3.27255,4.68195 1.54116,0 2.71065,-0.44178 5.69965,-2.15304 2.17802,-1.24696 2.52004,-1.54264 2.82334,-2.44086 0.99781,-2.9549 4.74133,-4.48241 8.57701,-3.49975 2.16123,0.55368 3.15206,1.16736 5.44556,3.37278 2.15373,2.07102 3.86169,2.93482 5.86001,2.96371 2.85732,0.0413 4.60238,-2.51648 3.51232,-5.14811 -0.94411,-2.27929 -5.01627,-1.95362 -5.01627,0.40117 0,1.09375 0.77404,1.85886 1.63468,1.61582 0.47666,-0.13461 0.52537,-0.11122 0.2174,0.10439 -0.65596,0.45926 -1.25367,0.32517 -1.83288,-0.41117 -0.68773,-0.87431 -0.69677,-1.68867 -0.0282,-2.53866 2.2741,-2.89105 6.82242,-0.18591 5.83748,3.47187 -0.34864,1.29476 -2.00995,2.84385 -3.31176,3.08807 -2.32648,0.43646 -4.95264,-0.66445 -7.54384,-3.16243 -2.05846,-1.98442 -2.64671,-2.36558 -4.5003,-2.91603 -2.83164,-0.84091 -5.28963,-0.38931 -7.04724,1.29478 -0.63385,0.60733 -1.15246,1.30325 -1.15246,1.54648 0,0.54099 -0.15973,0.55146 1.72897,-0.11328 2.22641,-0.78359 4.45243,-0.61982 5.32241,0.39159 1.752,2.03683 -0.43334,4.66183 -3.88102,4.66183 -0.7395,0 -1.68531,-0.17621 -2.1018,-0.39159 -0.93067,-0.48127 -1.86231,-1.62682 -1.86231,-2.28992 0,-0.27142 -0.0603,-0.49349 -0.13402,-0.49349 -0.0737,0 -1.46394,0.6819 -3.08938,1.51535 -2.55879,1.31201 -3.18872,1.52712 -4.69461,1.60315 -1.33441,0.0674 -1.95484,-0.0299 -2.66532,-0.41775 z m 16.69626,-0.57256 c 0.53555,-0.0386 1.55999,-1.40097 1.55999,-2.07455 0,-1.78402 -2.09812,-2.22959 -5.35781,-1.13782 -0.98227,0.32898 -1.78594,0.65181 -1.78594,0.71738 0,0.39556 0.78154,1.87987 1.15127,2.18649 0.64069,0.53134 2.00296,0.75241 3.21436,0.52164 0.58208,-0.11089 1.13024,-0.2068 1.21813,-0.21314 z"
       style="fill:#6b430a;fill-opacity:1;stroke-width:0.264583"
       id="path1" />
  </g>
</svg>
