<?xml version="1.0" encoding="UTF-8" standalone="no"?>
<!-- Created with Inkscape (http://www.inkscape.org/) -->

<svg
   version="1.1"
   id="svg1"
   width="109.18152"
   height="25.037415"
   viewBox="0 0 109.18152 25.037415"
   sodipodi:docname="fenefa_letras_derecha.svg"
   inkscape:version="1.3.2 (091e20e, 2023-11-25, custom)"
   xmlns:inkscape="http://www.inkscape.org/namespaces/inkscape"
   xmlns:sodipodi="http://sodipodi.sourceforge.net/DTD/sodipodi-0.dtd"
   xmlns="http://www.w3.org/2000/svg"
   xmlns:svg="http://www.w3.org/2000/svg">
  <defs
     id="defs1">
    <clipPath
       clipPathUnits="userSpaceOnUse"
       id="clipPath4">
      <path
         d="M 61.290405,0 H 435.0697 V 373.7793 H 61.290405 Z"
         transform="matrix(-1.3229732,0,0,-1.3229732,575.18559,494.40001)"
         clip-rule="evenodd"
         id="path4" />
    </clipPath>
  </defs>
  <sodipodi:namedview
     id="namedview1"
     pagecolor="#ffffff"
     bordercolor="#000000"
     borderopacity="0.25"
     inkscape:showpageshadow="2"
     inkscape:pageopacity="0.0"
     inkscape:pagecheckerboard="0"
     inkscape:deskcolor="#d1d1d1"
     inkscape:zoom="1.2828125"
     inkscape:cx="131.74178"
     inkscape:cy="55.736906"
     inkscape:window-width="1920"
     inkscape:window-height="1017"
     inkscape:window-x="-8"
     inkscape:window-y="-8"
     inkscape:window-maximized="1"
     inkscape:current-layer="g1" />
  <g
     id="g1"
     inkscape:groupmode="layer"
     inkscape:label="1"
     transform="translate(-155.56027,59.790176)">
    <path
       id="path3"
       d="m 162.24,14.68 c 0,-5.1699998 4.2,-8.2599999 9.10001,-6.6899998 0.53999,0.1799999 1.07001,0.3700004 1.59,0.6 1.50912,0.5964107 2.68016,1.5909158 3.51311,2.9835138 0.83296,1.392598 1.15525,2.89476 0.96688,4.506486 -0.13142,1.568199 -0.69012,2.965567 -1.6761,4.192104 -0.98598,1.226538 -2.23062,2.072502 -3.7339,2.537895 -1.56062,0.435282 -3.09764,0.363728 -4.61107,-0.214662 -1.51343,-0.57839 -2.7064,-1.550169 -3.57893,-2.915337 -1.06624,-1.496191 -1.58957,-3.162859 -1.57,-5 z M 81.550003,87.800003 c -5,0 -8.739998,-3.279999 -8.889999,-7.839996 -0.109032,-1.809502 0.377571,-3.441399 1.459793,-4.895691 1.082222,-1.454293 2.50563,-2.389061 4.27021,-2.804306 1.613785,-0.436043 3.230057,-0.445481 4.848816,-0.02831 1.618767,0.417168 3.029159,1.206604 4.231186,2.368309 1.130501,1.085457 1.854698,2.395523 2.172592,3.930184 0.317894,1.53466 0.173691,3.024597 -0.432602,4.46981 -0.677483,1.497749 -1.712707,2.68306 -3.105659,3.555931 -1.392952,0.872871 -2.911065,1.28756 -4.554337,1.244072 z M 292.37999,48.349934 c -0.86124,-0.05933 -1.70456,0.03733 -2.53,0.290001 -5.59,2.130001 -11.07999,4.470001 -15.92002,8.09 -1.70324,1.203106 -3.19659,2.62645 -4.48001,4.270031 -0.75778,0.982555 -1.31616,2.067703 -1.67517,3.255447 -0.35901,1.187745 -0.49521,2.400513 -0.40857,3.638298 0.0866,1.237801 0.39044,2.41977 0.91141,3.545922 0.52097,1.126152 1.22507,2.122932 2.11233,2.990333 2.67002,2.699997 6,3.099999 9.48999,2.510002 1.85108,-0.314231 3.51774,-1.047569 5,-2.199997 2.09458,-1.503707 3.94123,-3.267044 5.54001,-5.29 0.48999,-0.660004 1.04999,-1.650002 2,-1.25 0.95002,0.400001 0.57999,1.379997 0.47,2.150001 -0.21347,1.911308 -0.2868,3.82798 -0.22,5.75 0.0196,3.851067 0.95624,7.464394 2.81,10.839996 3.01953,5.425469 7.01953,9.992135 12,13.700002 0.39002,0.31 0.81,0.58 1.20001,0.88 0.39002,0.29999 0.70999,0.58 0.5,1.05999 -0.20752,0.40968 -0.54086,0.61968 -1,0.63 -0.79016,0.073 -1.56015,-0.0203 -2.30999,-0.28 -1.91678,-0.61121 -3.67676,-1.52455 -5.28,-2.74 -6.12,-4.639999 -10.73999,-10.340003 -12.45999,-17.999999 -0.0622,-0.18792 -0.14219,-0.36792 -0.23999,-0.540001 -0.20002,-0.186417 -0.40003,-0.186417 -0.60001,0 -6,4.75 -12.60001,4.849998 -19.32999,2.120003 -7.45999,-3 -11.73001,-11 -10.66,-19.080002 0.33487,-2.985531 1.2597,-5.77549 2.77453,-8.369873 1.51487,-2.594383 3.49,-4.771092 5.92542,-6.530121 l 1,-0.779999 c 0.075,-0.0802 0.14172,-0.16687 0.20001,-0.259998 -0.64001,-0.599999 -1.44,-0.349999 -2.14001,-0.349999 -10,0 -20.07001,0.05 -30.10001,0.06 -15.38,0 -30.75,0.150001 -46.11999,0 -6.69979,0.03845 -13.33644,0.705116 -19.91001,2 -7.26491,1.398895 -14.43823,3.168895 -21.52,5.310001 -1.98705,0.589089 -3.87371,1.409088 -5.66001,2.459999 -12.64999,7.359997 -22.80999,17.369999 -31.16999,29.289997 -2.5684,3.677803 -4.93507,7.48114 -7.1,11.410004 -0.52,0.940002 -1,1.869998 -1.58,2.789998 -0.58001,0.92 -1.22001,1.87 -2.460003,1.74 -1.239998,-0.13001 -1.690002,-1.16001 -2,-2.22 -0.08,-0.28 -0.190002,-0.55001 -0.25,-0.82 -1.8545,-7.288216 -2.054504,-14.621544 -0.599998,-22 0.562507,-2.601998 1.532509,-5.041992 2.910003,-7.32 -1.080085,-0.479088 -2.203422,-0.812424 -3.370002,-1 -7.28759,-1.937294 -14.457589,-4.240623 -21.510003,-6.91 -0.402992,-0.137802 -0.779663,-0.3278 -1.129997,-0.569999 -0.616951,-0.411629 -0.82695,-0.974961 -0.629997,-1.689999 0.155769,-0.713078 0.59243,-1.136414 1.309998,-1.270001 0.423332,-0.05533 0.846664,-0.05533 1.269996,0 9.678887,0.778363 19.345551,0.648365 29.000003,-0.389999 13.07016,-1.213795 25.89349,-3.700462 38.47,-7.459999 2.50999,-0.75 5,-1.610001 7.5,-2.420002 0.38,-0.130001 0.85,-0.139999 1.08,-0.790001 h -2.32001 c -44.60667,0.100002 -89.223332,0.200001 -133.850003,0.299999 -1.490403,-0.129314 -2.710404,0.384022 -3.66,1.540001 -1.028204,1.09668 -2.2820683,1.778176 -3.761592,2.044491 C 6.4188614,52.750813 5.0060587,52.549313 3.659977,51.880005 2.3564289,51.243893 1.373306,50.280724 0.71060795,48.99049 0.04790998,47.700256 -0.16229269,46.340096 0.08000001,44.91 0.23901355,43.631126 0.747347,42.510746 1.6050004,41.548859 2.4626536,40.586971 3.5176535,39.954018 4.77,39.650002 c 2.7400002,-0.82 5.38,-0.380002 7.18,1.889999 0.971608,1.263565 2.248275,1.796898 3.83,1.599998 C 40.480003,43.046665 65.173332,43 89.860001,43 h 2.5 c -0.565545,-0.578465 -1.232209,-0.995129 -2,-1.25 -4.068222,-1.923836 -7.468224,-4.673836 -10.199997,-8.25 -3.430001,-4.700001 -5,-9.91 -3.650002,-15.690001 C 78.480003,9.3000002 88.089996,4.2199998 96.260002,7.1999998 102.06001,9.3199997 105.8,15.45 104.77,21.200001 c -0.0237,1.496631 -0.74036,2.496631 -2.15,3 -0.16,-1 -0.25,-2 -0.48,-2.930001 -1,-4.11 -3.000001,-7.42 -7.220002,-8.829999 -1.760506,-0.629562 -3.552605,-0.738294 -5.376312,-0.326199 -1.8237,0.412096 -3.394928,1.280828 -4.713684,2.606198 -2.89,2.63 -3.419998,5.95 -2.540001,9.590001 0.69902,2.836745 2.102356,5.266745 4.209999,7.290001 2.993217,2.924927 6.493217,4.991593 10.5,6.199997 6.07719,1.825535 12.2672,3.105534 18.57,3.84 7.20821,0.910382 14.44488,1.330384 21.71,1.259999 l 83.26001,-0.14 c 0.7173,0.100239 1.42396,0.05024 2.11999,-0.150001 -0.11999,-0.700001 -0.75999,-0.57 -1.14999,-0.689999 -9.68111,-3.108929 -19.60443,-4.775596 -29.77,-5 -8.3388,-0.121292 -16.63878,0.388706 -24.9,1.529999 -0.91563,0.126781 -1.83563,0.193451 -2.75999,0.200001 -1.24283,0.147571 -2.10616,-0.355763 -2.59,-1.509999 -0.39517,-1.080734 -0.15184,-1.990734 0.73,-2.729999 0.7476,-0.760941 1.55095,-1.457607 2.41,-2.09 5.17,-3.760001 10.74001,-6.700001 17.14,-7.75 1.19,-0.200001 1.28,-0.700001 1,-1.74 -2.47,-10.68 4.33,-18.5000001 11.59,-22.19000061 0.5193,-0.26872429 1.06596,-0.45872408 1.63998,-0.56999938 0.81207,-0.23107493 1.55939,-0.09812717 2.24196,0.39884342 0.68255,0.49697056 1.03857,1.16735607 1.06804,2.01115657 0.0367,0.5674787 0.003,1.1308117 -0.10001,1.6900001 -0.48657,3.2476287 -0.31387,6.4598139 0.51808,9.6365579 0.83196,3.176743 2.25594,6.061223 4.27193,8.653441 3.17024,4.124893 7.04692,7.418226 11.63,9.880001 6.15078,3.355358 12.62745,5.872025 19.43,7.549999 3.85,1 7.75,1.82 11.67999,2.48 1.27004,0.185718 2.54669,0.26572 3.83,0.240002 l 194.90999,-0.279999 c 0.85336,-0.04503 4.66213,-0.04503 5.51543,0 0.54797,0 0.33458,-0.222019 0.33458,1.357188 0.04,0.713333 0.04,3.349477 0,4.06281 z"
       style="fill:#6b430a;fill-opacity:1;fill-rule:nonzero;stroke:none"
       transform="matrix(0.24187941,0,0,0.24187941,155.56446,-59.780499)"
       clip-path="url(#clipPath4)"
       sodipodi:nodetypes="cccscscsccscscscscsssccccsssccccsccccscccccccccscccscccccccsscccccccccccccccccscscscccscccccccccscccccccccccccccccccsccscccccccccc" />
  </g>
</svg>
