<?xml version="1.0" encoding="UTF-8" standalone="no"?>
<!-- Uploaded to: SVG Repo, www.svgrepo.com, Generator: SVG Repo Mixer Tools -->

<svg
   fill="#000000"
   width="800px"
   height="800px"
   viewBox="0 -2.89 122.88 122.88"
   version="1.1"
   id="Layer_1"
   style="enable-background:new 0 0 122.88 117.09"
   xml:space="preserve"
   sodipodi:docname="restaurant-waiter-svgrepo-com.svg"
   inkscape:version="1.3.2 (091e20e, 2023-11-25, custom)"
   xmlns:inkscape="http://www.inkscape.org/namespaces/inkscape"
   xmlns:sodipodi="http://sodipodi.sourceforge.net/DTD/sodipodi-0.dtd"
   xmlns="http://www.w3.org/2000/svg"
   xmlns:svg="http://www.w3.org/2000/svg"><defs
   id="defs1" /><sodipodi:namedview
   id="namedview1"
   pagecolor="#ffffff"
   bordercolor="#000000"
   borderopacity="0.25"
   inkscape:showpageshadow="2"
   inkscape:pageopacity="0.0"
   inkscape:pagecheckerboard="0"
   inkscape:deskcolor="#d1d1d1"
   inkscape:zoom="1.02625"
   inkscape:cx="400.48721"
   inkscape:cy="400"
   inkscape:window-width="1920"
   inkscape:window-height="1017"
   inkscape:window-x="-8"
   inkscape:window-y="-8"
   inkscape:window-maximized="1"
   inkscape:current-layer="Layer_1" />

<style
   type="text/css"
   id="style1">.st0{fill-rule:evenodd;clip-rule:evenodd;}</style>



<g
   id="g5"
   transform="translate(-0.06870621,-1.372184)"><path
     style="fill:#6b430a;fill-opacity:0.996383;stroke:#000000;stroke-width:0;stroke-dashoffset:81.3581"
     d="m 188.27636,402.19245 c -0.38513,-0.93788 -0.69956,-13.54446 -0.69874,-28.01462 0.002,-29.48976 1.00109,-38.3869 7.0053,-62.36297 8.89779,-35.53074 27.79881,-73.17922 51.6104,-102.80146 8.69415,-10.81577 28.84911,-31.5302 39.31216,-40.40344 36.11458,-30.62711 78.41664,-52.99735 123.74601,-65.43955 18.68402,-5.128472 31.07109,-7.405606 58.22719,-10.703993 l 4.1413,-0.503003 V 78.38122 64.799026 h -14.20407 -14.20407 l -2.8483,-2.848309 -2.84831,-2.848309 V 42.029415 c 0,-16.641796 0.0594,-17.142044 2.35116,-19.80699 l 2.35115,-2.733996 49.77884,-0.269432 c 55.89386,-0.30253 54.60991,-0.446816 56.64197,6.365241 0.66993,2.245754 0.96527,9.582028 0.76824,19.082217 l -0.32011,15.433811 -2.73399,2.34938 c -2.61634,2.248272 -3.33973,2.34938 -16.80877,2.34938 h -14.07478 v 13.623335 c 0,15.624358 -1.17995,14.028428 11.20585,15.156367 27.59046,2.512586 65.16524,12.745402 94.51888,25.740522 87.84162,38.88827 151.82322,112.96791 171.39616,198.44715 4.36001,19.0411 5.80577,32.44427 5.87471,54.46259 0.0352,11.25457 -0.29415,22.98416 -0.73198,26.06577 l -0.79605,5.60293 H 492.95655 c -288.58835,0 -304.01541,-0.0864 -304.68019,-1.70524 z"
     id="path2"
     transform="matrix(0.1536,0,0,0.1536,0,-2.89)" /><path
     style="fill:#6b430a;fill-opacity:0.996383;stroke:#000000;stroke-width:0;stroke-dashoffset:81.3581"
     d="m 190.49939,478.72564 c -4.13854,-2.37346 -4.32172,-3.40198 -4.35391,-24.44594 -0.0309,-20.23393 -0.0275,-20.26703 2.36078,-22.6553 l 2.39176,-2.39176 h 301.57339 301.57338 l 2.73401,2.34998 2.73399,2.34999 0.3176,18.45427 c 0.35403,20.57033 -0.46459,24.74477 -5.20601,26.54745 -3.87045,1.47155 -601.55521,1.26507 -604.12499,-0.20869 z"
     id="path3"
     transform="matrix(0.1536,0,0,0.1536,0,-2.89)" /><path
     style="fill:#6b430a;fill-opacity:0.996383;stroke:#000000;stroke-width:0;stroke-dashoffset:81.3581"
     d="m 390.04063,779.97547 c -21.15551,-1.71549 -38.87222,-7.2351 -68.48156,-21.33533 -10.9866,-5.23193 -33.8012,-15.94188 -50.69912,-23.79991 l -30.72349,-14.28731 -3.73949,-95.03801 c -2.05672,-52.2709 -3.55206,-95.22543 -3.32297,-95.45452 0.22908,-0.22908 19.36711,-1.16803 42.52895,-2.08654 47.0426,-1.86553 47.89983,-1.81385 68.61099,4.13637 20.30781,5.83434 47.13303,17.75892 75.10169,33.38486 l 10.54584,5.8919 33.79034,-1.45295 c 18.58468,-0.79913 35.74631,-1.17188 38.13694,-0.82833 10.96907,1.57629 21.30614,8.19156 25.62155,16.39665 2.76398,5.25528 2.9258,15.16198 0.32834,20.10057 -6.7989,12.92683 -24.64721,24.38392 -44.91282,28.83017 -5.85623,1.28485 -14.33994,1.85062 -34.10475,2.27442 -25.30703,0.54261 -26.42714,0.64811 -29.40036,2.76887 -1.79568,1.28084 -3.78404,4.01951 -4.74483,6.53531 -2.2862,5.98635 -1.2699,10.64171 3.32664,15.23825 4.65359,4.6536 9.61999,5.46774 23.9976,3.93394 5.89525,-0.6289 16.19976,-1.5751 22.89891,-2.10267 29.19865,-2.29945 49.37813,-9.03579 64.16608,-21.42001 10.18109,-8.52619 15.94359,-16.96508 21.66698,-31.73025 l 4.93231,-12.72434 49.3798,-26.88503 c 27.15888,-14.78676 50.91451,-27.35324 52.79027,-27.9255 31.80258,-9.70234 60.89506,11.04248 55.62634,39.66518 -1.55254,8.43422 -5.81018,17.24079 -11.27257,23.31627 -6.74787,7.50526 -65.67674,52.63135 -102.49788,78.49002 -31.18522,21.90069 -69.51104,45.83798 -94.67071,59.1288 -6.59442,3.48355 -16.63184,9.10062 -22.3054,12.48237 -12.80671,7.63351 -17.61431,10.07868 -28.3444,14.41609 -20.07271,8.11398 -43.37711,11.77157 -64.22922,10.08066 z"
     id="path4"
     transform="matrix(0.1536,0,0,0.1536,0,-2.89)" /><path
     style="fill:#6b430a;fill-opacity:0.996383;stroke:#000000;stroke-width:0;stroke-dashoffset:81.3581"
     d="M 9.4152702,744.24337 C 8.4347008,731.55069 0.53178241,523.86647 1.0127093,523.42884 1.588592,522.9048 204.00151,512.24744 204.56084,512.71171 c 0.33773,0.28034 9.71402,227.44429 9.41124,228.01111 -0.0477,0.0894 -42.8395,2.37777 -95.09278,5.0853 -52.253288,2.70752 -98.127266,5.16876 -101.942177,5.4694 l -6.936203,0.54663 z"
     id="path5"
     transform="matrix(0.1536,0,0,0.1536,0,-2.89)" /></g></svg>
