<?xml version="1.0" encoding="UTF-8" standalone="no"?>
<!-- Uploaded to: SVG Repo, www.svgrepo.com, Generator: SVG Repo Mixer Tools -->

<svg
   width="800px"
   height="800px"
   viewBox="0 0 48 48"
   fill="none"
   version="1.1"
   id="svg3"
   sodipodi:docname="sleep-one-svgrepo-com.svg"
   inkscape:version="1.3.2 (091e20e, 2023-11-25, custom)"
   xmlns:inkscape="http://www.inkscape.org/namespaces/inkscape"
   xmlns:sodipodi="http://sodipodi.sourceforge.net/DTD/sodipodi-0.dtd"
   xmlns="http://www.w3.org/2000/svg"
   xmlns:svg="http://www.w3.org/2000/svg">
  <defs
     id="defs3" />
  <sodipodi:namedview
     id="namedview3"
     pagecolor="#ffffff"
     bordercolor="#000000"
     borderopacity="0.25"
     inkscape:showpageshadow="2"
     inkscape:pageopacity="0.0"
     inkscape:pagecheckerboard="0"
     inkscape:deskcolor="#d1d1d1"
     inkscape:zoom="1.02625"
     inkscape:cx="400.48721"
     inkscape:cy="400"
     inkscape:window-width="1920"
     inkscape:window-height="1017"
     inkscape:window-x="-8"
     inkscape:window-y="-8"
     inkscape:window-maximized="1"
     inkscape:current-layer="svg3" />
  <g
     id="g6"
     transform="translate(-0.0011355,0.00919289)">
    <path
       style="fill:#6b430a;fill-opacity:0.996383;stroke:#000000;stroke-width:0;stroke-dashoffset:81.3581"
       d="M 109.06636,431.79793 C 99.386041,429.18785 90.488735,421.71536 86.485027,412.83281 83.296493,405.75878 83.521711,393.45119 86.969493,386.3581 89.077405,382.02151 112.06757,357.38308 207.4431,257.24726 L 325.31166,133.49574 217.46704,133.00853 c -102.07216,-0.46114 -108.09422,-0.58402 -112.50772,-2.29584 -6.45226,-2.50256 -14.632554,-10.25366 -17.949102,-17.00737 -2.351765,-4.78905 -2.716019,-6.67311 -2.673261,-13.827123 0.03909,-6.541013 0.511693,-9.23248 2.247599,-12.800121 4.833222,-9.933259 12.98225,-16.556829 23.381394,-19.004508 4.4449,-1.046212 33.06569,-1.298183 148.85355,-1.310478 92.95997,-0.0099 145.18362,0.332411 148.56521,0.973718 16.65687,3.15891 27.50681,16.100981 27.51777,32.823872 0.009,13.61155 7.18814,5.32739 -123.54302,142.55747 l -117.42676,123.26431 114.7267,0.48721 c 127.10529,0.53978 117.80358,0.0381 127.3113,6.86606 4.65141,3.34039 6.96076,6.14274 10.4264,12.65227 1.97351,3.70684 2.31858,5.73271 2.31858,13.612 0,7.87929 -0.34507,9.90516 -2.31858,13.612 -3.62446,6.80784 -5.96593,9.54387 -11.26893,13.16791 -9.8344,6.72075 -0.0627,6.35752 -169.07224,6.28466 -117.63388,-0.0507 -153.5549,-0.34055 -156.98957,-1.26664 z"
       id="path4"
       transform="scale(0.06)" />
    <path
       style="fill:#6b430a;fill-opacity:0.996383;stroke:#000000;stroke-width:0;stroke-dashoffset:81.3581"
       d="m 471.20664,513.54564 c -17.90341,-7.3876 -25.77848,-28.48539 -16.84728,-45.13484 1.1864,-2.21167 36.90739,-44.56317 79.37998,-94.11447 42.4726,-49.5513 77.2229,-90.33403 77.2229,-90.6283 0,-0.29428 -30.36541,-0.65897 -67.47868,-0.81043 l -67.47869,-0.27538 -5.47626,-2.56776 c -29.88109,-14.01094 -24.86173,-56.05632 7.4251,-62.19736 4.21354,-0.80142 34.69615,-1.0295 109.13521,-0.81657 l 103.28867,0.29545 5.52999,2.59236 c 7.41962,3.47819 13.83147,9.59104 17.06543,16.26965 2.25229,4.65131 2.66563,6.77471 2.68257,13.78111 0.0177,7.30399 -0.32316,8.94804 -2.88475,13.91495 -1.9606,3.80155 -28.00635,34.89524 -80.12771,95.6573 -42.4726,49.5137 -77.2229,90.26858 -77.2229,90.56639 0,0.2978 30.8039,0.66249 68.45311,0.81043 l 68.4531,0.26896 6.17182,3.34617 c 6.81349,3.69406 11.64592,8.92345 14.98865,16.21988 3.09256,6.75037 3.09256,18.42934 0,25.17971 -3.34273,7.29643 -8.17516,12.52582 -14.98865,16.21988 l -6.17182,3.34617 -107.67357,0.22936 -107.67357,0.22935 z"
       id="path5"
       transform="scale(0.06)" />
    <path
       style="fill:#6b430a;fill-opacity:0.996383;stroke:#000000;stroke-width:0;stroke-dashoffset:81.3581"
       d="m 243.94031,732.25229 c -9.50993,-1.91654 -19.05321,-9.3822 -23.45752,-18.3507 -3.65386,-7.44038 -3.83952,-19.43366 -0.41887,-27.05863 1.6911,-3.76963 14.98478,-19.08028 54.14748,-62.36297 l 51.9061,-57.36671 -41.01247,-0.54468 c -26.87961,-0.35698 -42.13206,-0.92928 -44.26144,-1.66077 -8.95258,-3.07539 -17.17112,-10.37563 -20.96822,-18.62534 -3.15979,-6.86506 -2.95576,-19.23853 0.43579,-26.42865 3.20062,-6.78536 9.24187,-12.81819 16.31378,-16.29106 l 5.51879,-2.71016 h 83.31303 83.31303 l 5.48068,2.69151 c 6.46533,3.17508 13.78119,10.63016 16.75362,17.07246 3.27177,7.09104 2.96789,19.32077 -0.65897,26.52105 -1.93152,3.83456 -17.38041,21.57715 -54.30094,62.36297 l -51.60139,57.00365 49.95888,0.48721 49.95887,0.48721 5.50349,2.58023 c 15.66168,7.34275 23.28589,25.47859 17.33882,41.24413 -2.92623,7.75734 -9.80827,14.99125 -17.75352,18.66123 l -6.06322,2.80065 -87.69792,0.15178 c -48.23387,0.0835 -89.52041,-0.21551 -91.74788,-0.66441 z"
       id="path6"
       transform="scale(0.06)" />
  </g>
</svg>
