<?xml version="1.0" encoding="UTF-8" standalone="no"?>
<!-- Created with Inkscape (http://www.inkscape.org/) -->

<svg
   version="1.1"
   id="svg1"
   width="1438"
   height="1511"
   viewBox="0 0 1438 1511"
   sodipodi:docname="svg_novios.svg"
   inkscape:version="1.3.2 (091e20e, 2023-11-25, custom)"
   xmlns:inkscape="http://www.inkscape.org/namespaces/inkscape"
   xmlns:sodipodi="http://sodipodi.sourceforge.net/DTD/sodipodi-0.dtd"
   xmlns="http://www.w3.org/2000/svg"
   xmlns:svg="http://www.w3.org/2000/svg">
  <defs
     id="defs1" />
  <sodipodi:namedview
     id="namedview1"
     pagecolor="#ffffff"
     bordercolor="#000000"
     borderopacity="0.25"
     inkscape:showpageshadow="2"
     inkscape:pageopacity="0.0"
     inkscape:pagecheckerboard="0"
     inkscape:deskcolor="#d1d1d1"
     inkscape:zoom="0.2175917"
     inkscape:cx="-101.1068"
     inkscape:cy="94.21315"
     inkscape:window-width="1920"
     inkscape:window-height="1017"
     inkscape:window-x="-8"
     inkscape:window-y="-8"
     inkscape:window-maximized="1"
     inkscape:current-layer="g1" />
  <g
     inkscape:groupmode="layer"
     inkscape:label="Image"
     id="g1">
    <path
       style="fill:#000000;stroke-width:3.64834"
       d="m 1250.374,1506.8169 c -6.5306,-4.9408 -6.6968,-6.3253 -1.9643,-15.8444 2.8709,-5.7389 5.8083,-11.665 6.5428,-13.173 0.7554,-1.511 -1.8738,-2.7199 -5.7932,-2.7199 -5.7843,0 -7.9209,-4.0495 -11.3571,-21.5139 -9.6099,-48.8451 -91.5461,-311.5983 -99.6663,-319.6097 -2.5084,-2.4478 -2.9617,7.0141 -1.3903,29.1897 10.3082,146.9461 15.5061,293.6929 10.396,293.6929 -2.0551,0 -4.8988,4.4998 -6.2769,9.994 -1.3901,5.5001 -4.4304,11.2207 -6.7784,12.7136 -6.5427,4.1612 -68.1196,3.4208 -68.1196,-0.8159 0,-5.3038 -18.0233,-4.4727 -38.6396,1.7827 -21.2299,6.44 -55.91365,6.6909 -76.28516,0.5442 -11.89471,-3.5841 -14.59339,-6.0592 -14.59339,-13.3995 0,-6.9842 3.46024,-10.6649 15.41538,-16.4098 45.90155,-22.0517 60.56447,-60.1112 70.61887,-183.2921 6.0651,-74.2574 1.0274,-128.4906 -33.2484,-358.37949 -22.16965,-148.68696 -26.01971,-190.43025 -23.28781,-252.57228 2.26652,-51.24456 1.87368,-57.6271 -3.45417,-59.67601 -3.28797,-1.26925 -5.97757,-4.57838 -5.97757,-7.3768 0,-7.18939 -0.72528,-6.89325 -26.51531,11.15131 -12.77411,8.92709 -33.78327,20.69486 -46.69337,26.15265 -12.91012,5.45779 -24.88037,11.13619 -26.59691,12.61698 -1.72253,1.48078 -3.67781,25.42132 -4.34867,53.19679 -1.29949,53.57153 -5.53336,97.2187 -23.67762,243.86875 -14.46343,116.8952 -17.9146,226.7791 -9.56775,304.6386 6.20424,57.887 22.62595,127.835 37.28884,158.8259 9.64936,20.4019 31.35054,41.834 42.35375,41.834 10.14796,0 11.2087,6.5487 2.02477,12.5565 -14.33956,9.3985 -49.21982,19.9212 -102.86085,31.0362 -153.07491,31.7131 -283.76258,21.2539 -361.31392,-28.9146 -26.4911,-17.1351 -41.16306,-23.9859 -44.41782,-20.7312 -1.35988,1.3598 1.42038,6.5245 6.11056,11.5259 4.69925,5.0014 7.58227,10.0513 6.41274,11.2238 -3.84705,3.847 -80.82722,-13.6716 -97.77174,-22.251 -9.11445,-4.6179 -30.45602,-22.1486 -47.42774,-38.9662 -38.12592,-37.7753 -66.65693,-52.426 -71.83063,-36.8838 -1.72255,5.2341 5.15559,12.1515 34.79564,34.8831 12.42358,9.5287 22.5897,20.018 22.5897,23.3061 0,14.01 -81.11131,-4.104 -109.06808,-24.3577 -8.47984,-6.1437 -23.11554,-22.109 -32.52613,-35.4816 -25.669141,-36.482 -60.58868,-71.616 -83.265996,-83.7858 L 0,1264.5529 20.55284,1262.4374 C 83.791826,1255.913 201.59357,1143.4662 302.30879,993.49806 326.18587,957.94075 397.08873,863.64139 421.31936,835.2192 545.64266,689.373 648.42491,614.06704 723.15368,614.06704 h 21.60146 v -35.57232 c -0.30221,-47.28874 -5.81742,-84.2391 -14.85327,-96.89838 -5.49706,-7.70314 -6.31303,-11.45047 -3.28192,-15.10713 2.65937,-3.19731 3.24565,-14.678 1.72254,-33.53244 l -2.32694,-28.67301 25.90786,-50.30169 c 33.72887,-65.49346 34.37559,-81.37421 3.15801,-77.6269 -21.50777,2.59896 -50.44978,-2.90116 -54.61111,-10.34139 -5.64514,-10.08753 -10.20236,-6.38555 -10.20236,8.28339 0,19.72177 -12.78016,90.67601 -23.50839,130.52451 -29.9997,111.41621 -89.40978,208.91596 -167.23008,274.45171 -28.05955,23.62621 -32.33873,25.99851 -46.85355,25.94715 -19.08413,0 -32.57747,-6.22238 -38.15613,-17.40993 -6.25562,-12.54747 -7.61854,-12.92824 -16.047,-4.49981 -13.43896,13.43898 -16.62117,7.96911 -15.20382,-26.1496 1.35989,-32.40221 -3.84403,-50.73991 -15.64204,-55.26691 -7.17127,-2.75005 -16.64534,6.88117 -16.70881,16.99287 0,13.78349 -4.25803,24.36664 -9.61003,24.36664 -8.71555,0 -9.34716,-8.86964 -3.42398,-48.03517 3.13689,-20.73716 5.30972,-40.93641 4.83222,-44.89527 -0.75551,-6.19517 2.17587,-7.57924 21.02127,-9.99687 28.67301,-3.67783 78.9203,-28.05955 116.87095,-56.71444 57.9565,-43.759 140.47001,-138.71722 185.38039,-213.34022 17.8179,-29.60684 20.33224,-36.69047 11.85845,-33.44179 -2.99181,1.14837 -12.06999,-4.98333 -21.73443,-14.64777 l -16.61211,-16.61512 0.75551,-24.53889 c 0.72528,-23.4963 1.29947,-24.89853 13.15489,-32.89783 12.56259,-8.4647 33.20605,-11.38701 33.20605,-4.70229 0,6.74215 5.36412,3.63551 25.43343,-14.72634 11.26913,-10.31116 25.89577,-19.8608 33.59288,-21.93389 7.49767,-1.99454 14.62059,-5.26741 15.82638,-7.219632 1.20881,-1.964331 10.90348,-3.547859 21.54707,-3.547859 22.68638,0 36.56657,9.975721 49.1503,35.321481 4.16738,8.3952 9.24135,16.28873 11.27823,17.54894 2.02476,1.26924 3.69894,6.14379 3.69894,10.86418 0,7.63062 17.96297,27.45211 24.90455,27.48538 1.35994,0.005 2.93137,10.26583 3.53276,22.80121 0.5742,12.53539 1.39014,26.84471 1.81322,31.79781 0.63461,7.79682 -1.90386,9.96363 -18.85143,16.12251 -21.27812,7.72433 -26.45788,15.14038 -31.35353,44.88017 -2.14567,13.10654 -0.36266,20.12672 12.5414,49.21075 17.30113,38.98119 27.18921,51.58906 37.80559,48.21951 5.73884,-1.81322 6.69078,-0.99727 4.73553,4.09485 -3.68386,9.59192 16.93245,39.28036 32.39919,46.65409 7.13502,3.40282 13.37248,6.18612 13.86205,6.18612 0.4835,0 1.08793,-16.00771 1.35989,-35.5693 0.30223,-19.56764 0.81598,-40.49823 1.23904,-46.51812 0.42309,-6.01989 -0.3022,-17.44012 -1.63189,-25.37898 -2.02476,-12.37827 -1.05771,-15.7569 6.94161,-23.71388 14.45436,-14.38487 26.12847,-34.11874 28.88456,-48.82698 1.39014,-7.36162 5.5152,-16.25245 9.18396,-19.75498 5.46383,-5.22207 6.33718,-10.21446 4.82922,-27.64555 -1.11818,-12.89196 -3.75338,-22.00944 -6.6938,-23.13665 -2.65941,-1.02748 -13.22142,0 -23.46004,2.11542 -23.08227,4.95312 -32.75881,0.84615 -32.75881,-13.83182 0,-5.6361 -3.23055,-13.17003 -7.17128,-16.74206 -3.94677,-3.57204 -6.82071,-9.93343 -6.38857,-14.14612 0.54395,-5.45477 -1.29949,-7.67899 -6.50642,-7.75453 -8.08997,0 -8.47982,-5.15859 -2.29674,-29.28649 3.02202,-11.72245 2.62917,-16.30689 -1.96431,-23.30288 -4.113,-6.276765 -5.22511,-14.418116 -3.98608,-29.186789 0.93684,-11.260076 0,-24.031163 -1.84344,-28.367776 -2.99179,-6.606173 -1.48078,-9.969692 9.19303,-20.655587 7.01714,-7.017146 17.47942,-15.19779 23.23939,-18.1714554 10.71613,-5.5272988 46.60577,-8.3408038 88.92021,-6.96881719 l 23.7139,0.75552619 26.4851,27.7875554 c 14.5692,15.282416 27.4158,31.489551 28.5521,36.010505 1.1182,4.517938 0,17.87532 -2.478,29.679361 -2.5084,11.804057 -4.7204,30.029947 -4.944,40.507307 -0.3325,14.85024 -2.2667,20.7674 -8.7973,26.86281 -6.044,5.63308 -7.7817,10.25981 -6.2102,16.52748 1.6016,6.31607 0.6648,8.70951 -3.3544,8.70951 -13.1157,0 1.8736,40.39549 16.9324,45.61149 7.4493,2.59896 18.0324,18.21076 19.4316,28.70022 0.5742,4.27618 4.6056,15.61182 8.9604,25.18864 18.8725,41.48341 22.3811,89.6878 12.623,173.38595 -3.2034,27.49442 -5.201,65.58711 -4.4364,84.65008 1.2994,32.07282 2.6292,37.38251 18.2349,71.14464 17.6395,38.20149 20.8732,49.75772 30.6586,109.45188 11.8977,72.57706 41.0301,150.67836 71.0237,190.40599 16.5427,21.90973 14.6477,23.49329 -16.7813,14.03435 -9.7582,-2.93141 -18.4706,-4.60859 -19.3591,-3.72009 -0.8764,0.8764 2.8407,18.47964 8.2773,39.08683 22.1967,84.01849 40.4679,137.53569 63.1,184.82739 13.0673,27.307 31.9973,66.8896 42.0637,87.9592 41.1327,86.0794 62.1933,139.7086 63.9068,162.7242 l 1.6621,22.2634 -18.6761,16.0437 c -15.4335,13.2608 -19.6946,19.6554 -24.5389,36.8508 -3.2215,11.4414 -8.8304,23.4903 -12.4599,26.7752 -9.4891,8.5885 -61.0087,11.6681 -70.8303,4.2367 z M 406.64741,577.10155 c 29.05377,-14.60545 71.06606,-43.54139 84.90694,-58.4823 l 10.76146,-11.61367 -10.9458,8.08393 c -6.01989,4.44842 -19.04484,14.47552 -28.945,22.28444 -9.90321,7.80893 -33.25744,21.09076 -51.90033,29.51315 -18.64594,8.42241 -33.02476,16.73298 -31.9489,18.47066 2.75001,4.44842 2.87091,4.40913 28.07163,-8.25621 z m 478.28158,-54.42674 c 18.62177,-8.24109 21.11795,-12.65324 8.6702,-15.35494 -4.51188,-0.96705 -10.88536,-2.90116 -14.15519,-4.29732 -4.45747,-1.87367 -6.97785,0.45329 -10.03616,9.19603 -4.20665,12.06997 -5.09513,17.92065 -2.71982,17.92065 0.75552,0 8.95729,-3.36052 18.24398,-7.46442 z"
       id="path1"
       sodipodi:nodetypes="sssssssssssssscsssssssscsssssssssssssssssscssssccssscsssscssssssssssssssccssssssscsscsssssscsscccssssssssssscscssscscccssssscsccsssssssscssssssscsssssssssss" />
  </g>
</svg>
