<?xml version="1.0" encoding="UTF-8" standalone="no"?>
<!-- Created with Inkscape (http://www.inkscape.org/) -->

<svg
   version="1.1"
   id="svg1"
   width="1438"
   height="1511"
   viewBox="0 0 1438 1511"
   sodipodi:docname="svg_novios.svg"
   inkscape:version="1.3.2 (091e20e, 2023-11-25, custom)"
   xmlns:inkscape="http://www.inkscape.org/namespaces/inkscape"
   xmlns:sodipodi="http://sodipodi.sourceforge.net/DTD/sodipodi-0.dtd"
   xmlns="http://www.w3.org/2000/svg"
   xmlns:svg="http://www.w3.org/2000/svg">
  <defs
     id="defs1" />
  <sodipodi:namedview
     id="namedview1"
     pagecolor="#ffffff"
     bordercolor="#000000"
     borderopacity="0.25"
     inkscape:showpageshadow="2"
     inkscape:pageopacity="0.0"
     inkscape:pagecheckerboard="0"
     inkscape:deskcolor="#d1d1d1"
     inkscape:zoom="0.2175917"
     inkscape:cx="-91.915271"
     inkscape:cy="1698.1346"
     inkscape:window-width="1920"
     inkscape:window-height="1017"
     inkscape:window-x="-8"
     inkscape:window-y="-8"
     inkscape:window-maximized="1"
     inkscape:current-layer="g1" />
  <g
     inkscape:groupmode="layer"
     inkscape:label="Image"
     id="g1">
    <path
       style="fill:#6b430a;fill-opacity:0.99638337;stroke:#000000;stroke-width:0;stroke-dasharray:none;stroke-dashoffset:81.3581;stroke-opacity:1"
       d="m 1250.0242,1505.7369 c -5.4043,-3.6657 -5.6171,-6.727 -1.149,-16.5334 6.9711,-15.3 6.8978,-16.1981 -1.3227,-16.1981 -3.7433,0 -8.1459,-5.6872 -9.7835,-12.6383 -17.277,-73.3341 -95.7081,-320.7053 -103.1383,-325.2974 -5.4825,-3.3884 -5.4434,30.9503 0.1336,117.3391 6.7207,104.1035 6.789,197.9651 0.1543,212.1139 -6.9367,14.7931 -27.136,18.6248 -63.9576,12.1325 -16.7335,-2.9504 -31.2756,-2.7608 -44.5459,0.5807 -37.4901,9.4401 -93.75994,4.2459 -93.75994,-8.6548 0,-2.5586 8.7894,-10.1107 19.532,-16.7824 38.20292,-23.7263 49.18304,-46.0297 60.82964,-123.5598 14.374,-95.6867 8.4693,-186.427 -27.81198,-427.40602 -13.38778,-88.92108 -17.0796,-128.63335 -19.04843,-204.90009 -2.00899,-77.82204 -3.77615,-96.37022 -9.96288,-104.57219 l -7.52073,-9.97042 -24.70688,16.6386 c -13.58879,9.15122 -35.57663,21.61493 -48.86188,27.6971 -27.58639,12.62948 -29.57291,16.87647 -29.7964,63.70188 -0.17046,35.70522 -8.18193,118.50048 -23.56896,243.57547 -7.98247,64.8859 -10.25177,108.48937 -10.52407,202.21357 -0.31407,108.1005 0.66009,124.1931 10.2202,168.8343 19.15827,89.4599 36.99282,126.5084 67.00508,139.1927 l 14.34283,6.0619 -21.50073,9.2476 c -28.39502,12.2128 -114.2039,31.1984 -171.27924,37.8962 -63.26468,7.4242 -156.08619,2.9526 -200.15781,-9.6424 -18.95753,-5.4177 -53.7302,-20.2585 -77.27261,-32.9794 -42.71059,-23.0783 -53.76201,-25.1752 -43.15327,-8.1879 4.94691,7.9213 4.38339,8.9733 -4.76974,8.9038 -16.4958,-0.1252 -76.31469,-16.7864 -88.17926,-24.5603 -5.94444,-3.895 -22.92673,-18.1407 -37.73844,-31.6573 -39.1088,-35.689 -52.1455,-44.8104 -64.04504,-44.8104 -21.01789,0 -17.57265,10.4601 12.2329,37.1406 16.21264,14.5128 27.97574,27.8992 26.14022,29.7478 -5.02366,5.0592 -52.37758,-5.6767 -79.19801,-17.9555 -14.78032,-6.7667 -30.47232,-19.0636 -41.79883,-32.7553 -33.259566,-40.205 -68.508246,-77.1182 -85.595196,-89.6372 L 9.5604044,1267.6686 34.559764,1259.7882 C 88.535414,1242.7739 182.49768,1155.2438 259.3758,1050.3619 400.24368,858.1813 426.17677,825.6666 489.02873,762.4248 589.0324,661.80079 648.70292,623.27781 710.90957,619.17972 l 33.31929,-2.19503 -0.16393,-14.33189 c -0.38334,-33.50872 -8.58976,-102.70998 -13.68959,-115.43864 -3.03821,-7.58301 -5.16026,-30.13932 -4.71571,-50.12513 0.72245,-32.47896 2.78719,-40.2737 19.44306,-73.40062 23.3906,-46.52155 32.13606,-71.10047 28.91241,-81.25739 -2.02402,-6.37705 -9.39801,-8.27812 -37.64197,-9.70437 -22.19781,-1.12094 -35.81363,-3.84005 -36.99635,-7.38826 -1.02936,-3.08799 -4.56304,-5.61452 -7.85265,-5.61452 -3.80942,0 -7.13772,9.25707 -9.16652,25.4949 -21.19309,169.62405 -87.40343,305.04092 -192.2833,393.2679 -22.27553,18.73868 -29.71887,22.4305 -45.22335,22.4305 -14.75884,0 -20.97202,-2.74978 -30.3427,-13.42878 -11.1307,-12.68481 -12.38086,-13.03744 -22.56414,-6.36508 l -10.78058,7.06369 -0.0678,-31.54997 c -0.0753,-35.05414 -7.30674,-54.52878 -20.24804,-54.52878 -9.50886,0 -14.51103,7.23539 -18.72887,27.09037 -1.81547,8.5461 -4.41172,11.71741 -7.26044,8.86873 -2.84872,-2.84873 -2.44285,-20.20271 1.13503,-48.53053 l 5.56945,-44.09608 19.93644,-2.98968 c 31.0339,-4.65381 96.74314,-40.12786 135.35503,-73.07333 54.89461,-46.83869 127.97639,-133.64045 166.61468,-197.89409 17.68771,-29.41388 20.17907,-39.33435 9.87808,-39.33435 -3.59761,0 -12.99934,-5.43429 -20.8928,-12.07619 -13.35561,-11.23801 -14.2573,-13.86963 -12.99093,-37.91505 1.2807,-24.31849 2.29053,-26.30294 17.16237,-33.72595 11.83354,-5.90649 17.35236,-6.60011 21.9769,-2.76211 4.74728,3.9399 10.12635,1.76993 23.26233,-9.3843 23.5798,-20.02244 59.52989,-37.413541 77.33957,-37.413541 20.70599,0 38.00545,16.147451 55.94768,52.221971 8.30133,16.69058 19.15882,32.5223 24.12776,35.1816 7.5274,4.02854 9.03444,9.70795 9.03444,34.04685 v 29.21176 l -18.50052,7.40244 c -20.63093,8.25487 -28.19414,21.51231 -29.11913,51.04262 -0.71859,22.94075 29.57209,89.36381 42.26609,92.68336 4.6664,1.2203 12.13898,10.50199 16.60564,20.62598 7.61785,17.2662 29.83782,35.99718 42.74814,36.03579 4.3026,0.0129 5.74471,-15.00864 5.74471,-59.83853 v -59.85572 l 16.08517,-23.38373 c 8.84684,-12.86105 16.08517,-25.76741 16.08517,-28.68079 0,-2.91339 4.2361,-13.20067 9.4135,-22.86064 7.41274,-13.83051 8.75029,-21.98645 6.29303,-38.37265 l -3.12052,-20.80908 -27.02824,3.0579 c -23.60458,2.67055 -27.34222,2.00945 -29.50673,-5.21904 -1.3632,-4.55232 -5.47494,-14.1318 -9.13721,-21.28773 -3.66232,-7.15593 -6.65875,-15.94533 -6.65875,-19.532 0,-3.58666 -2.58512,-6.5272 -5.74471,-6.53454 -4.16316,-0.01 -5.97192,-12.85366 -6.57006,-46.65338 -0.45392,-25.652021 -2.0856,-51.661434 -3.62596,-57.798699 -2.22067,-8.847808 0.62833,-14.299511 13.75728,-26.325168 C 917.06684,6.042255 931.99585,2.485199 985.6792,2.411692 l 36.9389,-0.05058 20.6715,21.829878 c 40.2313,42.485819 38.0265,36.582047 31.642,84.72559 -3.1222,23.54377 -8.4924,46.07183 -11.9338,50.06237 -3.4413,3.99053 -6.257,11.57354 -6.257,16.85113 0,5.27759 -2.327,10.37128 -5.1712,11.31933 -9.2968,3.09894 0.5421,30.12818 16.7202,45.93342 9.9519,9.72259 20.9434,29.14881 30.6756,54.21562 l 15.1665,39.06399 -1.8176,73.53222 c -4.3987,177.9458 -4.3043,179.4249 14.2287,222.89453 10.1424,23.78928 21.3295,62.76995 28.6102,99.69024 16.9258,85.83058 38.5902,145.85051 68.3389,189.32873 l 13.7986,20.16686 -17.0691,-3.20219 c -9.388,-1.76124 -20.0244,-4.33624 -23.6364,-5.72228 -9.3866,-3.60202 -8.4757,3.08762 9.1839,67.44468 22.8426,83.24507 34.8791,114.22727 90.3682,232.61027 49.5861,105.7892 73.1154,165.8344 73.1154,186.5858 0,6.6688 -7.1833,17.9096 -18.5173,28.977 -10.1845,9.9449 -20.8423,25.842 -23.6841,35.3269 -2.8417,9.4849 -8.7722,20.5081 -13.1788,24.496 -9.4926,8.5907 -54.3591,13.6823 -63.8483,7.2457 z M 400.87862,580.82155 c 24.63242,-12.47258 82.44088,-52.19859 93.10388,-63.98107 15.77716,-17.43357 3.49931,-13.04696 -28.06035,10.02538 -17.54902,12.82958 -45.86696,30.38039 -62.92874,39.00176 -17.06177,8.62138 -31.0214,17.71736 -31.0214,20.21323 0,6.89953 7.6385,5.50977 28.90661,-5.2593 z m 485.81891,-59.88528 16.08517,-9.90327 -15.86122,-6.55536 c -14.39269,-5.94838 -16.41382,-5.79957 -21.82988,1.60737 -7.59238,10.38326 -7.72267,24.79415 -0.22395,24.77172 3.15959,-0.009 12.98303,-4.47365 21.82988,-9.92046 z"
       id="path4" />
  </g>
</svg>
